Vaigai-BoldItalic.ufo
<glyph name="exclam" format="2">
  <advance width="219"/>
  <unicode hex="0021"/>
  <outline>
    <contour>
      <point x="232" y="615" type="line"/>
      <point x="213" y="631" type="line"/>
      <point x="190" y="622"/>
      <point x="124" y="591"/>
      <point x="97" y="577" type="curve"/>
      <point x="78" y="171" type="line"/>
      <point x="89" y="162" type="line"/>
      <point x="103" y="166"/>
      <point x="127" y="176"/>
      <point x="138" y="184" type="curve"/>
    </contour>
    <contour>
      <point x="163" y="75" type="curve" smooth="yes"/>
      <point x="163" y="104"/>
      <point x="145" y="125"/>
      <point x="105" y="125" type="curve" smooth="yes"/>
      <point x="51" y="125"/>
      <point x="18" y="76"/>
      <point x="18" y="38" type="curve" smooth="yes"/>
      <point x="18" y="7"/>
      <point x="36" y="-13"/>
      <point x="76" y="-13" type="curve" smooth="yes"/>
      <point x="134" y="-13"/>
      <point x="163" y="35"/>
    </contour>
  </outline>
</glyph>
<glyph name="quotedbl" format="2">
  <advance width="376"/>
  <unicode hex="0022"/>
  <outline>
    <contour>
      <point x="360" y="616" type="line"/>
      <point x="342" y="628" type="line"/>
      <point x="330" y="625"/>
      <point x="275" y="606"/>
      <point x="261" y="598" type="curve"/>
      <point x="258" y="370" type="line"/>
      <point x="270" y="370"/>
      <point x="290" y="373"/>
      <point x="299" y="378" type="curve"/>
    </contour>
    <contour>
      <point x="203" y="616" type="line"/>
      <point x="185" y="628" type="line"/>
      <point x="172" y="625"/>
      <point x="117" y="606"/>
      <point x="104" y="598" type="curve"/>
      <point x="100" y="370" type="line"/>
      <point x="113" y="370"/>
      <point x="132" y="373"/>
      <point x="142" y="378" type="curve"/>
    </contour>
  </outline>
</glyph>
<glyph name="numbersign" format="2">
  <advance width="393"/>
  <unicode hex="0023"/>
  <outline>
    <contour>
      <point x="430" y="415" type="curve"/>
      <point x="421" y="426" type="line"/>
      <point x="105" y="426" type="line"/>
      <point x="99" y="414"/>
      <point x="86" y="390"/>
      <point x="82" y="377" type="curve"/>
      <point x="90" y="367" type="line"/>
      <point x="406" y="367" type="line"/>
      <point x="412" y="377"/>
      <point x="425" y="402"/>
    </contour>
    <contour>
      <point x="409" y="558" type="line"/>
      <point x="399" y="567" type="line"/>
      <point x="387" y="562"/>
      <point x="365" y="558"/>
      <point x="352" y="549" type="curve"/>
      <point x="165" y="64" type="line"/>
      <point x="174" y="55" type="line"/>
      <point x="190" y="61"/>
      <point x="212" y="66"/>
      <point x="222" y="74" type="curve"/>
    </contour>
    <contour>
      <point x="283" y="558" type="line"/>
      <point x="273" y="567" type="line"/>
      <point x="260" y="562"/>
      <point x="239" y="558"/>
      <point x="226" y="549" type="curve"/>
      <point x="38" y="64" type="line"/>
      <point x="48" y="55" type="line"/>
      <point x="63" y="61"/>
      <point x="85" y="66"/>
      <point x="96" y="74" type="curve"/>
    </contour>
    <contour>
      <point x="367" y="251" type="curve"/>
      <point x="359" y="263" type="line"/>
      <point x="43" y="263" type="line"/>
      <point x="37" y="251"/>
      <point x="24" y="226"/>
      <point x="20" y="215" type="curve"/>
      <point x="28" y="204" type="line"/>
      <point x="345" y="204" type="line"/>
      <point x="350" y="214"/>
      <point x="363" y="240"/>
    </contour>
  </outline>
</glyph>
<glyph name="dollar" format="2">
  <advance width="478"/>
  <unicode hex="0024"/>
  <outline>
    <contour>
      <point x="468" y="511" type="line"/>
      <point x="468" y="511"/>
      <point x="394" y="534"/>
      <point x="328" y="534" type="curve"/>
      <point x="340" y="593" type="line"/>
      <point x="293" y="593" type="line"/>
      <point x="281" y="534" type="line"/>
      <point x="281" y="534"/>
      <point x="120" y="528"/>
      <point x="92" y="381" type="curve" smooth="yes"/>
      <point x="70" y="273"/>
      <point x="164" y="243"/>
      <point x="219" y="225" type="curve"/>
      <point x="185" y="49" type="line"/>
      <point x="185" y="49"/>
      <point x="135" y="50"/>
      <point x="105" y="67" type="curve" smooth="yes"/>
      <point x="98" y="71"/>
      <point x="99" y="68"/>
      <point x="99" y="78" type="curve" smooth="yes"/>
      <point x="101" y="164" type="line"/>
      <point x="44" y="164" type="line"/>
      <point x="16" y="26" type="line"/>
      <point x="80" y="3"/>
      <point x="176" y="0"/>
      <point x="176" y="0" type="curve"/>
      <point x="160" y="-81" type="line"/>
      <point x="207" y="-81" type="line"/>
      <point x="223" y="0" type="line"/>
      <point x="327" y="15"/>
      <point x="410" y="72"/>
      <point x="428" y="164" type="curve" smooth="yes"/>
      <point x="450" y="276"/>
      <point x="335" y="306"/>
      <point x="286" y="320" type="curve"/>
      <point x="319" y="485" type="line"/>
      <point x="328" y="485"/>
      <point x="366" y="478"/>
      <point x="382" y="471" type="curve" smooth="yes"/>
      <point x="386" y="469"/>
      <point x="389" y="467"/>
      <point x="388" y="461" type="curve"/>
      <point x="387" y="377" type="line"/>
      <point x="442" y="377" type="line"/>
    </contour>
    <contour>
      <point x="271" y="483" type="curve"/>
      <point x="241" y="332" type="line"/>
      <point x="241" y="332"/>
      <point x="186" y="345"/>
      <point x="199" y="410" type="curve" smooth="yes"/>
      <point x="212" y="479"/>
      <point x="271" y="483"/>
    </contour>
    <contour>
      <point x="320" y="135" type="curve" smooth="yes"/>
      <point x="305" y="57"/>
      <point x="233" y="51"/>
      <point x="233" y="51" type="curve"/>
      <point x="265" y="213" type="line"/>
      <point x="291" y="206"/>
      <point x="331" y="187"/>
    </contour>
  </outline>
</glyph>
<glyph name="percent" format="2">
  <advance width="593"/>
  <unicode hex="0025"/>
  <outline>
    <contour>
      <point x="555" y="208" type="curve" smooth="yes"/>
      <point x="555" y="280"/>
      <point x="510" y="292"/>
      <point x="481" y="292" type="curve" smooth="yes"/>
      <point x="398" y="292"/>
      <point x="335" y="184"/>
      <point x="335" y="89" type="curve" smooth="yes"/>
      <point x="335" y="23"/>
      <point x="376" y="11"/>
      <point x="405" y="11" type="curve" smooth="yes"/>
      <point x="497" y="11"/>
      <point x="555" y="120"/>
    </contour>
    <contour>
      <point x="557" y="506" type="line"/>
      <point x="492" y="505" type="line"/>
      <point x="87" y="8" type="line"/>
      <point x="151" y="9" type="line"/>
    </contour>
    <contour>
      <point x="243" y="505" type="curve" smooth="yes"/>
      <point x="150" y="505"/>
      <point x="96" y="392"/>
      <point x="96" y="307" type="curve" smooth="yes"/>
      <point x="96" y="229"/>
      <point x="149" y="224"/>
      <point x="168" y="224" type="curve" smooth="yes"/>
      <point x="256" y="224"/>
      <point x="315" y="338"/>
      <point x="315" y="427" type="curve" smooth="yes"/>
      <point x="315" y="501"/>
      <point x="264" y="505"/>
    </contour>
    <contour>
      <point x="449" y="80" type="curve" smooth="yes"/>
      <point x="420" y="80"/>
      <point x="406" y="99"/>
      <point x="406" y="137" type="curve" smooth="yes"/>
      <point x="406" y="150"/>
      <point x="408" y="167"/>
      <point x="413" y="189" type="curve" smooth="yes"/>
      <point x="418" y="211"/>
      <point x="427" y="222"/>
      <point x="442" y="222" type="curve" smooth="yes"/>
      <point x="481" y="222"/>
      <point x="485" y="183"/>
      <point x="485" y="168" type="curve" smooth="yes"/>
      <point x="485" y="138"/>
      <point x="477" y="80"/>
    </contour>
    <contour>
      <point x="206" y="293" type="curve" smooth="yes"/>
      <point x="169" y="293"/>
      <point x="165" y="331"/>
      <point x="165" y="348" type="curve" smooth="yes"/>
      <point x="165" y="349"/>
      <point x="166" y="436"/>
      <point x="201" y="436" type="curve" smooth="yes"/>
      <point x="230" y="436"/>
      <point x="244" y="417"/>
      <point x="244" y="378" type="curve" smooth="yes"/>
      <point x="244" y="341"/>
      <point x="236" y="293"/>
    </contour>
  </outline>
</glyph>
<glyph name="ampersand" format="2">
  <advance width="583"/>
  <unicode hex="0026"/>
  <outline>
    <contour>
      <point x="615" y="328" type="curve"/>
      <point x="605" y="348" type="line"/>
      <point x="402" y="348" type="line"/>
      <point x="391" y="344"/>
      <point x="366" y="320"/>
      <point x="359" y="313" type="curve"/>
      <point x="370" y="296" type="line"/>
      <point x="402" y="296"/>
      <point x="428" y="269"/>
      <point x="421" y="220" type="curve" smooth="yes"/>
      <point x="411" y="146"/>
      <point x="316" y="54"/>
      <point x="231" y="54" type="curve" smooth="yes"/>
      <point x="186" y="54"/>
      <point x="138" y="81"/>
      <point x="150" y="163" type="curve" smooth="yes"/>
      <point x="159" y="232"/>
      <point x="188" y="285"/>
      <point x="297" y="352" type="curve" smooth="yes"/>
      <point x="367" y="395"/>
      <point x="447" y="468"/>
      <point x="456" y="529" type="curve" smooth="yes"/>
      <point x="464" y="585"/>
      <point x="432" y="637"/>
      <point x="345" y="637" type="curve" smooth="yes"/>
      <point x="251" y="637"/>
      <point x="166" y="566"/>
      <point x="153" y="471" type="curve"/>
      <point x="124" y="260"/>
      <point x="364" y="-13"/>
      <point x="419" y="-13" type="curve" smooth="yes"/>
      <point x="431" y="-13"/>
      <point x="505" y="6"/>
      <point x="555" y="28" type="curve"/>
      <point x="552" y="65" type="line"/>
      <point x="526" y="58"/>
      <point x="491" y="63"/>
      <point x="465" y="90" type="curve"/>
      <point x="378" y="180"/>
      <point x="243" y="365"/>
      <point x="261" y="496" type="curve" smooth="yes"/>
      <point x="268" y="542"/>
      <point x="284" y="577"/>
      <point x="311" y="577" type="curve" smooth="yes"/>
      <point x="331" y="577"/>
      <point x="349" y="555"/>
      <point x="344" y="514" type="curve" smooth="yes"/>
      <point x="338" y="475"/>
      <point x="315" y="427"/>
      <point x="261" y="397" type="curve" smooth="yes"/>
      <point x="108" y="313"/>
      <point x="40" y="233"/>
      <point x="29" y="154" type="curve"/>
      <point x="14" y="44"/>
      <point x="74" y="-13"/>
      <point x="193" y="-13" type="curve" smooth="yes"/>
      <point x="348" y="-13"/>
      <point x="492" y="136"/>
      <point x="506" y="238" type="curve" smooth="yes"/>
      <point x="508" y="256"/>
      <point x="508" y="274"/>
      <point x="499" y="290" type="curve"/>
      <point x="518" y="289"/>
      <point x="540" y="277"/>
      <point x="558" y="267" type="curve"/>
      <point x="573" y="277"/>
      <point x="599" y="310"/>
    </contour>
  </outline>
</glyph>
<glyph name="quotesingle" format="2">
  <advance width="199"/>
  <unicode hex="0027"/>
  <outline>
    <contour>
      <point x="203" y="616" type="line"/>
      <point x="185" y="628" type="line"/>
      <point x="172" y="625"/>
      <point x="117" y="606"/>
      <point x="104" y="598" type="curve"/>
      <point x="100" y="370" type="line"/>
      <point x="113" y="370"/>
      <point x="132" y="373"/>
      <point x="142" y="378" type="curve"/>
    </contour>
  </outline>
</glyph>
<glyph name="parenleft" format="2">
  <advance width="281"/>
  <unicode hex="0028"/>
  <outline>
    <contour>
      <point x="334" y="667" type="curve"/>
      <point x="315" y="704" type="line"/>
      <point x="175" y="634"/>
      <point x="72" y="478"/>
      <point x="44" y="286" type="curve" smooth="yes"/>
      <point x="18" y="99"/>
      <point x="78" y="-64"/>
      <point x="197" y="-138" type="curve"/>
      <point x="226" y="-101" type="line"/>
      <point x="155" y="-8"/>
      <point x="143" y="128"/>
      <point x="167" y="299" type="curve" smooth="yes"/>
      <point x="194" y="487"/>
      <point x="257" y="600"/>
    </contour>
  </outline>
</glyph>
<glyph name="parenright" format="2">
  <advance width="281"/>
  <unicode hex="0029"/>
  <outline>
    <contour>
      <point x="245" y="280" type="curve" smooth="yes"/>
      <point x="272" y="466"/>
      <point x="211" y="630"/>
      <point x="93" y="704" type="curve"/>
      <point x="63" y="667" type="line"/>
      <point x="135" y="575"/>
      <point x="146" y="437"/>
      <point x="122" y="266" type="curve" smooth="yes"/>
      <point x="96" y="78"/>
      <point x="33" y="-34"/>
      <point x="-44" y="-101" type="curve"/>
      <point x="-25" y="-138" type="line"/>
      <point x="114" y="-67"/>
      <point x="218" y="87"/>
    </contour>
  </outline>
</glyph>
<glyph name="asterisk" format="2">
  <advance width="323"/>
  <unicode hex="002A"/>
  <outline>
    <contour>
      <point x="122" y="311" type="line"/>
      <point x="134" y="313"/>
      <point x="171" y="329"/>
      <point x="183" y="336" type="curve"/>
      <point x="183" y="465" type="line"/>
      <point x="273" y="376" type="line"/>
      <point x="294" y="385" type="line"/>
      <point x="299" y="398"/>
      <point x="308" y="437"/>
      <point x="311" y="451" type="curve"/>
      <point x="204" y="498" type="line"/>
      <point x="335" y="550" type="line"/>
      <point x="340" y="573" type="line"/>
      <point x="333" y="582"/>
      <point x="306" y="606"/>
      <point x="297" y="613" type="curve"/>
      <point x="190" y="531" type="line"/>
      <point x="230" y="672" type="line"/>
      <point x="215" y="685" type="line"/>
      <point x="202" y="682"/>
      <point x="166" y="667"/>
      <point x="154" y="660" type="curve"/>
      <point x="154" y="531" type="line"/>
      <point x="64" y="620" type="line"/>
      <point x="43" y="610" type="line"/>
      <point x="38" y="598"/>
      <point x="29" y="558"/>
      <point x="26" y="544" type="curve"/>
      <point x="134" y="497" type="line"/>
      <point x="3" y="446" type="line"/>
      <point x="-2" y="423" type="line"/>
      <point x="3" y="414"/>
      <point x="30" y="390"/>
      <point x="41" y="382" type="curve"/>
      <point x="147" y="464" type="line"/>
      <point x="107" y="324" type="line"/>
    </contour>
  </outline>
</glyph>
<glyph name="plus" format="2">
  <advance width="366"/>
  <unicode hex="002B"/>
  <outline>
    <contour>
      <point x="241" y="396" type="line"/>
      <point x="229" y="410" type="line"/>
      <point x="216" y="407"/>
      <point x="184" y="397"/>
      <point x="173" y="393" type="curve"/>
      <point x="131" y="97" type="line"/>
      <point x="144" y="83" type="line"/>
      <point x="157" y="86"/>
      <point x="188" y="95"/>
      <point x="200" y="101" type="curve"/>
    </contour>
    <contour>
      <point x="344" y="266" type="curve"/>
      <point x="332" y="281" type="line"/>
      <point x="51" y="281" type="line"/>
      <point x="45" y="269"/>
      <point x="28" y="240"/>
      <point x="24" y="228" type="curve"/>
      <point x="35" y="213" type="line"/>
      <point x="317" y="213" type="line"/>
      <point x="322" y="222"/>
      <point x="340" y="253"/>
    </contour>
  </outline>
</glyph>
<glyph name="comma" format="2">
  <advance width="199"/>
  <unicode hex="002C"/>
  <outline>
    <contour>
      <point x="154" y="49" type="curve"/>
      <point x="154" y="85"/>
      <point x="144" y="97"/>
      <point x="123" y="109" type="curve"/>
      <point x="100" y="109"/>
      <point x="27" y="79"/>
      <point x="9" y="63" type="curve"/>
      <point x="12" y="34" type="line"/>
      <point x="47" y="38"/>
      <point x="61" y="14"/>
      <point x="61" y="-6" type="curve" smooth="yes"/>
      <point x="61" y="-40"/>
      <point x="38" y="-86"/>
      <point x="-6" y="-134" type="curve"/>
      <point x="15" y="-153" type="line"/>
      <point x="76" y="-116"/>
      <point x="154" y="-13"/>
    </contour>
  </outline>
</glyph>
<glyph name="hyphen" format="2">
  <advance width="333"/>
  <unicode hex="002D"/>
  <outline>
    <contour>
      <point x="305" y="185" type="line"/>
      <point x="322" y="267" type="line"/>
      <point x="30" y="267" type="line"/>
      <point x="13" y="185" type="line"/>
    </contour>
  </outline>
</glyph>
<glyph name="period" format="2">
  <advance width="246"/>
  <unicode hex="002E"/>
  <outline>
    <contour>
      <point x="192" y="72" type="curve" smooth="yes"/>
      <point x="192" y="103"/>
      <point x="165" y="127"/>
      <point x="130" y="127" type="curve" smooth="yes"/>
      <point x="86" y="127"/>
      <point x="43" y="89"/>
      <point x="43" y="50" type="curve" smooth="yes"/>
      <point x="43" y="22"/>
      <point x="63" y="-3"/>
      <point x="102" y="-3" type="curve" smooth="yes"/>
      <point x="143" y="-3"/>
      <point x="192" y="28"/>
    </contour>
  </outline>
</glyph>
<glyph name="slash" format="2">
  <advance width="380"/>
  <unicode hex="002F"/>
  <outline>
    <contour>
      <point x="430" y="690" type="line"/>
      <point x="414" y="702" type="line"/>
      <point x="397" y="698"/>
      <point x="362" y="686"/>
      <point x="346" y="676" type="curve"/>
      <point x="-48" y="-134" type="line"/>
      <point x="-33" y="-147" type="line"/>
      <point x="-19" y="-143"/>
      <point x="24" y="-128"/>
      <point x="36" y="-120" type="curve"/>
    </contour>
  </outline>
</glyph>
<glyph name="one" format="2">
  <advance width="393"/>
  <unicode hex="0031"/>
  <outline>
    <contour>
      <point x="327" y="32" type="line"/>
      <point x="248" y="43"/>
      <point x="231" y="60"/>
      <point x="232" y="71" type="curve" smooth="yes"/>
      <point x="295" y="529" type="line"/>
      <point x="280" y="547" type="line"/>
      <point x="240" y="527"/>
      <point x="128" y="484"/>
      <point x="81" y="472" type="curve"/>
      <point x="87" y="441" type="line"/>
      <point x="160" y="457"/>
      <point x="186" y="454"/>
      <point x="192" y="447" type="curve" smooth="yes"/>
      <point x="197" y="439"/>
      <point x="196" y="427"/>
      <point x="193" y="404" type="curve" smooth="yes"/>
      <point x="148" y="71" type="line" smooth="yes"/>
      <point x="146" y="59"/>
      <point x="119" y="43"/>
      <point x="33" y="32" type="curve"/>
      <point x="29" y="0" type="line"/>
      <point x="323" y="0" type="line"/>
    </contour>
  </outline>
</glyph>
<glyph name="two" format="2">
  <advance width="425"/>
  <unicode hex="0032"/>
  <outline>
    <contour>
      <point x="404" y="450" type="curve" smooth="yes"/>
      <point x="404" y="520"/>
      <point x="341" y="542"/>
      <point x="273" y="542" type="curve" smooth="yes"/>
      <point x="166" y="542"/>
      <point x="73" y="467"/>
      <point x="65" y="406" type="curve"/>
      <point x="76" y="371" type="line"/>
      <point x="101" y="373"/>
      <point x="162" y="390"/>
      <point x="181" y="401" type="curve"/>
      <point x="178" y="443"/>
      <point x="193" y="488"/>
      <point x="236" y="488" type="curve" smooth="yes"/>
      <point x="268" y="488"/>
      <point x="284" y="471"/>
      <point x="284" y="429" type="curve" smooth="yes"/>
      <point x="284" y="355"/>
      <point x="204" y="244"/>
      <point x="-4" y="32" type="curve"/>
      <point x="2" y="0" type="line"/>
      <point x="343" y="0" type="line"/>
      <point x="372" y="165" type="line"/>
      <point x="335" y="175" type="line"/>
      <point x="335" y="175"/>
      <point x="320" y="83"/>
      <point x="281" y="83" type="curve" smooth="yes"/>
      <point x="125" y="83" type="line"/>
      <point x="354" y="306"/>
      <point x="404" y="377"/>
    </contour>
  </outline>
</glyph>
<glyph name="three" format="2">
  <advance width="393"/>
  <unicode hex="0033"/>
  <outline>
    <contour>
      <point x="352" y="439" type="curve"/>
      <point x="352" y="493"/>
      <point x="321" y="542"/>
      <point x="235" y="542" type="curve" smooth="yes"/>
      <point x="147" y="542"/>
      <point x="68" y="468"/>
      <point x="61" y="419" type="curve"/>
      <point x="71" y="397" type="line"/>
      <point x="96" y="398"/>
      <point x="131" y="410"/>
      <point x="153" y="423" type="curve"/>
      <point x="151" y="464"/>
      <point x="176" y="494"/>
      <point x="210" y="494" type="curve" smooth="yes"/>
      <point x="246" y="494"/>
      <point x="262" y="468"/>
      <point x="262" y="431" type="curve" smooth="yes"/>
      <point x="262" y="358"/>
      <point x="211" y="319"/>
      <point x="137" y="299" type="curve"/>
      <point x="139" y="264" type="line"/>
      <point x="156" y="267"/>
      <point x="156" y="267"/>
      <point x="170" y="267" type="curve" smooth="yes"/>
      <point x="212" y="267"/>
      <point x="249" y="239"/>
      <point x="249" y="176" type="curve" smooth="yes"/>
      <point x="249" y="100"/>
      <point x="205" y="42"/>
      <point x="137" y="42" type="curve" smooth="yes"/>
      <point x="97" y="42"/>
      <point x="64" y="55"/>
      <point x="20" y="94" type="curve"/>
      <point x="0" y="56" type="line"/>
      <point x="40" y="10"/>
      <point x="94" y="-13"/>
      <point x="136" y="-13" type="curve" smooth="yes"/>
      <point x="254" y="-13"/>
      <point x="342" y="78"/>
      <point x="342" y="188" type="curve" smooth="yes"/>
      <point x="342" y="246"/>
      <point x="309" y="299"/>
      <point x="252" y="306" type="curve"/>
      <point x="308" y="330"/>
      <point x="352" y="376"/>
    </contour>
  </outline>
</glyph>
<glyph name="four" format="2">
  <advance width="393"/>
  <unicode hex="0034"/>
  <outline>
    <contour>
      <point x="366" y="192" type="curve"/>
      <point x="356" y="206" type="line"/>
      <point x="303" y="206" type="line"/>
      <point x="347" y="529" type="line"/>
      <point x="333" y="547" type="line"/>
      <point x="312" y="537"/>
      <point x="277" y="523"/>
      <point x="251" y="513" type="curve"/>
      <point x="8" y="166" type="line"/>
      <point x="21" y="149" type="line"/>
      <point x="215" y="149" type="line"/>
      <point x="203" y="59" type="line" smooth="yes"/>
      <point x="201" y="49"/>
      <point x="185" y="40"/>
      <point x="114" y="27" type="curve"/>
      <point x="110" y="0" type="line"/>
      <point x="331" y="0" type="line"/>
      <point x="335" y="27" type="line"/>
      <point x="292" y="38"/>
      <point x="281" y="45"/>
      <point x="283" y="54" type="curve"/>
      <point x="295" y="149" type="line"/>
      <point x="322" y="149" type="line"/>
      <point x="335" y="159"/>
      <point x="352" y="174"/>
    </contour>
    <contour>
      <point x="255" y="439" type="line"/>
      <point x="223" y="205" type="line"/>
      <point x="91" y="205" type="line"/>
    </contour>
  </outline>
</glyph>
<glyph name="five" format="2">
  <advance width="393"/>
  <unicode hex="0035"/>
  <outline>
    <contour>
      <point x="383" y="522" type="curve"/>
      <point x="371" y="537" type="line"/>
      <point x="371" y="537"/>
      <point x="352" y="529"/>
      <point x="323" y="529" type="curve" smooth="yes"/>
      <point x="122" y="529" type="line"/>
      <point x="111" y="467"/>
      <point x="73" y="328"/>
      <point x="53" y="264" type="curve"/>
      <point x="70" y="250" type="line"/>
      <point x="101" y="273"/>
      <point x="133" y="287"/>
      <point x="172" y="287" type="curve" smooth="yes"/>
      <point x="226" y="287"/>
      <point x="259" y="248"/>
      <point x="259" y="190" type="curve" smooth="yes"/>
      <point x="259" y="113"/>
      <point x="216" y="40"/>
      <point x="144" y="40" type="curve" smooth="yes"/>
      <point x="111" y="40"/>
      <point x="76" y="50"/>
      <point x="23" y="91" type="curve"/>
      <point x="1" y="55" type="line"/>
      <point x="42" y="9"/>
      <point x="95" y="-13"/>
      <point x="146" y="-13" type="curve" smooth="yes"/>
      <point x="277" y="-13"/>
      <point x="348" y="104"/>
      <point x="348" y="209" type="curve" smooth="yes"/>
      <point x="348" y="279"/>
      <point x="302" y="347"/>
      <point x="210" y="347" type="curve" smooth="yes"/>
      <point x="179" y="347"/>
      <point x="145" y="340"/>
      <point x="123" y="331" type="curve"/>
      <point x="131" y="357"/>
      <point x="149" y="423"/>
      <point x="156" y="457" type="curve"/>
      <point x="324" y="457" type="line"/>
      <point x="337" y="467"/>
      <point x="370" y="502"/>
    </contour>
  </outline>
</glyph>
<glyph name="six" format="2">
  <advance width="345"/>
  <unicode hex="0036"/>
  <outline>
    <contour>
      <point x="364" y="188" type="curve" smooth="yes"/>
      <point x="364" y="287"/>
      <point x="276" y="292"/>
      <point x="257" y="292" type="curve" smooth="yes"/>
      <point x="231" y="292"/>
      <point x="206" y="285"/>
      <point x="182" y="272" type="curve"/>
      <point x="239" y="389"/>
      <point x="358" y="419"/>
      <point x="407" y="427" type="curve"/>
      <point x="410" y="457" type="line"/>
      <point x="323" y="457"/>
      <point x="246" y="430"/>
      <point x="179" y="376" type="curve" smooth="yes"/>
      <point x="122" y="330"/>
      <point x="53" y="249"/>
      <point x="53" y="124" type="curve" smooth="yes"/>
      <point x="53" y="4"/>
      <point x="130" y="-12"/>
      <point x="172" y="-12" type="curve" smooth="yes"/>
      <point x="297" y="-12"/>
      <point x="364" y="102"/>
    </contour>
    <contour>
      <point x="191" y="27" type="curve" smooth="yes"/>
      <point x="136" y="27"/>
      <point x="131" y="87"/>
      <point x="131" y="110" type="curve" smooth="yes"/>
      <point x="131" y="156"/>
      <point x="145" y="211"/>
      <point x="160" y="226" type="curve" smooth="yes"/>
      <point x="175" y="236"/>
      <point x="194" y="241"/>
      <point x="219" y="241" type="curve" smooth="yes"/>
      <point x="233" y="241"/>
      <point x="279" y="241"/>
      <point x="279" y="173" type="curve" smooth="yes"/>
      <point x="279" y="131"/>
      <point x="262" y="27"/>
    </contour>
  </outline>
</glyph>
<glyph name="seven" format="2">
  <advance width="393"/>
  <unicode hex="0037"/>
  <outline>
    <contour>
      <point x="411" y="512" type="curve"/>
      <point x="400" y="529" type="line"/>
      <point x="91" y="529" type="line"/>
      <point x="81" y="503"/>
      <point x="61" y="426"/>
      <point x="54" y="399" type="curve"/>
      <point x="77" y="388" type="line"/>
      <point x="109" y="455"/>
      <point x="126" y="457"/>
      <point x="143" y="457" type="curve" smooth="yes"/>
      <point x="326" y="457" type="line"/>
      <point x="247" y="306"/>
      <point x="172" y="166"/>
      <point x="65" y="3" type="curve"/>
      <point x="81" y="-13" type="line"/>
      <point x="108" y="-5"/>
      <point x="147" y="6"/>
      <point x="168" y="21" type="curve"/>
      <point x="208" y="114"/>
      <point x="310" y="323"/>
    </contour>
  </outline>
</glyph>
<glyph name="eight" format="2">
  <advance width="345"/>
  <unicode hex="0038"/>
  <outline>
    <contour>
      <point x="339" y="133" type="curve" smooth="yes"/>
      <point x="339" y="180"/>
      <point x="304" y="217"/>
      <point x="272" y="244" type="curve"/>
      <point x="322" y="269"/>
      <point x="375" y="307"/>
      <point x="375" y="370" type="curve" smooth="yes"/>
      <point x="375" y="446"/>
      <point x="293" y="452"/>
      <point x="269" y="452" type="curve" smooth="yes"/>
      <point x="197" y="452"/>
      <point x="107" y="402"/>
      <point x="107" y="316" type="curve" smooth="yes"/>
      <point x="107" y="282"/>
      <point x="125" y="258"/>
      <point x="161" y="220" type="curve"/>
      <point x="124" y="197"/>
      <point x="100" y="180"/>
      <point x="88" y="167" type="curve" smooth="yes"/>
      <point x="59" y="137"/>
      <point x="52" y="97"/>
      <point x="52" y="81" type="curve" smooth="yes"/>
      <point x="52" y="55"/>
      <point x="62" y="33"/>
      <point x="82" y="15" type="curve" smooth="yes"/>
      <point x="101" y="-3"/>
      <point x="130" y="-12"/>
      <point x="167" y="-12" type="curve" smooth="yes"/>
      <point x="306" y="-12"/>
      <point x="339" y="88"/>
    </contour>
    <contour>
      <point x="237" y="269" type="curve"/>
      <point x="209" y="290"/>
      <point x="183" y="313"/>
      <point x="183" y="346" type="curve" smooth="yes"/>
      <point x="183" y="379"/>
      <point x="208" y="412"/>
      <point x="256" y="412" type="curve" smooth="yes"/>
      <point x="305" y="412"/>
      <point x="308" y="376"/>
      <point x="308" y="367" type="curve" smooth="yes"/>
      <point x="308" y="310"/>
      <point x="253" y="278"/>
    </contour>
    <contour>
      <point x="184" y="27" type="curve" smooth="yes"/>
      <point x="135" y="27"/>
      <point x="127" y="63"/>
      <point x="127" y="86" type="curve" smooth="yes"/>
      <point x="127" y="144"/>
      <point x="167" y="178"/>
      <point x="190" y="194" type="curve"/>
      <point x="216" y="172"/>
      <point x="231" y="160"/>
      <point x="234" y="157" type="curve" smooth="yes"/>
      <point x="253" y="140"/>
      <point x="262" y="123"/>
      <point x="262" y="106" type="curve" smooth="yes"/>
      <point x="262" y="70"/>
      <point x="235" y="27"/>
    </contour>
  </outline>
</glyph>
<glyph name="nine" format="2">
  <advance width="393"/>
  <unicode hex="0039"/>
  <outline>
    <contour>
      <point x="383" y="378" type="curve"/>
      <point x="383" y="490"/>
      <point x="326" y="542"/>
      <point x="246" y="542" type="curve" smooth="yes"/>
      <point x="132" y="542"/>
      <point x="44" y="421"/>
      <point x="44" y="318" type="curve" smooth="yes"/>
      <point x="44" y="247"/>
      <point x="85" y="188"/>
      <point x="164" y="188" type="curve" smooth="yes"/>
      <point x="228" y="188"/>
      <point x="282" y="237"/>
      <point x="315" y="289" type="curve"/>
      <point x="315" y="344" type="line"/>
      <point x="289" y="294"/>
      <point x="249" y="248"/>
      <point x="196" y="248" type="curve" smooth="yes"/>
      <point x="169" y="248"/>
      <point x="133" y="268"/>
      <point x="133" y="338" type="curve" smooth="yes"/>
      <point x="133" y="403"/>
      <point x="155" y="489"/>
      <point x="226" y="489" type="curve" smooth="yes"/>
      <point x="260" y="489"/>
      <point x="290" y="461"/>
      <point x="290" y="371" type="curve" smooth="yes"/>
      <point x="289" y="181"/>
      <point x="222" y="59"/>
      <point x="34" y="15" type="curve"/>
      <point x="38" y="-18" type="line"/>
      <point x="263" y="7"/>
      <point x="383" y="178"/>
    </contour>
  </outline>
</glyph>
<glyph name="colon" format="2">
  <advance width="199"/>
  <unicode hex="003A"/>
  <outline>
    <contour>
      <point x="110" y="293" type="curve" smooth="yes"/>
      <point x="158" y="293"/>
      <point x="185" y="339"/>
      <point x="185" y="377" type="curve"/>
      <point x="185" y="404"/>
      <point x="169" y="423"/>
      <point x="138" y="423" type="curve" smooth="yes"/>
      <point x="93" y="423"/>
      <point x="62" y="376"/>
      <point x="62" y="341" type="curve" smooth="yes"/>
      <point x="62" y="312"/>
      <point x="77" y="293"/>
    </contour>
    <contour>
      <point x="68" y="-13" type="curve" smooth="yes"/>
      <point x="116" y="-13"/>
      <point x="144" y="32"/>
      <point x="144" y="71" type="curve"/>
      <point x="144" y="97"/>
      <point x="127" y="116"/>
      <point x="97" y="116" type="curve" smooth="yes"/>
      <point x="51" y="116"/>
      <point x="20" y="70"/>
      <point x="20" y="34" type="curve" smooth="yes"/>
      <point x="20" y="5"/>
      <point x="36" y="-13"/>
    </contour>
  </outline>
</glyph>
<glyph name="semicolon" format="2">
  <advance width="219"/>
  <unicode hex="003B"/>
  <outline>
    <contour>
      <point x="23" y="-173" type="line"/>
      <point x="85" y="-136"/>
      <point x="175" y="-27"/>
      <point x="175" y="53" type="curve" smooth="yes"/>
      <point x="175" y="89"/>
      <point x="163" y="106"/>
      <point x="143" y="118" type="curve"/>
      <point x="115" y="117"/>
      <point x="33" y="87"/>
      <point x="11" y="69" type="curve"/>
      <point x="13" y="31" type="line"/>
      <point x="47" y="34"/>
      <point x="62" y="8"/>
      <point x="62" y="-13" type="curve" smooth="yes"/>
      <point x="62" y="-49"/>
      <point x="40" y="-101"/>
      <point x="-4" y="-149" type="curve"/>
    </contour>
    <contour>
      <point x="117" y="284" type="curve" smooth="yes"/>
      <point x="174" y="284"/>
      <point x="204" y="333"/>
      <point x="204" y="373" type="curve" smooth="yes"/>
      <point x="204" y="402"/>
      <point x="185" y="423"/>
      <point x="146" y="423" type="curve" smooth="yes"/>
      <point x="92" y="423"/>
      <point x="58" y="374"/>
      <point x="58" y="336" type="curve" smooth="yes"/>
      <point x="58" y="305"/>
      <point x="76" y="284"/>
    </contour>
  </outline>
</glyph>
<glyph name="less" format="2">
  <advance width="382"/>
  <unicode hex="003C"/>
  <outline>
    <contour>
      <point x="288" y="108" type="line"/>
      <point x="306" y="119"/>
      <point x="319" y="131"/>
      <point x="332" y="143" type="curve"/>
      <point x="326" y="161" type="line"/>
      <point x="120" y="248" type="line"/>
      <point x="347" y="335" type="line"/>
      <point x="352" y="346"/>
      <point x="362" y="376"/>
      <point x="367" y="388" type="curve"/>
      <point x="357" y="401" type="line"/>
      <point x="44" y="281" type="line"/>
      <point x="38" y="269"/>
      <point x="28" y="246"/>
      <point x="24" y="231" type="curve"/>
      <point x="34" y="216" type="line"/>
    </contour>
  </outline>
</glyph>
<glyph name="greater" format="2">
  <advance width="382"/>
  <unicode hex="003E"/>
  <outline>
    <contour>
      <point x="344" y="293" type="line"/>
      <point x="90" y="401" type="line"/>
      <point x="72" y="390"/>
      <point x="59" y="377"/>
      <point x="46" y="365" type="curve"/>
      <point x="52" y="347" type="line"/>
      <point x="258" y="260" type="line"/>
      <point x="32" y="174" type="line"/>
      <point x="27" y="163"/>
      <point x="16" y="133"/>
      <point x="12" y="121" type="curve"/>
      <point x="21" y="108" type="line"/>
      <point x="334" y="228" type="line"/>
      <point x="341" y="241"/>
      <point x="350" y="262"/>
      <point x="355" y="277" type="curve"/>
    </contour>
  </outline>
</glyph>
<glyph name="question" format="2">
  <advance width="412"/>
  <unicode hex="003F"/>
  <outline>
    <contour>
      <point x="96" y="312" type="curve" smooth="yes"/>
      <point x="96" y="278"/>
      <point x="119" y="271"/>
      <point x="137" y="271" type="curve" smooth="yes"/>
      <point x="151" y="271"/>
      <point x="163" y="276"/>
      <point x="173" y="286" type="curve" smooth="yes"/>
      <point x="210" y="323"/>
      <point x="168" y="356"/>
      <point x="170" y="372" type="curve" smooth="yes"/>
      <point x="176" y="394"/>
      <point x="214" y="408"/>
      <point x="241" y="408" type="curve" smooth="yes"/>
      <point x="298" y="408"/>
      <point x="302" y="359"/>
      <point x="302" y="344" type="curve" smooth="yes"/>
      <point x="302" y="299"/>
      <point x="265" y="238"/>
      <point x="247" y="211" type="curve" smooth="yes"/>
      <point x="213" y="160" type="line"/>
      <point x="175" y="94"/>
      <point x="167" y="59"/>
      <point x="162" y="35" type="curve"/>
      <point x="195" y="35" type="line"/>
      <point x="223" y="103"/>
      <point x="249" y="136"/>
      <point x="301" y="185" type="curve" smooth="yes"/>
      <point x="376" y="255"/>
      <point x="397" y="310"/>
      <point x="397" y="351" type="curve" smooth="yes"/>
      <point x="397" y="368"/>
      <point x="391" y="386"/>
      <point x="379" y="405" type="curve" smooth="yes"/>
      <point x="364" y="426"/>
      <point x="317" y="452"/>
      <point x="265" y="452" type="curve" smooth="yes"/>
      <point x="170" y="452"/>
      <point x="96" y="379"/>
    </contour>
    <contour>
      <point x="219" y="-37" type="curve" smooth="yes"/>
      <point x="219" y="-12"/>
      <point x="200" y="4"/>
      <point x="175" y="4" type="curve" smooth="yes"/>
      <point x="157" y="4"/>
      <point x="110" y="-10"/>
      <point x="110" y="-58" type="curve" smooth="yes"/>
      <point x="110" y="-96"/>
      <point x="145" y="-98"/>
      <point x="153" y="-98" type="curve" smooth="yes"/>
      <point x="185" y="-98"/>
      <point x="219" y="-70"/>
    </contour>
  </outline>
</glyph>
<glyph name="at" format="2">
  <advance width="748"/>
  <unicode hex="0040"/>
  <outline>
    <contour>
      <point x="702" y="294" type="curve" smooth="yes"/>
      <point x="702" y="455"/>
      <point x="591" y="549"/>
      <point x="417" y="549" type="curve" smooth="yes"/>
      <point x="224" y="549"/>
      <point x="46" y="421"/>
      <point x="46" y="187" type="curve" smooth="yes"/>
      <point x="46" y="-2"/>
      <point x="190" y="-125"/>
      <point x="376" y="-125" type="curve" smooth="yes"/>
      <point x="478" y="-125"/>
      <point x="559" y="-91"/>
      <point x="631" y="-53" type="curve"/>
      <point x="614" y="-13" type="line"/>
      <point x="546" y="-51"/>
      <point x="480" y="-80"/>
      <point x="396" y="-80" type="curve" smooth="yes"/>
      <point x="233" y="-80"/>
      <point x="127" y="38"/>
      <point x="127" y="202" type="curve" smooth="yes"/>
      <point x="127" y="381"/>
      <point x="260" y="508"/>
      <point x="428" y="508" type="curve" smooth="yes"/>
      <point x="526" y="508"/>
      <point x="640" y="444"/>
      <point x="640" y="293" type="curve" smooth="yes"/>
      <point x="640" y="164"/>
      <point x="561" y="91"/>
      <point x="529" y="91" type="curve" smooth="yes"/>
      <point x="500" y="91"/>
      <point x="503" y="115"/>
      <point x="511" y="150" type="curve"/>
      <point x="511" y="150"/>
      <point x="562" y="372"/>
      <point x="567" y="387" type="curve"/>
      <point x="500" y="387" type="line"/>
      <point x="489" y="367" type="line"/>
      <point x="468" y="377"/>
      <point x="441" y="392"/>
      <point x="416" y="392" type="curve" smooth="yes"/>
      <point x="300" y="392"/>
      <point x="206" y="292"/>
      <point x="206" y="173" type="curve" smooth="yes"/>
      <point x="206" y="96"/>
      <point x="244" y="40"/>
      <point x="317" y="40" type="curve" smooth="yes"/>
      <point x="358" y="40"/>
      <point x="394" y="67"/>
      <point x="427" y="96" type="curve"/>
      <point x="432" y="66"/>
      <point x="447" y="39"/>
      <point x="496" y="39" type="curve" smooth="yes"/>
      <point x="590" y="39"/>
      <point x="702" y="135"/>
    </contour>
    <contour>
      <point x="455" y="310" type="curve"/>
      <point x="423" y="146" type="line"/>
      <point x="407" y="127"/>
      <point x="387" y="97"/>
      <point x="353" y="97" type="curve" smooth="yes"/>
      <point x="328" y="97"/>
      <point x="302" y="120"/>
      <point x="302" y="180" type="curve" smooth="yes"/>
      <point x="302" y="280"/>
      <point x="355" y="352"/>
      <point x="419" y="352" type="curve" smooth="yes"/>
      <point x="447" y="352"/>
      <point x="458" y="323"/>
    </contour>
  </outline>
</glyph>
<glyph name="A" format="2">
  <advance width="531"/>
  <unicode hex="0041"/>
  <outline>
    <contour>
      <point x="188" y="243" type="line"/>
      <point x="273" y="440" type="line"/>
      <point x="312" y="243" type="line"/>
    </contour>
    <contour>
      <point x="323" y="186" type="line"/>
      <point x="347" y="66" type="line" smooth="yes"/>
      <point x="350" y="47"/>
      <point x="336" y="39"/>
      <point x="293" y="36" type="curve"/>
      <point x="288" y="0" type="line"/>
      <point x="502" y="0" type="line"/>
      <point x="507" y="36" type="line"/>
      <point x="472" y="40"/>
      <point x="464" y="50"/>
      <point x="461" y="66" type="curve" smooth="yes"/>
      <point x="360" y="578" type="line"/>
      <point x="326" y="569"/>
      <point x="281" y="552"/>
      <point x="247" y="526" type="curve"/>
      <point x="45" y="66" type="line" smooth="yes"/>
      <point x="37" y="48"/>
      <point x="18" y="43"/>
      <point x="-19" y="36" type="curve"/>
      <point x="-24" y="0" type="line"/>
      <point x="157" y="0" type="line"/>
      <point x="162" y="36" type="line"/>
      <point x="118" y="41"/>
      <point x="101" y="48"/>
      <point x="109" y="66" type="curve" smooth="yes"/>
      <point x="163" y="186" type="line"/>
    </contour>
  </outline>
</glyph>
<glyph name="B" format="2">
  <advance width="519"/>
  <unicode hex="0042"/>
  <anchor x="314" y="585" name="U"/>
  <outline>
    <contour>
      <point x="492" y="432" type="curve" smooth="yes"/>
      <point x="492" y="490"/>
      <point x="453" y="536"/>
      <point x="317" y="536" type="curve" smooth="yes"/>
      <point x="76" y="536" type="line"/>
      <point x="76" y="496" type="line"/>
      <point x="123" y="492" type="line" smooth="yes"/>
      <point x="133" y="492"/>
      <point x="138" y="489"/>
      <point x="136" y="480" type="curve" smooth="yes"/>
      <point x="53" y="56" type="line" smooth="yes"/>
      <point x="51" y="45"/>
      <point x="47" y="44"/>
      <point x="38" y="44" type="curve" smooth="yes"/>
      <point x="-12" y="39" type="line"/>
      <point x="-12" y="0" type="line"/>
      <point x="223" y="0" type="line" smooth="yes"/>
      <point x="377" y="0"/>
      <point x="476" y="53"/>
      <point x="476" y="180" type="curve" smooth="yes"/>
      <point x="476" y="244"/>
      <point x="435" y="273"/>
      <point x="366" y="286" type="curve"/>
      <point x="438" y="312"/>
      <point x="492" y="354"/>
    </contour>
    <contour>
      <point x="370" y="426" type="curve" smooth="yes"/>
      <point x="370" y="352"/>
      <point x="315" y="299"/>
      <point x="235" y="299" type="curve" smooth="yes"/>
      <point x="232" y="299"/>
      <point x="224" y="299"/>
      <point x="216" y="300" type="curve"/>
      <point x="253" y="493" type="line"/>
      <point x="260" y="493"/>
      <point x="269" y="494"/>
      <point x="278" y="494" type="curve" smooth="yes"/>
      <point x="326" y="494"/>
      <point x="370" y="477"/>
    </contour>
    <contour>
      <point x="355" y="172" type="curve" smooth="yes"/>
      <point x="355" y="87"/>
      <point x="292" y="44"/>
      <point x="197" y="44" type="curve" smooth="yes"/>
      <point x="189" y="44"/>
      <point x="176" y="44"/>
      <point x="165" y="44" type="curve"/>
      <point x="206" y="253" type="line"/>
      <point x="221" y="255"/>
      <point x="236" y="255"/>
      <point x="250" y="255" type="curve" smooth="yes"/>
      <point x="306" y="255"/>
      <point x="355" y="238"/>
    </contour>
  </outline>
</glyph>
<glyph name="C" format="2">
  <advance width="537"/>
  <unicode hex="0043"/>
  <anchor x="258" y="0" name="H"/>
  <anchor x="371" y="585" name="U"/>
  <outline>
    <contour>
      <point x="549" y="516" type="line"/>
      <point x="486" y="535"/>
      <point x="438" y="549"/>
      <point x="376" y="549" type="curve" smooth="yes"/>
      <point x="164" y="549"/>
      <point x="38" y="379"/>
      <point x="38" y="214" type="curve" smooth="yes"/>
      <point x="38" y="105"/>
      <point x="97" y="-12"/>
      <point x="277" y="-12" type="curve" smooth="yes"/>
      <point x="352" y="-12"/>
      <point x="417" y="7"/>
      <point x="458" y="21" type="curve"/>
      <point x="483" y="166" type="line"/>
      <point x="423" y="166" type="line"/>
      <point x="384" y="60" type="line" smooth="yes"/>
      <point x="382" y="55"/>
      <point x="378" y="49"/>
      <point x="370" y="47" type="curve" smooth="yes"/>
      <point x="360" y="44"/>
      <point x="328" y="35"/>
      <point x="303" y="35" type="curve" smooth="yes"/>
      <point x="235" y="35"/>
      <point x="156" y="83"/>
      <point x="156" y="205" type="curve" smooth="yes"/>
      <point x="156" y="391"/>
      <point x="279" y="500"/>
      <point x="380" y="500" type="curve" smooth="yes"/>
      <point x="404" y="500"/>
      <point x="445" y="487"/>
      <point x="454" y="483" type="curve" smooth="yes"/>
      <point x="464" y="478"/>
      <point x="466" y="471"/>
      <point x="466" y="464" type="curve"/>
      <point x="465" y="375" type="line"/>
      <point x="524" y="375" type="line"/>
    </contour>
  </outline>
</glyph>
<glyph name="D" format="2">
  <advance width="570"/>
  <unicode hex="0044"/>
  <anchor x="334" y="585" name="U"/>
  <outline>
    <contour>
      <point x="555" y="331" type="curve" smooth="yes"/>
      <point x="555" y="478"/>
      <point x="449" y="536"/>
      <point x="283" y="536" type="curve" smooth="yes"/>
      <point x="76" y="536" type="line"/>
      <point x="76" y="496" type="line"/>
      <point x="98" y="494"/>
      <point x="122" y="492"/>
      <point x="122" y="492" type="curve"/>
      <point x="132" y="492"/>
      <point x="138" y="490"/>
      <point x="136" y="480" type="curve" smooth="yes"/>
      <point x="53" y="56" type="line" smooth="yes"/>
      <point x="51" y="45"/>
      <point x="48" y="44"/>
      <point x="35" y="43" type="curve"/>
      <point x="35" y="43"/>
      <point x="11" y="42"/>
      <point x="-12" y="39" type="curve"/>
      <point x="-12" y="0" type="line"/>
      <point x="192" y="0" type="line" smooth="yes"/>
      <point x="418" y="0"/>
      <point x="555" y="140"/>
    </contour>
    <contour>
      <point x="435" y="338" type="curve" smooth="yes"/>
      <point x="435" y="185"/>
      <point x="348" y="51"/>
      <point x="207" y="49" type="curve" smooth="yes"/>
      <point x="166" y="49" type="line"/>
      <point x="252" y="488" type="line"/>
      <point x="264" y="488" type="line" smooth="yes"/>
      <point x="346" y="486"/>
      <point x="435" y="470"/>
    </contour>
  </outline>
</glyph>
<glyph name="E" format="2">
  <advance width="480"/>
  <unicode hex="0045"/>
  <anchor x="198" y="0" name="H"/>
  <anchor x="303" y="585" name="U"/>
  <outline>
    <contour>
      <point x="498" y="536" type="line"/>
      <point x="76" y="536" type="line"/>
      <point x="76" y="496" type="line"/>
      <point x="98" y="494"/>
      <point x="122" y="492"/>
      <point x="122" y="492" type="curve"/>
      <point x="132" y="492"/>
      <point x="139" y="490"/>
      <point x="136" y="480" type="curve"/>
      <point x="53" y="56" type="line" smooth="yes"/>
      <point x="51" y="46"/>
      <point x="48" y="44"/>
      <point x="35" y="44" type="curve"/>
      <point x="35" y="44"/>
      <point x="12" y="42"/>
      <point x="-12" y="39" type="curve"/>
      <point x="-12" y="0" type="line"/>
      <point x="420" y="0" type="line"/>
      <point x="448" y="139" type="line"/>
      <point x="385" y="139" type="line"/>
      <point x="360" y="59" type="line" smooth="yes"/>
      <point x="357" y="52"/>
      <point x="345" y="48"/>
      <point x="337" y="48" type="curve" smooth="yes"/>
      <point x="167" y="48" type="line"/>
      <point x="207" y="254" type="line"/>
      <point x="299" y="254" type="line" smooth="yes"/>
      <point x="306" y="254"/>
      <point x="318" y="249"/>
      <point x="316" y="243" type="curve"/>
      <point x="308" y="183" type="line"/>
      <point x="367" y="183" type="line"/>
      <point x="404" y="371" type="line"/>
      <point x="346" y="371" type="line"/>
      <point x="329" y="315" type="line" smooth="yes"/>
      <point x="327" y="307"/>
      <point x="315" y="303"/>
      <point x="307" y="303" type="curve" smooth="yes"/>
      <point x="216" y="303" type="line"/>
      <point x="252" y="488" type="line"/>
      <point x="390" y="488" type="line" smooth="yes"/>
      <point x="399" y="488"/>
      <point x="408" y="486"/>
      <point x="408" y="478" type="curve" smooth="yes"/>
      <point x="408" y="410" type="line"/>
      <point x="472" y="410" type="line"/>
    </contour>
  </outline>
</glyph>
<glyph name="F" format="2">
  <advance width="444"/>
  <unicode hex="0046"/>
  <anchor x="285" y="585" name="U"/>
  <outline>
    <contour>
      <point x="489" y="536" type="line"/>
      <point x="76" y="536" type="line"/>
      <point x="76" y="496" type="line"/>
      <point x="97" y="494"/>
      <point x="121" y="492"/>
      <point x="121" y="492" type="curve"/>
      <point x="132" y="492"/>
      <point x="138" y="490"/>
      <point x="136" y="480" type="curve" smooth="yes"/>
      <point x="53" y="56" type="line" smooth="yes"/>
      <point x="51" y="46"/>
      <point x="45" y="44"/>
      <point x="33" y="44" type="curve"/>
      <point x="33" y="44"/>
      <point x="9" y="42"/>
      <point x="-12" y="39" type="curve"/>
      <point x="-12" y="0" type="line"/>
      <point x="235" y="0" type="line"/>
      <point x="235" y="39" type="line"/>
      <point x="208" y="42"/>
      <point x="183" y="44"/>
      <point x="183" y="44" type="curve"/>
      <point x="172" y="44"/>
      <point x="166" y="46"/>
      <point x="167" y="55" type="curve" smooth="yes"/>
      <point x="205" y="246" type="line"/>
      <point x="291" y="246" type="line" smooth="yes"/>
      <point x="299" y="246"/>
      <point x="310" y="242"/>
      <point x="309" y="235" type="curve" smooth="yes"/>
      <point x="300" y="175" type="line"/>
      <point x="360" y="175" type="line"/>
      <point x="397" y="364" type="line"/>
      <point x="338" y="364" type="line"/>
      <point x="322" y="306" type="line" smooth="yes"/>
      <point x="319" y="298"/>
      <point x="307" y="295"/>
      <point x="300" y="295" type="curve" smooth="yes"/>
      <point x="215" y="295" type="line"/>
      <point x="252" y="488" type="line"/>
      <point x="380" y="488" type="line" smooth="yes"/>
      <point x="388" y="488"/>
      <point x="398" y="486"/>
      <point x="398" y="478" type="curve" smooth="yes"/>
      <point x="398" y="401" type="line"/>
      <point x="463" y="401" type="line"/>
    </contour>
  </outline>
</glyph>
<glyph name="G" format="2">
  <advance width="499"/>
  <unicode hex="0047"/>
  <outline>
    <contour>
      <point x="503" y="277" type="line"/>
      <point x="257" y="277" type="line"/>
      <point x="254" y="241" type="line"/>
      <point x="342" y="227"/>
      <point x="347" y="217"/>
      <point x="345" y="205" type="curve" smooth="yes"/>
      <point x="326" y="77" type="line"/>
      <point x="305" y="62"/>
      <point x="283" y="60"/>
      <point x="268" y="60" type="curve" smooth="yes"/>
      <point x="210" y="60"/>
      <point x="142" y="110"/>
      <point x="142" y="235" type="curve" smooth="yes"/>
      <point x="142" y="317"/>
      <point x="176" y="426"/>
      <point x="217" y="468" type="curve" smooth="yes"/>
      <point x="246" y="497"/>
      <point x="275" y="510"/>
      <point x="301" y="510" type="curve" smooth="yes"/>
      <point x="362" y="510"/>
      <point x="391" y="468"/>
      <point x="408" y="423" type="curve"/>
      <point x="438" y="416" type="line"/>
      <point x="454" y="429"/>
      <point x="505" y="515"/>
      <point x="498" y="522" type="curve"/>
      <point x="468" y="550"/>
      <point x="396" y="566"/>
      <point x="352" y="566" type="curve" smooth="yes"/>
      <point x="263" y="566"/>
      <point x="204" y="540"/>
      <point x="154" y="497" type="curve" smooth="yes"/>
      <point x="77" y="431"/>
      <point x="24" y="328"/>
      <point x="24" y="216" type="curve" smooth="yes"/>
      <point x="24" y="75"/>
      <point x="123" y="-13"/>
      <point x="233" y="-13" type="curve" smooth="yes"/>
      <point x="281" y="-13"/>
      <point x="350" y="5"/>
      <point x="439" y="76" type="curve"/>
      <point x="441" y="98"/>
      <point x="450" y="174"/>
      <point x="454" y="205" type="curve" smooth="yes"/>
      <point x="456" y="218"/>
      <point x="469" y="232"/>
      <point x="500" y="241" type="curve"/>
    </contour>
  </outline>
</glyph>
<glyph name="H" format="2">
  <advance width="613"/>
  <unicode hex="0048"/>
  <anchor x="98" y="0" name="H"/>
  <anchor x="371" y="585" name="U"/>
  <outline>
    <contour>
      <point x="647" y="496" type="line"/>
      <point x="647" y="536" type="line"/>
      <point x="405" y="536" type="line"/>
      <point x="405" y="496" type="line"/>
      <point x="420" y="495"/>
      <point x="440" y="494"/>
      <point x="450" y="493" type="curve"/>
      <point x="463" y="492"/>
      <point x="468" y="490"/>
      <point x="467" y="480" type="curve" smooth="yes"/>
      <point x="432" y="304" type="line"/>
      <point x="216" y="304" type="line"/>
      <point x="251" y="480" type="line" smooth="yes"/>
      <point x="252" y="489"/>
      <point x="257" y="492"/>
      <point x="267" y="492" type="curve"/>
      <point x="278" y="493"/>
      <point x="299" y="495"/>
      <point x="317" y="496" type="curve"/>
      <point x="317" y="536" type="line"/>
      <point x="76" y="536" type="line"/>
      <point x="76" y="496" type="line"/>
      <point x="92" y="495"/>
      <point x="111" y="493"/>
      <point x="121" y="492" type="curve"/>
      <point x="132" y="492"/>
      <point x="138" y="490"/>
      <point x="136" y="480" type="curve" smooth="yes"/>
      <point x="53" y="56" type="line" smooth="yes"/>
      <point x="51" y="47"/>
      <point x="47" y="44"/>
      <point x="35" y="44" type="curve"/>
      <point x="25" y="43"/>
      <point x="5" y="41"/>
      <point x="-12" y="39" type="curve"/>
      <point x="-12" y="0" type="line"/>
      <point x="229" y="0" type="line"/>
      <point x="229" y="39" type="line"/>
      <point x="212" y="41"/>
      <point x="192" y="43"/>
      <point x="182" y="44" type="curve"/>
      <point x="168" y="44"/>
      <point x="166" y="46"/>
      <point x="167" y="55" type="curve" smooth="yes"/>
      <point x="207" y="256" type="line"/>
      <point x="423" y="256" type="line"/>
      <point x="383" y="56" type="line" smooth="yes"/>
      <point x="382" y="47"/>
      <point x="376" y="44"/>
      <point x="366" y="44" type="curve"/>
      <point x="355" y="43"/>
      <point x="334" y="41"/>
      <point x="316" y="39" type="curve"/>
      <point x="316" y="0" type="line"/>
      <point x="559" y="0" type="line"/>
      <point x="559" y="39" type="line"/>
      <point x="542" y="41"/>
      <point x="522" y="43"/>
      <point x="512" y="44" type="curve"/>
      <point x="501" y="44"/>
      <point x="496" y="47"/>
      <point x="498" y="55" type="curve" smooth="yes"/>
      <point x="581" y="480" type="line" smooth="yes"/>
      <point x="583" y="487"/>
      <point x="586" y="491"/>
      <point x="596" y="492" type="curve" smooth="yes"/>
    </contour>
  </outline>
</glyph>
<glyph name="I" format="2">
  <advance width="284"/>
  <unicode hex="0049"/>
  <anchor x="102" y="0" name="H"/>
  <anchor x="207" y="585" name="U"/>
  <outline>
    <contour>
      <point x="318" y="496" type="line"/>
      <point x="318" y="536" type="line"/>
      <point x="76" y="536" type="line"/>
      <point x="76" y="496" type="line"/>
      <point x="98" y="494"/>
      <point x="122" y="492"/>
      <point x="122" y="492" type="curve"/>
      <point x="132" y="492"/>
      <point x="139" y="490"/>
      <point x="136" y="480" type="curve"/>
      <point x="53" y="56" type="line"/>
      <point x="51" y="45"/>
      <point x="47" y="44"/>
      <point x="35" y="43" type="curve"/>
      <point x="35" y="43"/>
      <point x="11" y="41"/>
      <point x="-12" y="39" type="curve"/>
      <point x="-12" y="0" type="line"/>
      <point x="230" y="0" type="line"/>
      <point x="230" y="39" type="line"/>
      <point x="204" y="42"/>
      <point x="180" y="44"/>
      <point x="180" y="44" type="curve"/>
      <point x="169" y="44"/>
      <point x="166" y="47"/>
      <point x="167" y="55" type="curve" smooth="yes"/>
      <point x="251" y="480" type="line" smooth="yes"/>
      <point x="252" y="487"/>
      <point x="255" y="492"/>
      <point x="263" y="492" type="curve" smooth="yes"/>
    </contour>
  </outline>
</glyph>
<glyph name="J" format="2">
  <advance width="407"/>
  <unicode hex="004A"/>
  <anchor x="340" y="585" name="U"/>
  <outline>
    <contour>
      <point x="439" y="496" type="line"/>
      <point x="439" y="536" type="line"/>
      <point x="197" y="536" type="line"/>
      <point x="197" y="496" type="line"/>
      <point x="219" y="494"/>
      <point x="244" y="492"/>
      <point x="244" y="492" type="curve"/>
      <point x="255" y="492"/>
      <point x="260" y="490"/>
      <point x="259" y="480" type="curve" smooth="yes"/>
      <point x="206" y="199" type="line" smooth="yes"/>
      <point x="186" y="89"/>
      <point x="158" y="36"/>
      <point x="112" y="36" type="curve" smooth="yes"/>
      <point x="100" y="36"/>
      <point x="76" y="44"/>
      <point x="76" y="52" type="curve" smooth="yes"/>
      <point x="76" y="153" type="line"/>
      <point x="11" y="153" type="line"/>
      <point x="-16" y="14" type="line"/>
      <point x="-4" y="8"/>
      <point x="35" y="-12"/>
      <point x="106" y="-12" type="curve" smooth="yes"/>
      <point x="264" y="-12"/>
      <point x="299" y="79"/>
      <point x="322" y="205" type="curve" smooth="yes"/>
      <point x="373" y="480" type="line" smooth="yes"/>
      <point x="375" y="487"/>
      <point x="377" y="492"/>
      <point x="384" y="492" type="curve"/>
    </contour>
  </outline>
</glyph>
<glyph name="K" format="2">
  <advance width="558"/>
  <unicode hex="004B"/>
  <anchor x="96" y="0" name="H"/>
  <anchor x="353" y="585" name="U"/>
  <outline>
    <contour>
      <point x="587" y="496" type="line"/>
      <point x="587" y="536" type="line"/>
      <point x="354" y="536" type="line"/>
      <point x="354" y="496" type="line"/>
      <point x="372" y="495"/>
      <point x="396" y="493"/>
      <point x="396" y="493" type="curve"/>
      <point x="407" y="492"/>
      <point x="411" y="488"/>
      <point x="403" y="481" type="curve" smooth="yes"/>
      <point x="223" y="306" type="line"/>
      <point x="216" y="306" type="line"/>
      <point x="251" y="480" type="line" smooth="yes"/>
      <point x="253" y="490"/>
      <point x="258" y="492"/>
      <point x="266" y="493" type="curve"/>
      <point x="266" y="493"/>
      <point x="288" y="494"/>
      <point x="310" y="496" type="curve"/>
      <point x="310" y="536" type="line"/>
      <point x="83" y="536" type="line"/>
      <point x="83" y="496" type="line"/>
      <point x="104" y="494"/>
      <point x="126" y="493"/>
      <point x="126" y="493" type="curve"/>
      <point x="134" y="492"/>
      <point x="139" y="490"/>
      <point x="136" y="480" type="curve"/>
      <point x="52" y="56" type="line" smooth="yes"/>
      <point x="51" y="46"/>
      <point x="45" y="43"/>
      <point x="37" y="43" type="curve" smooth="yes"/>
      <point x="37" y="43"/>
      <point x="7" y="41"/>
      <point x="-12" y="39" type="curve"/>
      <point x="-12" y="0" type="line"/>
      <point x="221" y="0" type="line"/>
      <point x="221" y="39" type="line"/>
      <point x="202" y="41"/>
      <point x="180" y="43"/>
      <point x="180" y="43" type="curve"/>
      <point x="171" y="44"/>
      <point x="165" y="45"/>
      <point x="167" y="55" type="curve" smooth="yes"/>
      <point x="202" y="232" type="line"/>
      <point x="220" y="232" type="line"/>
      <point x="316" y="49" type="line" smooth="yes"/>
      <point x="339" y="5"/>
      <point x="361" y="-12"/>
      <point x="426" y="-12" type="curve" smooth="yes"/>
      <point x="455" y="-12"/>
      <point x="489" y="-6"/>
      <point x="518" y="2" type="curve"/>
      <point x="518" y="42" type="line"/>
      <point x="516" y="42"/>
      <point x="476" y="39"/>
      <point x="467" y="39" type="curve" smooth="yes"/>
      <point x="443" y="39"/>
      <point x="439" y="47"/>
      <point x="421" y="82" type="curve" smooth="yes"/>
      <point x="310" y="293" type="line"/>
      <point x="516" y="490" type="line"/>
    </contour>
  </outline>
</glyph>
<glyph name="L" format="2">
  <advance width="448"/>
  <unicode hex="004C"/>
  <anchor x="183" y="0" name="H"/>
  <anchor x="287" y="585" name="U"/>
  <outline>
    <contour>
      <point x="422" y="161" type="line"/>
      <point x="362" y="161" type="line"/>
      <point x="329" y="59" type="line" smooth="yes"/>
      <point x="327" y="52"/>
      <point x="315" y="48"/>
      <point x="307" y="48" type="curve" smooth="yes"/>
      <point x="166" y="48" type="line"/>
      <point x="251" y="480" type="line"/>
      <point x="253" y="489"/>
      <point x="259" y="492"/>
      <point x="266" y="492" type="curve"/>
      <point x="266" y="492"/>
      <point x="292" y="494"/>
      <point x="318" y="496" type="curve"/>
      <point x="318" y="536" type="line"/>
      <point x="76" y="536" type="line"/>
      <point x="76" y="496" type="line"/>
      <point x="100" y="494"/>
      <point x="123" y="492"/>
      <point x="123" y="492" type="curve"/>
      <point x="132" y="492"/>
      <point x="139" y="489"/>
      <point x="136" y="480" type="curve"/>
      <point x="53" y="56" type="line" smooth="yes"/>
      <point x="51" y="46"/>
      <point x="48" y="44"/>
      <point x="33" y="43" type="curve"/>
      <point x="33" y="43"/>
      <point x="9" y="42"/>
      <point x="-12" y="39" type="curve"/>
      <point x="-12" y="0" type="line"/>
      <point x="390" y="0" type="line"/>
    </contour>
  </outline>
</glyph>
<glyph name="M" format="2">
  <advance width="691"/>
  <unicode hex="004D"/>
  <outline>
    <contour>
      <point x="648" y="27" type="line"/>
      <point x="609" y="35"/>
      <point x="591" y="47"/>
      <point x="591" y="54" type="curve" smooth="yes"/>
      <point x="648" y="524" type="line"/>
      <point x="564" y="499" type="line"/>
      <point x="510" y="54" type="line" smooth="yes"/>
      <point x="509" y="46"/>
      <point x="484" y="35"/>
      <point x="447" y="27" type="curve"/>
      <point x="443" y="0" type="line"/>
      <point x="644" y="0" type="line"/>
    </contour>
    <contour>
      <point x="705" y="553" type="line"/>
      <point x="575" y="553" type="line" smooth="yes"/>
      <point x="565" y="553"/>
      <point x="560" y="549"/>
      <point x="542" y="516" type="curve" smooth="yes"/>
      <point x="326" y="115" type="line" smooth="yes"/>
      <point x="316" y="96"/>
      <point x="319" y="73"/>
      <point x="322" y="0" type="curve"/>
      <point x="323" y="0" type="line"/>
      <point x="566" y="453" type="line" smooth="yes"/>
      <point x="587" y="493"/>
      <point x="665" y="526"/>
      <point x="702" y="526" type="curve"/>
    </contour>
    <contour>
      <point x="348" y="116" type="curve"/>
      <point x="238" y="516" type="line"/>
      <point x="229" y="548"/>
      <point x="225" y="553"/>
      <point x="215" y="553" type="curve" smooth="yes"/>
      <point x="82" y="553" type="line"/>
      <point x="78" y="526" type="line"/>
      <point x="108" y="526"/>
      <point x="154" y="512"/>
      <point x="168" y="459" type="curve" smooth="yes"/>
      <point x="292" y="0" type="line"/>
      <point x="322" y="0" type="line"/>
      <point x="345" y="73"/>
      <point x="353" y="97"/>
    </contour>
    <contour>
      <point x="189" y="527" type="line"/>
      <point x="133" y="516" type="line"/>
      <point x="66" y="54" type="line" smooth="yes"/>
      <point x="64" y="46"/>
      <point x="43" y="35"/>
      <point x="5" y="27" type="curve"/>
      <point x="2" y="0" type="line"/>
      <point x="169" y="0" type="line"/>
      <point x="173" y="27" type="line"/>
      <point x="135" y="35"/>
      <point x="119" y="47"/>
      <point x="120" y="54" type="curve" smooth="yes"/>
    </contour>
  </outline>
</glyph>
<glyph name="N" format="2">
  <advance width="602"/>
  <unicode hex="004E"/>
  <anchor x="433" y="0" name="H"/>
  <anchor x="363" y="585" name="U"/>
  <outline>
    <contour>
      <point x="637" y="496" type="line"/>
      <point x="637" y="536" type="line"/>
      <point x="418" y="536" type="line"/>
      <point x="418" y="496" type="line"/>
      <point x="439" y="494"/>
      <point x="464" y="492"/>
      <point x="464" y="492" type="curve"/>
      <point x="473" y="492"/>
      <point x="481" y="490"/>
      <point x="479" y="480" type="curve"/>
      <point x="420" y="186" type="line"/>
      <point x="264" y="512" type="line"/>
      <point x="264" y="536" type="line"/>
      <point x="76" y="536" type="line"/>
      <point x="76" y="496" type="line"/>
      <point x="99" y="494"/>
      <point x="122" y="492"/>
      <point x="122" y="492" type="curve"/>
      <point x="132" y="492"/>
      <point x="139" y="490"/>
      <point x="136" y="480" type="curve"/>
      <point x="54" y="56" type="line" smooth="yes"/>
      <point x="51" y="46"/>
      <point x="45" y="44"/>
      <point x="34" y="44" type="curve"/>
      <point x="34" y="44"/>
      <point x="11" y="42"/>
      <point x="-11" y="39" type="curve"/>
      <point x="-11" y="0" type="line"/>
      <point x="207" y="0" type="line"/>
      <point x="207" y="39" type="line"/>
      <point x="184" y="42"/>
      <point x="161" y="44"/>
      <point x="161" y="44" type="curve"/>
      <point x="150" y="44"/>
      <point x="145" y="46"/>
      <point x="147" y="55" type="curve" smooth="yes"/>
      <point x="208" y="371" type="line"/>
      <point x="387" y="0" type="line"/>
      <point x="476" y="0" type="line"/>
      <point x="571" y="480" type="line" smooth="yes"/>
      <point x="573" y="487"/>
      <point x="578" y="491"/>
      <point x="585" y="492" type="curve" smooth="yes"/>
    </contour>
  </outline>
</glyph>
<glyph name="O" format="2">
  <advance width="506"/>
  <unicode hex="004F"/>
  <anchor x="228" y="0" name="H"/>
  <anchor x="313" y="580" name="U"/>
  <outline>
    <contour>
      <point x="497" y="340" type="curve"/>
      <point x="497" y="463"/>
      <point x="440" y="566"/>
      <point x="318" y="566" type="curve" smooth="yes"/>
      <point x="228" y="566"/>
      <point x="160" y="512"/>
      <point x="111" y="447" type="curve" smooth="yes"/>
      <point x="63" y="384"/>
      <point x="35" y="295"/>
      <point x="35" y="213" type="curve" smooth="yes"/>
      <point x="35" y="90"/>
      <point x="98" y="-13"/>
      <point x="215" y="-13" type="curve" smooth="yes"/>
      <point x="293" y="-13"/>
      <point x="363" y="36"/>
      <point x="413" y="98" type="curve" smooth="yes"/>
      <point x="466" y="165"/>
      <point x="497" y="257"/>
    </contour>
    <contour>
      <point x="405" y="332" type="curve"/>
      <point x="405" y="220"/>
      <point x="359" y="46"/>
      <point x="239" y="46" type="curve" smooth="yes"/>
      <point x="170" y="46"/>
      <point x="128" y="124"/>
      <point x="128" y="233" type="curve" smooth="yes"/>
      <point x="128" y="344"/>
      <point x="177" y="509"/>
      <point x="293" y="509" type="curve" smooth="yes"/>
      <point x="366" y="509"/>
      <point x="405" y="431"/>
    </contour>
  </outline>
</glyph>
<glyph name="P" format="2">
  <advance width="486"/>
  <unicode hex="0050"/>
  <anchor x="299" y="585" name="U"/>
  <outline>
    <contour>
      <point x="490" y="406" type="curve" smooth="yes"/>
      <point x="490" y="477"/>
      <point x="442" y="536"/>
      <point x="291" y="536" type="curve" smooth="yes"/>
      <point x="75" y="536" type="line"/>
      <point x="75" y="496" type="line"/>
      <point x="96" y="494"/>
      <point x="120" y="492"/>
      <point x="120" y="492" type="curve"/>
      <point x="130" y="492"/>
      <point x="137" y="490"/>
      <point x="135" y="480" type="curve" smooth="yes"/>
      <point x="51" y="56" type="line" smooth="yes"/>
      <point x="49" y="46"/>
      <point x="43" y="44"/>
      <point x="32" y="44" type="curve"/>
      <point x="32" y="44"/>
      <point x="8" y="42"/>
      <point x="-13" y="39" type="curve"/>
      <point x="-13" y="0" type="line"/>
      <point x="228" y="0" type="line"/>
      <point x="228" y="39" type="line"/>
      <point x="204" y="42"/>
      <point x="180" y="44"/>
      <point x="180" y="44" type="curve"/>
      <point x="169" y="44"/>
      <point x="164" y="46"/>
      <point x="166" y="55" type="curve" smooth="yes"/>
      <point x="195" y="198" type="line"/>
      <point x="206" y="197"/>
      <point x="220" y="197"/>
      <point x="229" y="197" type="curve" smooth="yes"/>
      <point x="389" y="197"/>
      <point x="490" y="281"/>
    </contour>
    <contour>
      <point x="373" y="393" type="curve" smooth="yes"/>
      <point x="373" y="332"/>
      <point x="343" y="292"/>
      <point x="304" y="270" type="curve" smooth="yes"/>
      <point x="271" y="250"/>
      <point x="235" y="245"/>
      <point x="203" y="246" type="curve"/>
      <point x="252" y="491" type="line"/>
      <point x="257" y="491"/>
      <point x="262" y="491"/>
      <point x="266" y="491" type="curve" smooth="yes"/>
      <point x="336" y="491"/>
      <point x="373" y="456"/>
    </contour>
  </outline>
</glyph>
<glyph name="Q" format="2">
  <advance width="601"/>
  <unicode hex="0051"/>
  <anchor x="414" y="585" name="U"/>
  <outline>
    <contour>
      <point x="611" y="-86" type="curve"/>
      <point x="611" y="-35" type="line"/>
      <point x="570" y="-55"/>
      <point x="530" y="-73"/>
      <point x="502" y="-73" type="curve" smooth="yes"/>
      <point x="463" y="-73"/>
      <point x="444" y="-48"/>
      <point x="410" y="17" type="curve"/>
      <point x="559" y="102"/>
      <point x="585" y="248"/>
      <point x="585" y="332" type="curve" smooth="yes"/>
      <point x="585" y="451"/>
      <point x="505" y="549"/>
      <point x="353" y="549" type="curve" smooth="yes"/>
      <point x="154" y="549"/>
      <point x="36" y="367"/>
      <point x="36" y="207" type="curve" smooth="yes"/>
      <point x="36" y="71"/>
      <point x="132" y="-14"/>
      <point x="270" y="-14" type="curve" smooth="yes"/>
      <point x="280" y="-14"/>
      <point x="288" y="-13"/>
      <point x="296" y="-12" type="curve"/>
      <point x="323" y="-73"/>
      <point x="360" y="-128"/>
      <point x="459" y="-128" type="curve" smooth="yes"/>
      <point x="519" y="-128"/>
      <point x="596" y="-93"/>
    </contour>
    <contour>
      <point x="461" y="332" type="curve" smooth="yes"/>
      <point x="461" y="191"/>
      <point x="370" y="35"/>
      <point x="277" y="35" type="curve" smooth="yes"/>
      <point x="216" y="35"/>
      <point x="160" y="100"/>
      <point x="160" y="203" type="curve" smooth="yes"/>
      <point x="160" y="354"/>
      <point x="252" y="500"/>
      <point x="349" y="500" type="curve" smooth="yes"/>
      <point x="404" y="500"/>
      <point x="461" y="435"/>
    </contour>
  </outline>
</glyph>
<glyph name="R" format="2">
  <advance width="493"/>
  <unicode hex="0052"/>
  <outline>
    <contour>
      <point x="447" y="426" type="curve" smooth="yes"/>
      <point x="447" y="517"/>
      <point x="377" y="566"/>
      <point x="261" y="566" type="curve" smooth="yes"/>
      <point x="181" y="566"/>
      <point x="112" y="554"/>
      <point x="59" y="539" type="curve"/>
      <point x="59" y="503" type="line"/>
      <point x="112" y="515"/>
      <point x="180" y="523"/>
      <point x="239" y="523" type="curve" smooth="yes"/>
      <point x="291" y="523"/>
      <point x="355" y="500"/>
      <point x="355" y="413" type="curve" smooth="yes"/>
      <point x="355" y="339"/>
      <point x="296" y="299"/>
      <point x="230" y="299" type="curve" smooth="yes"/>
      <point x="212" y="299"/>
      <point x="195" y="302"/>
      <point x="177" y="308" type="curve"/>
      <point x="172" y="264" type="line"/>
      <point x="191" y="258"/>
      <point x="221" y="256"/>
      <point x="241" y="256" type="curve" smooth="yes"/>
      <point x="379" y="256"/>
      <point x="447" y="362"/>
    </contour>
    <contour>
      <point x="497" y="50" type="curve"/>
      <point x="487" y="75" type="line"/>
      <point x="435" y="58"/>
      <point x="420" y="57"/>
      <point x="402" y="89" type="curve" smooth="yes"/>
      <point x="293" y="282" type="line"/>
      <point x="226" y="268" type="line"/>
      <point x="317" y="51" type="line" smooth="yes"/>
      <point x="337" y="2"/>
      <point x="355" y="-6"/>
      <point x="375" y="-6" type="curve" smooth="yes"/>
      <point x="391" y="-6"/>
      <point x="451" y="19"/>
    </contour>
    <contour>
      <point x="218" y="547" type="line"/>
      <point x="128" y="547" type="line"/>
      <point x="61" y="54" type="line" smooth="yes"/>
      <point x="60" y="46"/>
      <point x="38" y="35"/>
      <point x="1" y="27" type="curve"/>
      <point x="-2" y="0" type="line"/>
      <point x="202" y="0" type="line"/>
      <point x="205" y="27" type="line"/>
      <point x="168" y="35"/>
      <point x="150" y="47"/>
      <point x="151" y="54" type="curve"/>
    </contour>
  </outline>
</glyph>
<glyph name="S" format="2">
  <advance width="417"/>
  <unicode hex="0053"/>
  <anchor x="182" y="0" name="H"/>
  <anchor x="259" y="580" name="U"/>
  <outline>
    <contour>
      <point x="409" y="526" type="curve" smooth="yes"/>
      <point x="381" y="548"/>
      <point x="338" y="566"/>
      <point x="287" y="566" type="curve" smooth="yes"/>
      <point x="165" y="566"/>
      <point x="85" y="485"/>
      <point x="85" y="407" type="curve" smooth="yes"/>
      <point x="85" y="358"/>
      <point x="105" y="314"/>
      <point x="183" y="277" type="curve" smooth="yes"/>
      <point x="272" y="234"/>
      <point x="301" y="201"/>
      <point x="301" y="151" type="curve" smooth="yes"/>
      <point x="301" y="88"/>
      <point x="252" y="46"/>
      <point x="191" y="46" type="curve" smooth="yes"/>
      <point x="117" y="46"/>
      <point x="89" y="129"/>
      <point x="72" y="129" type="curve" smooth="yes"/>
      <point x="54" y="129"/>
      <point x="14" y="68"/>
      <point x="14" y="52" type="curve" smooth="yes"/>
      <point x="14" y="19"/>
      <point x="104" y="-13"/>
      <point x="159" y="-13" type="curve" smooth="yes"/>
      <point x="284" y="-13"/>
      <point x="385" y="81"/>
      <point x="385" y="191" type="curve" smooth="yes"/>
      <point x="385" y="257"/>
      <point x="347" y="295"/>
      <point x="255" y="342" type="curve" smooth="yes"/>
      <point x="177" y="382"/>
      <point x="164" y="411"/>
      <point x="164" y="437" type="curve" smooth="yes"/>
      <point x="164" y="475"/>
      <point x="194" y="516"/>
      <point x="255" y="516" type="curve" smooth="yes"/>
      <point x="290" y="516"/>
      <point x="324" y="492"/>
      <point x="341" y="450" type="curve"/>
      <point x="362" y="447" type="line"/>
      <point x="375" y="454"/>
      <point x="416" y="520"/>
    </contour>
  </outline>
</glyph>
<glyph name="T" format="2">
  <advance width="481"/>
  <unicode hex="0054"/>
  <anchor x="210" y="0" name="H"/>
  <anchor x="290" y="580" name="U"/>
  <outline>
    <contour>
      <point x="513" y="540" type="curve"/>
      <point x="501" y="553" type="line"/>
      <point x="325" y="553" type="line"/>
      <point x="311" y="505" type="line"/>
      <point x="430" y="505" type="line" smooth="yes"/>
      <point x="454" y="505"/>
      <point x="454" y="478"/>
      <point x="457" y="421" type="curve"/>
      <point x="483" y="421" type="line"/>
      <point x="494" y="454"/>
      <point x="508" y="511"/>
    </contour>
    <contour>
      <point x="249" y="505" type="line"/>
      <point x="253" y="553" type="line"/>
      <point x="76" y="553" type="line"/>
      <point x="65" y="523"/>
      <point x="49" y="461"/>
      <point x="44" y="429" type="curve"/>
      <point x="68" y="418" type="line"/>
      <point x="101" y="487"/>
      <point x="113" y="505"/>
      <point x="129" y="505" type="curve" smooth="yes"/>
    </contour>
    <contour>
      <point x="326" y="27" type="line"/>
      <point x="277" y="38"/>
      <point x="264" y="51"/>
      <point x="265" y="59" type="curve" smooth="yes"/>
      <point x="327" y="508" type="line" smooth="yes"/>
      <point x="328" y="516"/>
      <point x="350" y="522"/>
      <point x="388" y="526" type="curve"/>
      <point x="392" y="553" type="line"/>
      <point x="190" y="553" type="line"/>
      <point x="186" y="526" type="line"/>
      <point x="224" y="522"/>
      <point x="239" y="515"/>
      <point x="238" y="508" type="curve" smooth="yes"/>
      <point x="176" y="59" type="line" smooth="yes"/>
      <point x="175" y="50"/>
      <point x="158" y="38"/>
      <point x="107" y="27" type="curve"/>
      <point x="104" y="0" type="line"/>
      <point x="322" y="0" type="line"/>
    </contour>
  </outline>
</glyph>
<glyph name="U" format="2">
  <advance width="563"/>
  <unicode hex="0055"/>
  <outline>
    <contour>
      <point x="593" y="553" type="line"/>
      <point x="413" y="553" type="line"/>
      <point x="408" y="517" type="line"/>
      <point x="446" y="508"/>
      <point x="457" y="497"/>
      <point x="456" y="489" type="curve" smooth="yes"/>
      <point x="416" y="206" type="line"/>
      <point x="404" y="118"/>
      <point x="372" y="55"/>
      <point x="295" y="55" type="curve" smooth="yes"/>
      <point x="223" y="55"/>
      <point x="189" y="92"/>
      <point x="189" y="174" type="curve" smooth="yes"/>
      <point x="189" y="189"/>
      <point x="192" y="206"/>
      <point x="194" y="224" type="curve" smooth="yes"/>
      <point x="233" y="489" type="line" smooth="yes"/>
      <point x="234" y="498"/>
      <point x="254" y="508"/>
      <point x="291" y="517" type="curve"/>
      <point x="296" y="553" type="line"/>
      <point x="74" y="553" type="line"/>
      <point x="69" y="517" type="line"/>
      <point x="107" y="508"/>
      <point x="120" y="497"/>
      <point x="119" y="489" type="curve" smooth="yes"/>
      <point x="79" y="203" type="line" smooth="yes"/>
      <point x="76" y="185"/>
      <point x="75" y="168"/>
      <point x="75" y="152" type="curve" smooth="yes"/>
      <point x="75" y="45"/>
      <point x="163" y="-13"/>
      <point x="260" y="-13" type="curve" smooth="yes"/>
      <point x="376" y="-13"/>
      <point x="475" y="71"/>
      <point x="496" y="225" type="curve" smooth="yes"/>
      <point x="533" y="489" type="line" smooth="yes"/>
      <point x="535" y="498"/>
      <point x="551" y="508"/>
      <point x="588" y="517" type="curve"/>
    </contour>
  </outline>
</glyph>
<glyph name="V" format="2">
  <advance width="542"/>
  <unicode hex="0056"/>
  <outline>
    <contour>
      <point x="587" y="553" type="line"/>
      <point x="414" y="553" type="line"/>
      <point x="411" y="526" type="line"/>
      <point x="453" y="520"/>
      <point x="468" y="514"/>
      <point x="460" y="497" type="curve" smooth="yes"/>
      <point x="281" y="111" type="line"/>
      <point x="199" y="497" type="line" smooth="yes"/>
      <point x="195" y="514"/>
      <point x="210" y="522"/>
      <point x="253" y="526" type="curve"/>
      <point x="257" y="553" type="line"/>
      <point x="60" y="553" type="line"/>
      <point x="56" y="526" type="line"/>
      <point x="90" y="521"/>
      <point x="104" y="512"/>
      <point x="107" y="497" type="curve" smooth="yes"/>
      <point x="219" y="-13" type="line"/>
      <point x="242" y="-7"/>
      <point x="287" y="6"/>
      <point x="299" y="32" type="curve" smooth="yes"/>
      <point x="516" y="497" type="line"/>
      <point x="524" y="513"/>
      <point x="545" y="518"/>
      <point x="583" y="526" type="curve"/>
    </contour>
  </outline>
</glyph>
<glyph name="W" format="2">
  <advance width="775"/>
  <unicode hex="0057"/>
  <anchor x="468" y="585" name="U"/>
  <outline>
    <contour>
      <point x="833" y="496" type="line"/>
      <point x="833" y="536" type="line"/>
      <point x="632" y="536" type="line"/>
      <point x="632" y="496" type="line"/>
      <point x="648" y="495"/>
      <point x="668" y="495"/>
      <point x="668" y="495" type="curve"/>
      <point x="680" y="494"/>
      <point x="688" y="493"/>
      <point x="683" y="483" type="curve" smooth="yes"/>
      <point x="548" y="193" type="line"/>
      <point x="513" y="536" type="line"/>
      <point x="417" y="536" type="line"/>
      <point x="256" y="200" type="line"/>
      <point x="233" y="483" type="line" smooth="yes"/>
      <point x="232" y="492"/>
      <point x="239" y="494"/>
      <point x="246" y="494" type="curve" smooth="yes"/>
      <point x="246" y="494"/>
      <point x="266" y="495"/>
      <point x="284" y="496" type="curve"/>
      <point x="284" y="536" type="line"/>
      <point x="66" y="536" type="line"/>
      <point x="66" y="496" type="line"/>
      <point x="81" y="495"/>
      <point x="100" y="494"/>
      <point x="100" y="494" type="curve"/>
      <point x="113" y="493"/>
      <point x="118" y="492"/>
      <point x="119" y="482" type="curve" smooth="yes"/>
      <point x="160" y="-12" type="line"/>
      <point x="247" y="-12" type="line"/>
      <point x="421" y="354" type="line"/>
      <point x="462" y="-12" type="line"/>
      <point x="544" y="-12" type="line"/>
      <point x="784" y="492" type="line"/>
    </contour>
  </outline>
</glyph>
<glyph name="X" format="2">
  <advance width="539"/>
  <unicode hex="0058"/>
  <anchor x="332" y="585" name="U"/>
  <outline>
    <contour>
      <point x="576" y="496" type="line"/>
      <point x="576" y="536" type="line"/>
      <point x="361" y="536" type="line"/>
      <point x="361" y="496" type="line"/>
      <point x="404" y="492" type="line" smooth="yes"/>
      <point x="415" y="492"/>
      <point x="412" y="485"/>
      <point x="407" y="481" type="curve" smooth="yes"/>
      <point x="298" y="359" type="line"/>
      <point x="244" y="481" type="line" smooth="yes"/>
      <point x="239" y="491"/>
      <point x="248" y="493"/>
      <point x="255" y="493" type="curve" smooth="yes"/>
      <point x="255" y="493"/>
      <point x="282" y="494"/>
      <point x="307" y="496" type="curve"/>
      <point x="307" y="536" type="line"/>
      <point x="66" y="536" type="line"/>
      <point x="66" y="496" type="line"/>
      <point x="85" y="495"/>
      <point x="106" y="493"/>
      <point x="106" y="493" type="curve"/>
      <point x="118" y="492"/>
      <point x="121" y="492"/>
      <point x="125" y="483" type="curve" smooth="yes"/>
      <point x="221" y="271" type="line"/>
      <point x="23" y="52" type="line" smooth="yes"/>
      <point x="15" y="44"/>
      <point x="11" y="44"/>
      <point x="-2" y="43" type="curve"/>
      <point x="-2" y="43"/>
      <point x="-19" y="41"/>
      <point x="-35" y="39" type="curve"/>
      <point x="-35" y="0" type="line"/>
      <point x="184" y="0" type="line"/>
      <point x="184" y="39" type="line"/>
      <point x="134" y="43" type="line" smooth="yes"/>
      <point x="125" y="44"/>
      <point x="124" y="51"/>
      <point x="128" y="55" type="curve" smooth="yes"/>
      <point x="257" y="196" type="line"/>
      <point x="319" y="55" type="line" smooth="yes"/>
      <point x="323" y="44"/>
      <point x="314" y="44"/>
      <point x="302" y="43" type="curve"/>
      <point x="302" y="43"/>
      <point x="277" y="41"/>
      <point x="256" y="39" type="curve"/>
      <point x="256" y="0" type="line"/>
      <point x="496" y="0" type="line"/>
      <point x="496" y="39" type="line"/>
      <point x="473" y="42"/>
      <point x="451" y="43"/>
      <point x="451" y="43" type="curve"/>
      <point x="445" y="44"/>
      <point x="441" y="44"/>
      <point x="437" y="52" type="curve" smooth="yes"/>
      <point x="332" y="287" type="line"/>
      <point x="507" y="483" type="line" smooth="yes"/>
      <point x="510" y="486"/>
      <point x="515" y="492"/>
      <point x="526" y="492" type="curve" smooth="yes"/>
    </contour>
  </outline>
</glyph>
<glyph name="Y" format="2">
  <advance width="517"/>
  <unicode hex="0059"/>
  <outline>
    <contour>
      <point x="562" y="553" type="line"/>
      <point x="388" y="553" type="line"/>
      <point x="384" y="517" type="line"/>
      <point x="425" y="511"/>
      <point x="435" y="503"/>
      <point x="425" y="488" type="curve" smooth="yes"/>
      <point x="308" y="297" type="line"/>
      <point x="282" y="382"/>
      <point x="246" y="478"/>
      <point x="214" y="536" type="curve" smooth="yes"/>
      <point x="206" y="550"/>
      <point x="188" y="558"/>
      <point x="172" y="558" type="curve" smooth="yes"/>
      <point x="149" y="558"/>
      <point x="89" y="549"/>
      <point x="56" y="544" type="curve"/>
      <point x="53" y="508" type="line"/>
      <point x="98" y="508"/>
      <point x="106" y="501"/>
      <point x="113" y="488" type="curve" smooth="yes"/>
      <point x="146" y="429"/>
      <point x="196" y="308"/>
      <point x="221" y="210" type="curve"/>
      <point x="319" y="210" type="line"/>
      <point x="494" y="488" type="line" smooth="yes"/>
      <point x="504" y="503"/>
      <point x="519" y="509"/>
      <point x="558" y="517" type="curve"/>
    </contour>
    <contour>
      <point x="367" y="36" type="line"/>
      <point x="317" y="47"/>
      <point x="306" y="60"/>
      <point x="308" y="68" type="curve"/>
      <point x="337" y="279" type="line"/>
      <point x="222" y="279" type="line"/>
      <point x="193" y="68" type="line" smooth="yes"/>
      <point x="192" y="59"/>
      <point x="177" y="47"/>
      <point x="126" y="36" type="curve"/>
      <point x="121" y="0" type="line"/>
      <point x="362" y="0" type="line"/>
    </contour>
  </outline>
</glyph>
<glyph name="Z" format="2">
  <advance width="461"/>
  <unicode hex="005A"/>
  <outline>
    <contour>
      <point x="466" y="531" type="line"/>
      <point x="457" y="553" type="line"/>
      <point x="191" y="553" type="line" smooth="yes"/>
      <point x="160" y="553"/>
      <point x="143" y="553"/>
      <point x="115" y="562" type="curve"/>
      <point x="79" y="410" type="line"/>
      <point x="110" y="403" type="line"/>
      <point x="130" y="466"/>
      <point x="164" y="502"/>
      <point x="181" y="502" type="curve" smooth="yes"/>
      <point x="349" y="502" type="line"/>
      <point x="9" y="21" type="line"/>
      <point x="19" y="0" type="line"/>
      <point x="399" y="0" type="line"/>
      <point x="404" y="34"/>
      <point x="417" y="110"/>
      <point x="424" y="148" type="curve"/>
      <point x="394" y="156" type="line"/>
      <point x="364" y="82"/>
      <point x="347" y="52"/>
      <point x="324" y="52" type="curve" smooth="yes"/>
      <point x="128" y="52" type="line"/>
    </contour>
  </outline>
</glyph>
<glyph name="bracketleft" format="2">
  <advance width="358"/>
  <unicode hex="005B"/>
  <outline>
    <contour>
      <point x="398" y="566" type="line"/>
      <point x="176" y="566" type="line"/>
      <point x="43" y="-105" type="line"/>
      <point x="264" y="-105" type="line"/>
      <point x="274" y="-59" type="line"/>
      <point x="151" y="-59" type="line"/>
      <point x="266" y="518" type="line"/>
      <point x="388" y="518" type="line"/>
    </contour>
  </outline>
</glyph>
<glyph name="backslash" format="2">
  <advance width="370"/>
  <unicode hex="005C"/>
  <outline>
    <contour>
      <point x="312" y="-134" type="line"/>
      <point x="143" y="676" type="line"/>
      <point x="128" y="686"/>
      <point x="96" y="698"/>
      <point x="79" y="702" type="curve"/>
      <point x="61" y="690" type="line"/>
      <point x="232" y="-120" type="line"/>
      <point x="240" y="-128"/>
      <point x="282" y="-143"/>
      <point x="295" y="-147" type="curve"/>
    </contour>
  </outline>
</glyph>
<glyph name="bracketright" format="2">
  <advance width="358"/>
  <unicode hex="005D"/>
  <outline>
    <contour>
      <point x="322" y="566" type="line"/>
      <point x="100" y="566" type="line"/>
      <point x="91" y="518" type="line"/>
      <point x="214" y="518" type="line"/>
      <point x="100" y="-59" type="line"/>
      <point x="-23" y="-59" type="line"/>
      <point x="-32" y="-105" type="line"/>
      <point x="189" y="-105" type="line"/>
    </contour>
  </outline>
</glyph>
<glyph name="underscore" format="2">
  <advance width="326"/>
  <unicode hex="005F"/>
  <outline>
    <contour>
      <point x="346" y="-72" type="curve"/>
      <point x="334" y="-57" type="line"/>
      <point x="7" y="-57" type="line"/>
      <point x="0" y="-69"/>
      <point x="-16" y="-97"/>
      <point x="-19" y="-109" type="curve"/>
      <point x="-8" y="-125" type="line"/>
      <point x="320" y="-125" type="line"/>
      <point x="326" y="-114"/>
      <point x="343" y="-85"/>
    </contour>
  </outline>
</glyph>
<glyph name="a" format="2">
  <advance width="454"/>
  <unicode hex="0061"/>
  <anchor x="210" y="0" name="H"/>
  <anchor x="292" y="429" name="U"/>
  <outline>
    <contour>
      <point x="451" y="23" type="curve"/>
      <point x="451" y="62" type="line"/>
      <point x="444" y="60"/>
      <point x="386" y="45"/>
      <point x="382" y="45" type="curve" smooth="yes"/>
      <point x="363" y="45"/>
      <point x="360" y="53"/>
      <point x="360" y="77" type="curve"/>
      <point x="412" y="341" type="line" smooth="yes"/>
      <point x="414" y="348"/>
      <point x="427" y="374"/>
      <point x="432" y="390" type="curve"/>
      <point x="347" y="390" type="line"/>
      <point x="341" y="383" type="line"/>
      <point x="323" y="392"/>
      <point x="298" y="400"/>
      <point x="275" y="400" type="curve" smooth="yes"/>
      <point x="103" y="400"/>
      <point x="25" y="255"/>
      <point x="25" y="136" type="curve" smooth="yes"/>
      <point x="25" y="76"/>
      <point x="60" y="-9"/>
      <point x="159" y="-9" type="curve" smooth="yes"/>
      <point x="197" y="-9"/>
      <point x="235" y="7"/>
      <point x="263" y="26" type="curve"/>
      <point x="273" y="3"/>
      <point x="296" y="-9"/>
      <point x="330" y="-9" type="curve" smooth="yes"/>
      <point x="371" y="-9"/>
      <point x="415" y="9"/>
    </contour>
    <contour>
      <point x="300" y="315" type="curve"/>
      <point x="262" y="119"/>
      <point x="270" y="160"/>
      <point x="258" y="96" type="curve"/>
      <point x="247" y="86"/>
      <point x="219" y="50"/>
      <point x="184" y="50" type="curve" smooth="yes"/>
      <point x="136" y="50"/>
      <point x="138" y="99"/>
      <point x="138" y="141" type="curve" smooth="yes"/>
      <point x="138" y="232"/>
      <point x="184" y="353"/>
      <point x="287" y="353" type="curve" smooth="yes"/>
      <point x="296" y="353"/>
      <point x="301" y="319"/>
    </contour>
  </outline>
</glyph>
<glyph name="b" format="2">
  <advance width="425"/>
  <unicode hex="0062"/>
  <anchor x="160" y="0" name="H"/>
  <anchor x="276" y="601" name="U"/>
  <outline>
    <contour>
      <point x="400" y="248" type="curve" smooth="yes"/>
      <point x="400" y="316"/>
      <point x="360" y="400"/>
      <point x="274" y="400" type="curve" smooth="yes"/>
      <point x="246" y="400"/>
      <point x="214" y="389"/>
      <point x="185" y="374" type="curve"/>
      <point x="227" y="589" type="line"/>
      <point x="172" y="589" type="line"/>
      <point x="37" y="564" type="line"/>
      <point x="37" y="535" type="line"/>
      <point x="107" y="528" type="line"/>
      <point x="14" y="30" type="line"/>
      <point x="52" y="5"/>
      <point x="101" y="-9"/>
      <point x="159" y="-9" type="curve" smooth="yes"/>
      <point x="342" y="-9"/>
      <point x="400" y="153"/>
    </contour>
    <contour>
      <point x="289" y="245" type="curve" smooth="yes"/>
      <point x="289" y="146"/>
      <point x="228" y="35"/>
      <point x="176" y="35" type="curve" smooth="yes"/>
      <point x="151" y="35"/>
      <point x="135" y="49"/>
      <point x="127" y="63" type="curve"/>
      <point x="171" y="302" type="line"/>
      <point x="196" y="323"/>
      <point x="225" y="339"/>
      <point x="248" y="339" type="curve" smooth="yes"/>
      <point x="266" y="339"/>
      <point x="289" y="312"/>
    </contour>
  </outline>
</glyph>
<glyph name="c" format="2">
  <advance width="384"/>
  <unicode hex="0063"/>
  <anchor x="178" y="0" name="H"/>
  <anchor x="261" y="429" name="U"/>
  <outline>
    <contour>
      <point x="360" y="340" type="curve" smooth="yes"/>
      <point x="360" y="366"/>
      <point x="331" y="400"/>
      <point x="267" y="400" type="curve" smooth="yes"/>
      <point x="115" y="400"/>
      <point x="26" y="280"/>
      <point x="26" y="142" type="curve" smooth="yes"/>
      <point x="26" y="51"/>
      <point x="69" y="-9"/>
      <point x="167" y="-9" type="curve" smooth="yes"/>
      <point x="243" y="-9"/>
      <point x="298" y="23"/>
      <point x="342" y="75" type="curve"/>
      <point x="342" y="155" type="line"/>
      <point x="270" y="68"/>
      <point x="232" y="49"/>
      <point x="192" y="49" type="curve" smooth="yes"/>
      <point x="140" y="49"/>
      <point x="135" y="102"/>
      <point x="135" y="151" type="curve" smooth="yes"/>
      <point x="135" y="183"/>
      <point x="148" y="321"/>
      <point x="239" y="341" type="curve"/>
      <point x="283" y="279" type="line"/>
      <point x="343" y="279"/>
      <point x="360" y="321"/>
    </contour>
  </outline>
</glyph>
<glyph name="d" format="2">
  <advance width="452"/>
  <unicode hex="0064"/>
  <anchor x="219" y="0" name="H"/>
  <anchor x="334" y="601" name="U"/>
  <outline>
    <contour>
      <point x="455" y="589" type="line"/>
      <point x="401" y="589" type="line"/>
      <point x="266" y="564" type="line"/>
      <point x="266" y="535" type="line"/>
      <point x="338" y="528" type="line"/>
      <point x="314" y="390" type="line"/>
      <point x="303" y="393"/>
      <point x="287" y="400"/>
      <point x="267" y="400" type="curve" smooth="yes"/>
      <point x="106" y="400"/>
      <point x="25" y="257"/>
      <point x="25" y="135" type="curve" smooth="yes"/>
      <point x="25" y="66"/>
      <point x="64" y="-9"/>
      <point x="156" y="-9" type="curve" smooth="yes"/>
      <point x="191" y="-9"/>
      <point x="228" y="7"/>
      <point x="257" y="28" type="curve"/>
      <point x="266" y="4"/>
      <point x="289" y="-9"/>
      <point x="329" y="-9" type="curve" smooth="yes"/>
      <point x="371" y="-9"/>
      <point x="423" y="7"/>
      <point x="451" y="23" type="curve"/>
      <point x="451" y="63" type="line"/>
      <point x="433" y="54"/>
      <point x="399" y="39"/>
      <point x="376" y="39" type="curve" smooth="yes"/>
      <point x="370" y="39"/>
      <point x="359" y="45"/>
      <point x="364" y="71" type="curve" smooth="yes"/>
    </contour>
    <contour>
      <point x="300" y="315" type="curve"/>
      <point x="264" y="107" type="line"/>
      <point x="236" y="76"/>
      <point x="208" y="47"/>
      <point x="181" y="47" type="curve" smooth="yes"/>
      <point x="151" y="47"/>
      <point x="135" y="75"/>
      <point x="135" y="139" type="curve" smooth="yes"/>
      <point x="135" y="267"/>
      <point x="210" y="354"/>
      <point x="266" y="354" type="curve" smooth="yes"/>
      <point x="285" y="354"/>
      <point x="301" y="319"/>
    </contour>
  </outline>
</glyph>
<glyph name="e" format="2">
  <advance width="383"/>
  <unicode hex="0065"/>
  <anchor x="165" y="0" name="H"/>
  <anchor x="253" y="429" name="U"/>
  <outline>
    <contour>
      <point x="370" y="316" type="curve" smooth="yes"/>
      <point x="370" y="339"/>
      <point x="335" y="400"/>
      <point x="256" y="400" type="curve" smooth="yes"/>
      <point x="119" y="400"/>
      <point x="26" y="260"/>
      <point x="26" y="139" type="curve" smooth="yes"/>
      <point x="26" y="20"/>
      <point x="101" y="-9"/>
      <point x="171" y="-9" type="curve" smooth="yes"/>
      <point x="248" y="-9"/>
      <point x="320" y="41"/>
      <point x="351" y="71" type="curve"/>
      <point x="351" y="148" type="line"/>
      <point x="264" y="71"/>
      <point x="232" y="46"/>
      <point x="197" y="46" type="curve" smooth="yes"/>
      <point x="152" y="46"/>
      <point x="137" y="87"/>
      <point x="137" y="142" type="curve" smooth="yes"/>
      <point x="137" y="151"/>
      <point x="139" y="165"/>
      <point x="139" y="175" type="curve"/>
      <point x="246" y="183"/>
      <point x="370" y="232"/>
    </contour>
    <contour>
      <point x="266" y="316" type="curve" smooth="yes"/>
      <point x="266" y="267"/>
      <point x="200" y="229"/>
      <point x="145" y="216" type="curve"/>
      <point x="160" y="275"/>
      <point x="188" y="355"/>
      <point x="238" y="355" type="curve" smooth="yes"/>
      <point x="262" y="355"/>
      <point x="266" y="335"/>
    </contour>
  </outline>
</glyph>
<glyph name="f" format="2">
  <advance width="274"/>
  <unicode hex="0066"/>
  <anchor x="-21" y="-197" name="H"/>
  <anchor x="265" y="720" name="U"/>
  <outline>
    <contour>
      <point x="313" y="383" type="curve"/>
      <point x="302" y="397" type="line"/>
      <point x="76" y="397" type="line"/>
      <point x="23" y="365" type="line"/>
      <point x="32" y="349" type="line"/>
      <point x="190" y="349" type="line" smooth="yes"/>
      <point x="229" y="349"/>
      <point x="246" y="345"/>
      <point x="253" y="329" type="curve"/>
      <point x="264" y="335"/>
      <point x="301" y="366"/>
    </contour>
    <contour>
      <point x="429" y="614" type="curve"/>
      <point x="411" y="620"/>
      <point x="365" y="667"/>
      <point x="309" y="667" type="curve" smooth="yes"/>
      <point x="273" y="667"/>
      <point x="241" y="649"/>
      <point x="210" y="627" type="curve" smooth="yes"/>
      <point x="135" y="571"/>
      <point x="112" y="490"/>
      <point x="100" y="395" type="curve" smooth="yes"/>
      <point x="61" y="61" type="line" smooth="yes"/>
      <point x="51" y="-35"/>
      <point x="14" y="-146"/>
      <point x="-43" y="-178" type="curve"/>
      <point x="-28" y="-213" type="line"/>
      <point x="58" y="-160"/>
      <point x="140" y="-43"/>
      <point x="156" y="84" type="curve" smooth="yes"/>
      <point x="194" y="418" type="line" smooth="yes"/>
      <point x="203" y="493"/>
      <point x="220" y="605"/>
      <point x="275" y="605" type="curve" smooth="yes"/>
      <point x="306" y="605"/>
      <point x="321" y="553"/>
      <point x="339" y="553" type="curve" smooth="yes"/>
      <point x="353" y="553"/>
      <point x="404" y="596"/>
    </contour>
  </outline>
</glyph>
<glyph name="g" format="2">
  <advance width="388"/>
  <unicode hex="0067"/>
  <anchor x="130" y="-168" name="H"/>
  <anchor x="234" y="429" name="U"/>
  <outline>
    <contour>
      <point x="426" y="333" type="line"/>
      <point x="426" y="380" type="line"/>
      <point x="309" y="380" type="line"/>
      <point x="294" y="386"/>
      <point x="259" y="400"/>
      <point x="219" y="400" type="curve" smooth="yes"/>
      <point x="95" y="400"/>
      <point x="39" y="312"/>
      <point x="39" y="237" type="curve" smooth="yes"/>
      <point x="39" y="187"/>
      <point x="70" y="157"/>
      <point x="112" y="137" type="curve"/>
      <point x="92" y="116"/>
      <point x="78" y="73"/>
      <point x="82" y="48" type="curve"/>
      <point x="22" y="28"/>
      <point x="-24" y="-8"/>
      <point x="-24" y="-63" type="curve" smooth="yes"/>
      <point x="-24" y="-120"/>
      <point x="20" y="-183"/>
      <point x="147" y="-183" type="curve" smooth="yes"/>
      <point x="267" y="-183"/>
      <point x="367" y="-117"/>
      <point x="367" y="-50" type="curve" smooth="yes"/>
      <point x="367" y="-3"/>
      <point x="334" y="16"/>
      <point x="283" y="38" type="curve" smooth="yes"/>
      <point x="176" y="86" type="line"/>
      <point x="175" y="95"/>
      <point x="178" y="112"/>
      <point x="183" y="127" type="curve"/>
      <point x="300" y="128"/>
      <point x="361" y="204"/>
      <point x="361" y="283" type="curve" smooth="yes"/>
      <point x="361" y="303"/>
      <point x="357" y="321"/>
      <point x="352" y="333" type="curve"/>
    </contour>
    <contour>
      <point x="251" y="287" type="curve" smooth="yes"/>
      <point x="251" y="239"/>
      <point x="232" y="164"/>
      <point x="179" y="164" type="curve" smooth="yes"/>
      <point x="152" y="164"/>
      <point x="149" y="191"/>
      <point x="149" y="228" type="curve" smooth="yes"/>
      <point x="149" y="306"/>
      <point x="203" y="358"/>
      <point x="220" y="358" type="curve" smooth="yes"/>
      <point x="251" y="358"/>
      <point x="251" y="325"/>
    </contour>
    <contour>
      <point x="260" y="-66" type="curve" smooth="yes"/>
      <point x="260" y="-91"/>
      <point x="240" y="-138"/>
      <point x="167" y="-138" type="curve" smooth="yes"/>
      <point x="102" y="-138"/>
      <point x="83" y="-83"/>
      <point x="83" y="-49" type="curve" smooth="yes"/>
      <point x="83" y="-19"/>
      <point x="96" y="7"/>
      <point x="131" y="20" type="curve"/>
      <point x="220" y="-18" type="line" smooth="yes"/>
      <point x="250" y="-32"/>
      <point x="260" y="-48"/>
    </contour>
  </outline>
</glyph>
<glyph name="h" format="2">
  <advance width="482"/>
  <unicode hex="0068"/>
  <outline>
    <contour>
      <point x="471" y="53" type="curve"/>
      <point x="458" y="87" type="line"/>
      <point x="439" y="78"/>
      <point x="428" y="72"/>
      <point x="412" y="72" type="curve" smooth="yes"/>
      <point x="401" y="72"/>
      <point x="396" y="79"/>
      <point x="396" y="98" type="curve" smooth="yes"/>
      <point x="396" y="147"/>
      <point x="432" y="281"/>
      <point x="432" y="342" type="curve" smooth="yes"/>
      <point x="432" y="399"/>
      <point x="411" y="411"/>
      <point x="374" y="411" type="curve" smooth="yes"/>
      <point x="322" y="411"/>
      <point x="263" y="386"/>
      <point x="194" y="324" type="curve"/>
      <point x="205" y="388"/>
      <point x="238" y="590"/>
      <point x="238" y="631" type="curve" smooth="yes"/>
      <point x="238" y="658"/>
      <point x="224" y="667"/>
      <point x="207" y="667" type="curve" smooth="yes"/>
      <point x="183" y="667"/>
      <point x="87" y="630"/>
      <point x="38" y="608" type="curve"/>
      <point x="46" y="573" type="line"/>
      <point x="56" y="577"/>
      <point x="83" y="585"/>
      <point x="92" y="585" type="curve" smooth="yes"/>
      <point x="101" y="585"/>
      <point x="110" y="583"/>
      <point x="110" y="556" type="curve" smooth="yes"/>
      <point x="110" y="481"/>
      <point x="50" y="125"/>
      <point x="29" y="0" type="curve"/>
      <point x="47" y="-18" type="line"/>
      <point x="62" y="-10"/>
      <point x="143" y="26"/>
      <point x="159" y="32" type="curve"/>
      <point x="159" y="49"/>
      <point x="159" y="67"/>
      <point x="169" y="132" type="curve" smooth="yes"/>
      <point x="177" y="184"/>
      <point x="188" y="228"/>
      <point x="204" y="255" type="curve" smooth="yes"/>
      <point x="234" y="304"/>
      <point x="271" y="314"/>
      <point x="286" y="314" type="curve" smooth="yes"/>
      <point x="298" y="314"/>
      <point x="305" y="308"/>
      <point x="305" y="272" type="curve" smooth="yes"/>
      <point x="305" y="232"/>
      <point x="271" y="64"/>
      <point x="271" y="33" type="curve" smooth="yes"/>
      <point x="271" y="1"/>
      <point x="287" y="-18"/>
      <point x="304" y="-18" type="curve" smooth="yes"/>
      <point x="339" y="-18"/>
      <point x="417" y="21"/>
    </contour>
  </outline>
</glyph>
<glyph name="i" format="2">
  <advance width="248"/>
  <unicode hex="0069"/>
  <anchor x="93" y="0" name="H"/>
  <anchor x="180" y="429" name="U"/>
  <outline>
    <contour>
      <point x="235" y="530" type="curve" smooth="yes"/>
      <point x="235" y="564"/>
      <point x="207" y="592"/>
      <point x="173" y="592" type="curve" smooth="yes"/>
      <point x="139" y="592"/>
      <point x="112" y="564"/>
      <point x="112" y="530" type="curve" smooth="yes"/>
      <point x="112" y="496"/>
      <point x="139" y="467"/>
      <point x="173" y="467" type="curve" smooth="yes"/>
      <point x="207" y="467"/>
      <point x="235" y="496"/>
    </contour>
    <contour>
      <point x="246" y="25" type="curve"/>
      <point x="246" y="69" type="line"/>
      <point x="216" y="53"/>
      <point x="171" y="42"/>
      <point x="163" y="42" type="curve" smooth="yes"/>
      <point x="144" y="42"/>
      <point x="144" y="60"/>
      <point x="148" y="79" type="curve" smooth="yes"/>
      <point x="209" y="400" type="line"/>
      <point x="153" y="400" type="line"/>
      <point x="21" y="373" type="line"/>
      <point x="21" y="345" type="line"/>
      <point x="90" y="338" type="line"/>
      <point x="39" y="72" type="line"/>
      <point x="32" y="33"/>
      <point x="52" y="-9"/>
      <point x="111" y="-9" type="curve" smooth="yes"/>
      <point x="157" y="-9"/>
      <point x="198" y="0"/>
    </contour>
  </outline>
</glyph>
<glyph name="j" format="2">
  <advance width="238"/>
  <unicode hex="006A"/>
  <outline>
    <contour>
      <point x="223" y="554" type="curve"/>
      <point x="223" y="574"/>
      <point x="210" y="590"/>
      <point x="184" y="590" type="curve" smooth="yes"/>
      <point x="140" y="590"/>
      <point x="114" y="547"/>
      <point x="114" y="516" type="curve" smooth="yes"/>
      <point x="114" y="497"/>
      <point x="127" y="481"/>
      <point x="154" y="481" type="curve" smooth="yes"/>
      <point x="198" y="481"/>
      <point x="223" y="522"/>
    </contour>
    <contour>
      <point x="187" y="382" type="curve" smooth="yes"/>
      <point x="187" y="406"/>
      <point x="177" y="411"/>
      <point x="161" y="411" type="curve" smooth="yes"/>
      <point x="142" y="411"/>
      <point x="69" y="382"/>
      <point x="19" y="360" type="curve"/>
      <point x="27" y="335" type="line"/>
      <point x="41" y="339"/>
      <point x="61" y="345"/>
      <point x="69" y="345" type="curve" smooth="yes"/>
      <point x="79" y="345"/>
      <point x="87" y="343"/>
      <point x="87" y="316" type="curve" smooth="yes"/>
      <point x="87" y="298"/>
      <point x="79" y="226"/>
      <point x="76" y="198" type="curve" smooth="yes"/>
      <point x="73" y="164"/>
      <point x="66" y="91"/>
      <point x="51" y="4" type="curve" smooth="yes"/>
      <point x="33" y="-105"/>
      <point x="14" y="-152"/>
      <point x="-33" y="-152" type="curve" smooth="yes"/>
      <point x="-78" y="-152"/>
      <point x="-103" y="-112"/>
      <point x="-115" y="-112" type="curve" smooth="yes"/>
      <point x="-127" y="-112"/>
      <point x="-172" y="-164"/>
      <point x="-172" y="-179" type="curve" smooth="yes"/>
      <point x="-172" y="-191"/>
      <point x="-125" y="-219"/>
      <point x="-81" y="-219" type="curve" smooth="yes"/>
      <point x="-52" y="-219"/>
      <point x="-8" y="-206"/>
      <point x="23" y="-181" type="curve" smooth="yes"/>
      <point x="73" y="-143"/>
      <point x="131" y="-81"/>
      <point x="148" y="35" type="curve" smooth="yes"/>
      <point x="159" y="104"/>
      <point x="166" y="171"/>
      <point x="170" y="207" type="curve" smooth="yes"/>
      <point x="174" y="245"/>
      <point x="187" y="363"/>
    </contour>
  </outline>
</glyph>
<glyph name="k" format="2">
  <advance width="439"/>
  <unicode hex="006B"/>
  <anchor x="60" y="0" name="H"/>
  <anchor x="294" y="601" name="U"/>
  <outline>
    <contour>
      <point x="430" y="20" type="curve"/>
      <point x="430" y="63" type="line"/>
      <point x="391" y="47"/>
      <point x="373" y="40"/>
      <point x="364" y="40" type="curve" smooth="yes"/>
      <point x="339" y="40"/>
      <point x="318" y="80"/>
      <point x="297" y="121" type="curve" smooth="yes"/>
      <point x="275" y="165"/>
      <point x="254" y="225"/>
      <point x="239" y="252" type="curve"/>
      <point x="260" y="270"/>
      <point x="294" y="306"/>
      <point x="319" y="328" type="curve"/>
      <point x="351" y="276" type="line"/>
      <point x="405" y="294"/>
      <point x="418" y="322"/>
      <point x="418" y="346" type="curve" smooth="yes"/>
      <point x="418" y="380"/>
      <point x="390" y="400"/>
      <point x="354" y="400" type="curve" smooth="yes"/>
      <point x="319" y="400"/>
      <point x="291" y="386"/>
      <point x="264" y="358" type="curve" smooth="yes"/>
      <point x="168" y="260" type="line"/>
      <point x="235" y="589" type="line"/>
      <point x="181" y="589" type="line"/>
      <point x="46" y="564" type="line"/>
      <point x="46" y="535" type="line"/>
      <point x="116" y="528" type="line"/>
      <point x="9" y="0" type="line"/>
      <point x="116" y="0" type="line"/>
      <point x="149" y="164" type="line"/>
      <point x="166" y="179" type="line"/>
      <point x="185" y="135"/>
      <point x="219" y="61"/>
      <point x="237" y="34" type="curve" smooth="yes"/>
      <point x="251" y="12"/>
      <point x="286" y="-9"/>
      <point x="315" y="-9" type="curve" smooth="yes"/>
      <point x="351" y="-9"/>
      <point x="403" y="7"/>
    </contour>
  </outline>
</glyph>
<glyph name="l" format="2">
  <advance width="244"/>
  <unicode hex="006C"/>
  <anchor x="87" y="0" name="H"/>
  <anchor x="206" y="617" name="U"/>
  <outline>
    <contour>
      <point x="243" y="23" type="curve"/>
      <point x="243" y="66" type="line"/>
      <point x="205" y="49"/>
      <point x="174" y="42"/>
      <point x="161" y="42" type="curve" smooth="yes"/>
      <point x="145" y="42"/>
      <point x="139" y="55"/>
      <point x="139" y="66" type="curve" smooth="yes"/>
      <point x="139" y="72"/>
      <point x="139" y="76"/>
      <point x="140" y="81" type="curve" smooth="yes"/>
      <point x="239" y="589" type="line"/>
      <point x="186" y="589" type="line"/>
      <point x="51" y="564" type="line"/>
      <point x="51" y="535" type="line"/>
      <point x="121" y="528" type="line"/>
      <point x="34" y="80" type="line" smooth="yes"/>
      <point x="32" y="69"/>
      <point x="31" y="60"/>
      <point x="31" y="51" type="curve" smooth="yes"/>
      <point x="31" y="14"/>
      <point x="62" y="-9"/>
      <point x="115" y="-9" type="curve" smooth="yes"/>
      <point x="156" y="-9"/>
      <point x="204" y="3"/>
    </contour>
  </outline>
</glyph>
<glyph name="m" format="2">
  <advance width="660"/>
  <unicode hex="006D"/>
  <anchor x="537" y="0" name="H"/>
  <anchor x="385" y="429" name="U"/>
  <outline>
    <contour>
      <point x="658" y="23" type="curve"/>
      <point x="658" y="60" type="line"/>
      <point x="635" y="48"/>
      <point x="603" y="39"/>
      <point x="592" y="39" type="curve" smooth="yes"/>
      <point x="571" y="39"/>
      <point x="567" y="57"/>
      <point x="571" y="80" type="curve" smooth="yes"/>
      <point x="617" y="295" type="line" smooth="yes"/>
      <point x="631" y="358"/>
      <point x="588" y="400"/>
      <point x="532" y="400" type="curve" smooth="yes"/>
      <point x="490" y="400"/>
      <point x="435" y="376"/>
      <point x="394" y="345" type="curve"/>
      <point x="382" y="372"/>
      <point x="356" y="400"/>
      <point x="312" y="400" type="curve" smooth="yes"/>
      <point x="276" y="400"/>
      <point x="233" y="380"/>
      <point x="195" y="354" type="curve"/>
      <point x="204" y="400" type="line"/>
      <point x="149" y="400" type="line"/>
      <point x="17" y="373" type="line"/>
      <point x="17" y="346" type="line"/>
      <point x="84" y="339" type="line"/>
      <point x="14" y="0" type="line"/>
      <point x="120" y="0" type="line"/>
      <point x="177" y="271" type="line"/>
      <point x="198" y="296"/>
      <point x="234" y="337"/>
      <point x="267" y="337" type="curve" smooth="yes"/>
      <point x="302" y="337"/>
      <point x="293" y="294"/>
      <point x="287" y="263" type="curve" smooth="yes"/>
      <point x="232" y="0" type="line"/>
      <point x="337" y="0" type="line"/>
      <point x="395" y="272" type="line"/>
      <point x="406" y="290"/>
      <point x="441" y="337"/>
      <point x="488" y="337" type="curve" smooth="yes"/>
      <point x="509" y="337"/>
      <point x="514" y="312"/>
      <point x="503" y="262" type="curve" smooth="yes"/>
      <point x="460" y="49" type="line" smooth="yes"/>
      <point x="451" y="10"/>
      <point x="492" y="-9"/>
      <point x="540" y="-9" type="curve" smooth="yes"/>
      <point x="581" y="-9"/>
      <point x="618" y="2"/>
    </contour>
  </outline>
</glyph>
<glyph name="n" format="2">
  <advance width="462"/>
  <unicode hex="006E"/>
  <anchor x="338" y="0" name="H"/>
  <anchor x="273" y="429" name="U"/>
  <outline>
    <contour>
      <point x="459" y="18" type="curve"/>
      <point x="457" y="56" type="line"/>
      <point x="433" y="46"/>
      <point x="407" y="39"/>
      <point x="391" y="39" type="curve" smooth="yes"/>
      <point x="383" y="39"/>
      <point x="367" y="44"/>
      <point x="371" y="70" type="curve" smooth="yes"/>
      <point x="415" y="295" type="line" smooth="yes"/>
      <point x="428" y="363"/>
      <point x="407" y="400"/>
      <point x="328" y="400" type="curve" smooth="yes"/>
      <point x="286" y="400"/>
      <point x="238" y="380"/>
      <point x="199" y="353" type="curve"/>
      <point x="208" y="400" type="line"/>
      <point x="153" y="400" type="line"/>
      <point x="22" y="373" type="line"/>
      <point x="22" y="346" type="line"/>
      <point x="89" y="339" type="line"/>
      <point x="19" y="0" type="line"/>
      <point x="125" y="0" type="line"/>
      <point x="182" y="271" type="line"/>
      <point x="216" y="305"/>
      <point x="258" y="336"/>
      <point x="283" y="336" type="curve" smooth="yes"/>
      <point x="300" y="336"/>
      <point x="310" y="323"/>
      <point x="302" y="284" type="curve" smooth="yes"/>
      <point x="253" y="40" type="line" smooth="yes"/>
      <point x="244" y="-1"/>
      <point x="299" y="-9"/>
      <point x="334" y="-9" type="curve" smooth="yes"/>
      <point x="371" y="-9"/>
      <point x="431" y="4"/>
    </contour>
  </outline>
</glyph>
<glyph name="o" format="2">
  <advance width="442"/>
  <unicode hex="006F"/>
  <anchor x="182" y="0" name="H"/>
  <anchor x="269" y="429" name="U"/>
  <outline>
    <contour>
      <point x="417" y="242" type="curve" smooth="yes"/>
      <point x="417" y="346"/>
      <point x="354" y="400"/>
      <point x="255" y="400" type="curve" smooth="yes"/>
      <point x="107" y="400"/>
      <point x="25" y="270"/>
      <point x="25" y="144" type="curve" smooth="yes"/>
      <point x="25" y="55"/>
      <point x="76" y="-9"/>
      <point x="185" y="-9" type="curve" smooth="yes"/>
      <point x="331" y="-9"/>
      <point x="417" y="116"/>
    </contour>
    <contour>
      <point x="302" y="245" type="curve" smooth="yes"/>
      <point x="302" y="147"/>
      <point x="251" y="34"/>
      <point x="195" y="34" type="curve" smooth="yes"/>
      <point x="176" y="34"/>
      <point x="139" y="65"/>
      <point x="139" y="148" type="curve" smooth="yes"/>
      <point x="139" y="255"/>
      <point x="198" y="357"/>
      <point x="247" y="357" type="curve" smooth="yes"/>
      <point x="267" y="357"/>
      <point x="302" y="323"/>
    </contour>
  </outline>
</glyph>
<glyph name="p" format="2">
  <advance width="432"/>
  <unicode hex="0070"/>
  <anchor x="7" y="-169" name="H"/>
  <anchor x="235" y="429" name="U"/>
  <outline>
    <contour>
      <point x="407" y="248" type="curve" smooth="yes"/>
      <point x="407" y="321"/>
      <point x="368" y="400"/>
      <point x="284" y="400" type="curve" smooth="yes"/>
      <point x="242" y="400"/>
      <point x="205" y="380"/>
      <point x="188" y="370" type="curve"/>
      <point x="194" y="400" type="line"/>
      <point x="140" y="400" type="line"/>
      <point x="8" y="373" type="line"/>
      <point x="8" y="346" type="line"/>
      <point x="75" y="339" type="line"/>
      <point x="-15" y="-121" type="line" smooth="yes"/>
      <point x="-16" y="-128"/>
      <point x="-20" y="-134"/>
      <point x="-28" y="-135" type="curve"/>
      <point x="-42" y="-136"/>
      <point x="-64" y="-137"/>
      <point x="-76" y="-139" type="curve"/>
      <point x="-76" y="-175" type="line"/>
      <point x="158" y="-175" type="line"/>
      <point x="158" y="-139" type="line"/>
      <point x="131" y="-136"/>
      <point x="110" y="-135"/>
      <point x="103" y="-134" type="curve" smooth="yes"/>
      <point x="94" y="-133"/>
      <point x="89" y="-128"/>
      <point x="91" y="-121" type="curve" smooth="yes"/>
      <point x="115" y="-3" type="line"/>
      <point x="125" y="-6"/>
      <point x="140" y="-9"/>
      <point x="160" y="-9" type="curve" smooth="yes"/>
      <point x="312" y="-9"/>
      <point x="407" y="120"/>
    </contour>
    <contour>
      <point x="295" y="245" type="curve" smooth="yes"/>
      <point x="295" y="151"/>
      <point x="242" y="32"/>
      <point x="175" y="32" type="curve" smooth="yes"/>
      <point x="160" y="32"/>
      <point x="139" y="46"/>
      <point x="126" y="54" type="curve"/>
      <point x="175" y="300" type="line"/>
      <point x="191" y="315"/>
      <point x="224" y="344"/>
      <point x="247" y="344" type="curve" smooth="yes"/>
      <point x="289" y="344"/>
      <point x="295" y="290"/>
    </contour>
  </outline>
</glyph>
<glyph name="q" format="2">
  <advance width="455"/>
  <unicode hex="0071"/>
  <anchor x="298" y="429" name="U"/>
  <outline>
    <contour>
      <point x="430" y="400" type="line"/>
      <point x="352" y="400" type="line"/>
      <point x="339" y="385" type="line"/>
      <point x="321" y="393"/>
      <point x="296" y="400"/>
      <point x="270" y="400" type="curve" smooth="yes"/>
      <point x="113" y="400"/>
      <point x="27" y="256"/>
      <point x="27" y="136" type="curve" smooth="yes"/>
      <point x="27" y="44"/>
      <point x="68" y="-11"/>
      <point x="154" y="-11" type="curve" smooth="yes"/>
      <point x="183" y="-11"/>
      <point x="216" y="0"/>
      <point x="248" y="17" type="curve"/>
      <point x="219" y="-121" type="line" smooth="yes"/>
      <point x="218" y="-128"/>
      <point x="214" y="-133"/>
      <point x="206" y="-134" type="curve"/>
      <point x="206" y="-134"/>
      <point x="171" y="-138"/>
      <point x="157" y="-139" type="curve"/>
      <point x="157" y="-175" type="line"/>
      <point x="392" y="-175" type="line"/>
      <point x="392" y="-139" type="line"/>
      <point x="356" y="-135"/>
      <point x="335" y="-134"/>
      <point x="335" y="-134" type="curve"/>
      <point x="326" y="-134"/>
      <point x="325" y="-128"/>
      <point x="326" y="-121" type="curve" smooth="yes"/>
    </contour>
    <contour>
      <point x="306" y="312" type="curve"/>
      <point x="262" y="92" type="line"/>
      <point x="240" y="72"/>
      <point x="218" y="44"/>
      <point x="186" y="44" type="curve" smooth="yes"/>
      <point x="147" y="44"/>
      <point x="136" y="82"/>
      <point x="136" y="139" type="curve" smooth="yes"/>
      <point x="136" y="267"/>
      <point x="212" y="355"/>
      <point x="280" y="355" type="curve" smooth="yes"/>
      <point x="292" y="355"/>
      <point x="308" y="323"/>
    </contour>
  </outline>
</glyph>
<glyph name="r" format="2">
  <advance width="351"/>
  <unicode hex="0072"/>
  <outline>
    <contour>
      <point x="373" y="373" type="curve"/>
      <point x="347" y="384"/>
      <point x="322" y="411"/>
      <point x="302" y="411" type="curve" smooth="yes"/>
      <point x="264" y="411"/>
      <point x="223" y="389"/>
      <point x="166" y="289" type="curve"/>
      <point x="170" y="311"/>
      <point x="176" y="352"/>
      <point x="176" y="365" type="curve" smooth="yes"/>
      <point x="176" y="402"/>
      <point x="172" y="411"/>
      <point x="156" y="411" type="curve" smooth="yes"/>
      <point x="137" y="411"/>
      <point x="63" y="382"/>
      <point x="13" y="360" type="curve"/>
      <point x="20" y="335" type="line"/>
      <point x="30" y="338"/>
      <point x="55" y="345"/>
      <point x="63" y="345" type="curve" smooth="yes"/>
      <point x="73" y="345"/>
      <point x="81" y="343"/>
      <point x="81" y="316" type="curve" smooth="yes"/>
      <point x="81" y="263"/>
      <point x="60" y="122"/>
      <point x="34" y="-2" type="curve"/>
      <point x="51" y="-18" type="line"/>
      <point x="65" y="-10"/>
      <point x="121" y="14"/>
      <point x="138" y="21" type="curve"/>
      <point x="136" y="68"/>
      <point x="145" y="124"/>
      <point x="157" y="168" type="curve" smooth="yes"/>
      <point x="182" y="252"/>
      <point x="231" y="324"/>
      <point x="262" y="324" type="curve" smooth="yes"/>
      <point x="279" y="324"/>
      <point x="294" y="292"/>
      <point x="316" y="292" type="curve" smooth="yes"/>
      <point x="327" y="292"/>
      <point x="359" y="354"/>
    </contour>
  </outline>
</glyph>
<glyph name="s" format="2">
  <advance width="356"/>
  <unicode hex="0073"/>
  <outline>
    <contour>
      <point x="359" y="370" type="curve"/>
      <point x="319" y="377"/>
      <point x="284" y="411"/>
      <point x="221" y="411" type="curve" smooth="yes"/>
      <point x="147" y="411"/>
      <point x="45" y="360"/>
      <point x="45" y="286" type="curve" smooth="yes"/>
      <point x="45" y="249"/>
      <point x="61" y="214"/>
      <point x="123" y="182" type="curve" smooth="yes"/>
      <point x="167" y="159"/>
      <point x="212" y="131"/>
      <point x="212" y="93" type="curve" smooth="yes"/>
      <point x="212" y="61"/>
      <point x="191" y="41"/>
      <point x="154" y="41" type="curve" smooth="yes"/>
      <point x="81" y="41"/>
      <point x="59" y="141"/>
      <point x="43" y="141" type="curve" smooth="yes"/>
      <point x="30" y="141"/>
      <point x="-10" y="68"/>
      <point x="-10" y="51" type="curve" smooth="yes"/>
      <point x="-10" y="26"/>
      <point x="47" y="-18"/>
      <point x="128" y="-18" type="curve" smooth="yes"/>
      <point x="204" y="-18"/>
      <point x="322" y="45"/>
      <point x="322" y="127" type="curve" smooth="yes"/>
      <point x="322" y="188"/>
      <point x="274" y="220"/>
      <point x="226" y="245" type="curve" smooth="yes"/>
      <point x="179" y="270"/>
      <point x="152" y="286"/>
      <point x="152" y="315" type="curve" smooth="yes"/>
      <point x="152" y="340"/>
      <point x="165" y="356"/>
      <point x="197" y="356" type="curve" smooth="yes"/>
      <point x="240" y="356"/>
      <point x="271" y="294"/>
      <point x="290" y="294" type="curve" smooth="yes"/>
      <point x="303" y="294"/>
      <point x="340" y="344"/>
    </contour>
  </outline>
</glyph>
<glyph name="t" format="2">
  <advance width="275"/>
  <unicode hex="0074"/>
  <anchor x="114" y="0" name="H"/>
  <anchor x="203" y="532" name="U"/>
  <outline>
    <contour>
      <point x="314" y="334" type="line"/>
      <point x="314" y="378" type="line"/>
      <point x="203" y="378" type="line"/>
      <point x="219" y="468" type="line"/>
      <point x="139" y="468" type="line"/>
      <point x="99" y="386" type="line"/>
      <point x="31" y="359" type="line"/>
      <point x="31" y="326" type="line"/>
      <point x="88" y="332" type="line"/>
      <point x="39" y="94" type="line" smooth="yes"/>
      <point x="37" y="83"/>
      <point x="36" y="72"/>
      <point x="36" y="62" type="curve" smooth="yes"/>
      <point x="36" y="20"/>
      <point x="66" y="-9"/>
      <point x="128" y="-9" type="curve" smooth="yes"/>
      <point x="178" y="-9"/>
      <point x="258" y="21"/>
      <point x="276" y="29" type="curve"/>
      <point x="276" y="73" type="line"/>
      <point x="250" y="64"/>
      <point x="200" y="45"/>
      <point x="176" y="45" type="curve" smooth="yes"/>
      <point x="151" y="45"/>
      <point x="139" y="62"/>
      <point x="144" y="87" type="curve"/>
      <point x="195" y="334" type="line"/>
    </contour>
  </outline>
</glyph>
<glyph name="u" format="2">
  <advance width="459"/>
  <unicode hex="0075"/>
  <anchor x="207" y="0" name="H"/>
  <anchor x="287" y="429" name="U"/>
  <outline>
    <contour>
      <point x="457" y="22" type="curve"/>
      <point x="457" y="67" type="line"/>
      <point x="408" y="41"/>
      <point x="398" y="38"/>
      <point x="390" y="38" type="curve" smooth="yes"/>
      <point x="373" y="38"/>
      <point x="363" y="50"/>
      <point x="369" y="80" type="curve" smooth="yes"/>
      <point x="435" y="390" type="line"/>
      <point x="328" y="390" type="line"/>
      <point x="266" y="94" type="line"/>
      <point x="237" y="67"/>
      <point x="206" y="46"/>
      <point x="170" y="46" type="curve" smooth="yes"/>
      <point x="150" y="46"/>
      <point x="139" y="68"/>
      <point x="144" y="93" type="curve" smooth="yes"/>
      <point x="209" y="400" type="line"/>
      <point x="154" y="400" type="line"/>
      <point x="22" y="373" type="line"/>
      <point x="22" y="346" type="line"/>
      <point x="89" y="339" type="line"/>
      <point x="37" y="93" type="line" smooth="yes"/>
      <point x="28" y="50"/>
      <point x="56" y="-9"/>
      <point x="135" y="-9" type="curve" smooth="yes"/>
      <point x="187" y="-9"/>
      <point x="228" y="3"/>
      <point x="263" y="28" type="curve"/>
      <point x="265" y="16"/>
      <point x="276" y="-9"/>
      <point x="331" y="-9" type="curve" smooth="yes"/>
      <point x="376" y="-9"/>
      <point x="435" y="10"/>
    </contour>
  </outline>
</glyph>
<glyph name="v" format="2">
  <advance width="419"/>
  <unicode hex="0076"/>
  <outline>
    <contour>
      <point x="415" y="374" type="curve"/>
      <point x="415" y="402"/>
      <point x="401" y="411"/>
      <point x="380" y="411" type="curve" smooth="yes"/>
      <point x="356" y="411"/>
      <point x="292" y="385"/>
      <point x="256" y="366" type="curve"/>
      <point x="265" y="341" type="line"/>
      <point x="278" y="346"/>
      <point x="288" y="348"/>
      <point x="298" y="348" type="curve" smooth="yes"/>
      <point x="314" y="348"/>
      <point x="323" y="341"/>
      <point x="323" y="328" type="curve" smooth="yes"/>
      <point x="323" y="307"/>
      <point x="299" y="222"/>
      <point x="215" y="90" type="curve"/>
      <point x="214" y="112"/>
      <point x="180" y="310"/>
      <point x="166" y="355" type="curve" smooth="yes"/>
      <point x="154" y="396"/>
      <point x="146" y="411"/>
      <point x="129" y="411" type="curve" smooth="yes"/>
      <point x="112" y="411"/>
      <point x="52" y="382"/>
      <point x="2" y="358" type="curve"/>
      <point x="11" y="333" type="line"/>
      <point x="24" y="337"/>
      <point x="46" y="343"/>
      <point x="54" y="343" type="curve" smooth="yes"/>
      <point x="64" y="343"/>
      <point x="77" y="339"/>
      <point x="86" y="307" type="curve" smooth="yes"/>
      <point x="101" y="254"/>
      <point x="130" y="96"/>
      <point x="143" y="-2" type="curve"/>
      <point x="160" y="-18" type="line"/>
      <point x="172" y="-12"/>
      <point x="212" y="6"/>
      <point x="222" y="11" type="curve"/>
      <point x="366" y="243"/>
      <point x="415" y="336"/>
    </contour>
  </outline>
</glyph>
<glyph name="w" format="2">
  <advance width="600"/>
  <unicode hex="0077"/>
  <anchor x="328" y="429" name="U"/>
  <outline>
    <contour>
      <point x="603" y="349" type="curve" smooth="yes"/>
      <point x="603" y="363"/>
      <point x="582" y="400"/>
      <point x="539" y="400" type="curve" smooth="yes"/>
      <point x="506" y="400"/>
      <point x="490" y="382"/>
      <point x="485" y="376" type="curve"/>
      <point x="516" y="291" type="line"/>
      <point x="489" y="233"/>
      <point x="439" y="161"/>
      <point x="402" y="108" type="curve"/>
      <point x="383" y="390" type="line"/>
      <point x="292" y="380" type="line"/>
      <point x="258" y="303"/>
      <point x="219" y="219"/>
      <point x="183" y="148" type="curve"/>
      <point x="167" y="390" type="line"/>
      <point x="110" y="400" type="line"/>
      <point x="3" y="371" type="line"/>
      <point x="3" y="345" type="line"/>
      <point x="64" y="339" type="line"/>
      <point x="85" y="12" type="line"/>
      <point x="76" y="-9" type="line"/>
      <point x="159" y="-9" type="line"/>
      <point x="197" y="48"/>
      <point x="248" y="136"/>
      <point x="289" y="219" type="curve"/>
      <point x="305" y="-9" type="line"/>
      <point x="384" y="-9" type="line"/>
      <point x="404" y="14"/>
      <point x="603" y="260"/>
    </contour>
  </outline>
</glyph>
<glyph name="x" format="2">
  <advance width="409"/>
  <unicode hex="0078"/>
  <outline>
    <contour>
      <point x="410" y="388" type="curve" smooth="yes"/>
      <point x="410" y="400"/>
      <point x="397" y="411"/>
      <point x="365" y="411" type="curve" smooth="yes"/>
      <point x="344" y="411"/>
      <point x="296" y="406"/>
      <point x="257" y="398" type="curve"/>
      <point x="259" y="371" type="line"/>
      <point x="267" y="372"/>
      <point x="274" y="372"/>
      <point x="279" y="372" type="curve" smooth="yes"/>
      <point x="301" y="372"/>
      <point x="306" y="366"/>
      <point x="306" y="357" type="curve" smooth="yes"/>
      <point x="306" y="348"/>
      <point x="258" y="278"/>
      <point x="206" y="217" type="curve"/>
      <point x="234" y="180" type="line"/>
      <point x="348" y="300"/>
      <point x="410" y="365"/>
    </contour>
    <contour>
      <point x="400" y="40" type="curve"/>
      <point x="391" y="65" type="line"/>
      <point x="369" y="54"/>
      <point x="349" y="50"/>
      <point x="335" y="50" type="curve" smooth="yes"/>
      <point x="278" y="50"/>
      <point x="197" y="411"/>
      <point x="132" y="411" type="curve" smooth="yes"/>
      <point x="115" y="411"/>
      <point x="50" y="380"/>
      <point x="9" y="360" type="curve"/>
      <point x="18" y="334" type="line"/>
      <point x="34" y="338"/>
      <point x="65" y="345"/>
      <point x="74" y="345" type="curve" smooth="yes"/>
      <point x="132" y="345"/>
      <point x="206" y="-18"/>
      <point x="283" y="-18" type="curve" smooth="yes"/>
      <point x="310" y="-18"/>
      <point x="350" y="5"/>
    </contour>
    <contour>
      <point x="207" y="162" type="curve"/>
      <point x="180" y="201" type="line"/>
      <point x="128" y="137"/>
      <point x="40" y="50"/>
      <point x="-17" y="0" type="curve"/>
      <point x="-4" y="-18" type="line"/>
      <point x="16" y="-11"/>
      <point x="70" y="-2"/>
      <point x="92" y="0" type="curve"/>
      <point x="138" y="70"/>
      <point x="183" y="127"/>
    </contour>
  </outline>
</glyph>
<glyph name="y" format="2">
  <advance width="422"/>
  <unicode hex="0079"/>
  <anchor x="255" y="439" name="U"/>
  <outline>
    <contour>
      <point x="242" y="22" type="line"/>
      <point x="221" y="140"/>
      <point x="183" y="281"/>
      <point x="157" y="355" type="curve" smooth="yes"/>
      <point x="143" y="395"/>
      <point x="134" y="411"/>
      <point x="117" y="411" type="curve" smooth="yes"/>
      <point x="99" y="411"/>
      <point x="41" y="384"/>
      <point x="-8" y="360" type="curve"/>
      <point x="0" y="335" type="line"/>
      <point x="13" y="339"/>
      <point x="34" y="345"/>
      <point x="42" y="345" type="curve" smooth="yes"/>
      <point x="52" y="345"/>
      <point x="60" y="339"/>
      <point x="74" y="309" type="curve" smooth="yes"/>
      <point x="99" y="254"/>
      <point x="148" y="61"/>
      <point x="165" y="-40" type="curve"/>
      <point x="179" y="-53" type="line"/>
    </contour>
    <contour>
      <point x="412" y="377" type="curve"/>
      <point x="412" y="406"/>
      <point x="393" y="411"/>
      <point x="373" y="411" type="curve" smooth="yes"/>
      <point x="347" y="411"/>
      <point x="298" y="392"/>
      <point x="256" y="368" type="curve"/>
      <point x="266" y="343" type="line"/>
      <point x="283" y="350"/>
      <point x="294" y="353"/>
      <point x="304" y="353" type="curve" smooth="yes"/>
      <point x="319" y="353"/>
      <point x="327" y="344"/>
      <point x="327" y="330" type="curve" smooth="yes"/>
      <point x="327" y="294"/>
      <point x="259" y="147"/>
      <point x="198" y="32" type="curve" smooth="yes"/>
      <point x="141" y="-76"/>
      <point x="92" y="-140"/>
      <point x="44" y="-140" type="curve" smooth="yes"/>
      <point x="22" y="-140"/>
      <point x="-1" y="-131"/>
      <point x="-29" y="-108" type="curve"/>
      <point x="-45" y="-116"/>
      <point x="-83" y="-170"/>
      <point x="-83" y="-186" type="curve" smooth="yes"/>
      <point x="-83" y="-198"/>
      <point x="-42" y="-219"/>
      <point x="0" y="-219" type="curve" smooth="yes"/>
      <point x="101" y="-219"/>
      <point x="175" y="-115"/>
      <point x="256" y="36" type="curve" smooth="yes"/>
      <point x="355" y="225"/>
      <point x="412" y="338"/>
    </contour>
  </outline>
</glyph>
<glyph name="z" format="2">
  <advance width="392"/>
  <unicode hex="007A"/>
  <anchor x="157" y="0" name="H"/>
  <anchor x="230" y="429" name="U"/>
  <outline>
    <contour>
      <point x="398" y="376" type="line"/>
      <point x="310" y="420" type="line"/>
      <point x="288" y="370" type="line"/>
      <point x="284" y="366"/>
      <point x="279" y="365"/>
      <point x="271" y="365" type="curve" smooth="yes"/>
      <point x="261" y="365"/>
      <point x="216" y="400"/>
      <point x="162" y="400" type="curve" smooth="yes"/>
      <point x="87" y="400"/>
      <point x="23" y="337"/>
      <point x="23" y="286" type="curve" smooth="yes"/>
      <point x="23" y="264"/>
      <point x="39" y="227"/>
      <point x="73" y="227" type="curve" smooth="yes"/>
      <point x="100" y="227"/>
      <point x="129" y="249"/>
      <point x="134" y="258" type="curve"/>
      <point x="87" y="308" type="line"/>
      <point x="94" y="320"/>
      <point x="127" y="332"/>
      <point x="138" y="332" type="curve" smooth="yes"/>
      <point x="156" y="332"/>
      <point x="172" y="321"/>
      <point x="200" y="306" type="curve"/>
      <point x="251" y="316" type="line"/>
      <point x="-12" y="12" type="line"/>
      <point x="67" y="-31" type="line"/>
      <point x="97" y="19" type="line" smooth="yes"/>
      <point x="100" y="24"/>
      <point x="107" y="24"/>
      <point x="114" y="24" type="curve" smooth="yes"/>
      <point x="124" y="24"/>
      <point x="169" y="-8"/>
      <point x="223" y="-8" type="curve" smooth="yes"/>
      <point x="298" y="-8"/>
      <point x="362" y="52"/>
      <point x="362" y="103" type="curve" smooth="yes"/>
      <point x="362" y="125"/>
      <point x="347" y="163"/>
      <point x="312" y="163" type="curve" smooth="yes"/>
      <point x="286" y="163"/>
      <point x="256" y="140"/>
      <point x="251" y="132" type="curve"/>
      <point x="299" y="81" type="line"/>
      <point x="292" y="69"/>
      <point x="259" y="58"/>
      <point x="248" y="58" type="curve" smooth="yes"/>
      <point x="229" y="58"/>
      <point x="213" y="68"/>
      <point x="184" y="83" type="curve"/>
      <point x="134" y="73" type="line"/>
    </contour>
  </outline>
</glyph>
<glyph name="braceleft" format="2">
  <advance width="309"/>
  <unicode hex="007B"/>
  <outline>
    <contour>
      <point x="353" y="664" type="curve"/>
      <point x="339" y="703" type="line"/>
      <point x="240" y="663"/>
      <point x="158" y="613"/>
      <point x="147" y="533" type="curve" smooth="yes"/>
      <point x="138" y="470"/>
      <point x="151" y="441"/>
      <point x="142" y="379" type="curve" smooth="yes"/>
      <point x="136" y="335"/>
      <point x="107" y="304"/>
      <point x="44" y="286" type="curve"/>
      <point x="46" y="246" type="line"/>
      <point x="62" y="248"/>
      <point x="58" y="248"/>
      <point x="73" y="248" type="curve" smooth="yes"/>
      <point x="105" y="248"/>
      <point x="122" y="232"/>
      <point x="116" y="185" type="curve" smooth="yes"/>
      <point x="107" y="121"/>
      <point x="85" y="83"/>
      <point x="77" y="22" type="curve"/>
      <point x="65" y="-61"/>
      <point x="123" y="-98"/>
      <point x="221" y="-138" type="curve"/>
      <point x="244" y="-94" type="line"/>
      <point x="192" y="-59"/>
      <point x="186" y="-32"/>
      <point x="192" y="10" type="curve"/>
      <point x="199" y="59"/>
      <point x="222" y="107"/>
      <point x="230" y="169" type="curve" smooth="yes"/>
      <point x="239" y="233"/>
      <point x="218" y="276"/>
      <point x="165" y="286" type="curve"/>
      <point x="214" y="308"/>
      <point x="256" y="356"/>
      <point x="263" y="405" type="curve" smooth="yes"/>
      <point x="271" y="464"/>
      <point x="259" y="499"/>
      <point x="267" y="558" type="curve" smooth="yes"/>
      <point x="272" y="597"/>
      <point x="306" y="636"/>
    </contour>
  </outline>
</glyph>
<glyph name="bar" format="2">
  <advance width="214"/>
  <unicode hex="007C"/>
  <outline>
    <contour>
      <point x="209" y="691" type="line"/>
      <point x="194" y="702" type="line"/>
      <point x="176" y="698"/>
      <point x="155" y="688"/>
      <point x="139" y="678" type="curve"/>
      <point x="20" y="-170" type="line"/>
      <point x="35" y="-183" type="line"/>
      <point x="49" y="-179"/>
      <point x="78" y="-165"/>
      <point x="90" y="-157" type="curve"/>
    </contour>
  </outline>
</glyph>
<glyph name="braceright" format="2">
  <advance width="396"/>
  <unicode hex="007D"/>
  <outline>
    <contour>
      <point x="371" y="257" type="line"/>
      <point x="371" y="257"/>
      <point x="313" y="248"/>
      <point x="288" y="279" type="curve" smooth="yes"/>
      <point x="251" y="326"/>
      <point x="339" y="467"/>
      <point x="280" y="532" type="curve" smooth="yes"/>
      <point x="247" y="567"/>
      <point x="147" y="564"/>
      <point x="128" y="564" type="curve"/>
      <point x="119" y="520" type="line"/>
      <point x="119" y="520"/>
      <point x="171" y="523"/>
      <point x="191" y="499" type="curve" smooth="yes"/>
      <point x="229" y="452"/>
      <point x="148" y="331"/>
      <point x="202" y="268" type="curve" smooth="yes"/>
      <point x="232" y="232"/>
      <point x="282" y="233"/>
      <point x="282" y="233" type="curve"/>
      <point x="282" y="233"/>
      <point x="232" y="233"/>
      <point x="187" y="197" type="curve" smooth="yes"/>
      <point x="110" y="135"/>
      <point x="143" y="14"/>
      <point x="86" y="-32" type="curve" smooth="yes"/>
      <point x="56" y="-55"/>
      <point x="6" y="-53"/>
      <point x="6" y="-53" type="curve"/>
      <point x="-2" y="-97" type="line"/>
      <point x="16" y="-97"/>
      <point x="115" y="-100"/>
      <point x="162" y="-64" type="curve" smooth="yes"/>
      <point x="247" y="0"/>
      <point x="214" y="139"/>
      <point x="270" y="187" type="curve" smooth="yes"/>
      <point x="307" y="218"/>
      <point x="363" y="209"/>
      <point x="363" y="209" type="curve"/>
    </contour>
  </outline>
</glyph>
<glyph name="asciitilde" format="2">
  <advance width="441"/>
  <unicode hex="007E"/>
  <outline>
    <contour>
      <point x="439" y="342" type="curve"/>
      <point x="407" y="359" type="line"/>
      <point x="373" y="307"/>
      <point x="352" y="289"/>
      <point x="326" y="289" type="curve" smooth="yes"/>
      <point x="286" y="289"/>
      <point x="239" y="359"/>
      <point x="184" y="359" type="curve" smooth="yes"/>
      <point x="133" y="359"/>
      <point x="67" y="285"/>
      <point x="32" y="219" type="curve"/>
      <point x="63" y="199" type="line"/>
      <point x="96" y="248"/>
      <point x="117" y="271"/>
      <point x="144" y="271" type="curve" smooth="yes"/>
      <point x="186" y="271"/>
      <point x="235" y="200"/>
      <point x="286" y="200" type="curve" smooth="yes"/>
      <point x="337" y="200"/>
      <point x="403" y="276"/>
    </contour>
  </outline>
</glyph>
<glyph name="exclamdown" format="2">
  <advance width="271"/>
  <unicode hex="00A1"/>
  <outline>
    <contour>
      <point x="222" y="332" type="curve" smooth="yes"/>
      <point x="222" y="368"/>
      <point x="194" y="400"/>
      <point x="156" y="400" type="curve" smooth="yes"/>
      <point x="122" y="400"/>
      <point x="95" y="371"/>
      <point x="95" y="335" type="curve" smooth="yes"/>
      <point x="95" y="301"/>
      <point x="121" y="271"/>
      <point x="155" y="271" type="curve" smooth="yes"/>
      <point x="191" y="271"/>
      <point x="222" y="297"/>
    </contour>
    <contour>
      <point x="161" y="223" type="line"/>
      <point x="118" y="223" type="line"/>
      <point x="81" y="112"/>
      <point x="10" y="-87"/>
      <point x="10" y="-108" type="curve" smooth="yes"/>
      <point x="10" y="-144"/>
      <point x="33" y="-159"/>
      <point x="64" y="-159" type="curve" smooth="yes"/>
      <point x="100" y="-159"/>
      <point x="140" y="-139"/>
      <point x="142" y="-94" type="curve" smooth="yes"/>
    </contour>
  </outline>
</glyph>
<glyph name="cent" format="2">
  <advance width="478"/>
  <unicode hex="00A2"/>
  <outline>
    <contour>
      <point x="449" y="374" type="line"/>
      <point x="403" y="387"/>
      <point x="370" y="396"/>
      <point x="331" y="399" type="curve"/>
      <point x="345" y="473" type="line"/>
      <point x="283" y="473" type="line"/>
      <point x="268" y="397" type="line"/>
      <point x="119" y="380"/>
      <point x="32" y="267"/>
      <point x="32" y="157" type="curve" smooth="yes"/>
      <point x="32" y="85"/>
      <point x="72" y="7"/>
      <point x="189" y="-7" type="curve"/>
      <point x="173" y="-87" type="line"/>
      <point x="235" y="-87" type="line"/>
      <point x="251" y="-8" type="line"/>
      <point x="301" y="-5"/>
      <point x="344" y="6"/>
      <point x="375" y="16" type="curve"/>
      <point x="396" y="125" type="line"/>
      <point x="341" y="125" type="line"/>
      <point x="329" y="96"/>
      <point x="332" y="45"/>
      <point x="300" y="40" type="curve"/>
      <point x="294" y="38"/>
      <point x="276" y="34"/>
      <point x="259" y="33" type="curve"/>
      <point x="322" y="356" type="line"/>
      <point x="340" y="354"/>
      <point x="362" y="348"/>
      <point x="367" y="345" type="curve"/>
      <point x="387" y="340"/>
      <point x="374" y="272"/>
      <point x="374" y="267" type="curve"/>
      <point x="428" y="267" type="line"/>
    </contour>
    <contour>
      <point x="259" y="347" type="curve"/>
      <point x="199" y="43" type="line"/>
      <point x="164" y="58"/>
      <point x="135" y="92"/>
      <point x="135" y="150" type="curve" smooth="yes"/>
      <point x="135" y="253"/>
      <point x="195" y="322"/>
    </contour>
  </outline>
</glyph>
<glyph name="sterling" format="2">
  <advance width="478"/>
  <unicode hex="00A3"/>
  <outline>
    <contour>
      <point x="489" y="483" type="curve" smooth="yes"/>
      <point x="489" y="529"/>
      <point x="428" y="549"/>
      <point x="373" y="549" type="curve" smooth="yes"/>
      <point x="185" y="549"/>
      <point x="139" y="346"/>
      <point x="133" y="286" type="curve"/>
      <point x="71" y="286" type="line"/>
      <point x="71" y="238" type="line"/>
      <point x="126" y="238" type="line"/>
      <point x="119" y="200"/>
      <point x="113" y="160"/>
      <point x="94" y="122" type="curve" smooth="yes"/>
      <point x="76" y="87"/>
      <point x="48" y="63"/>
      <point x="-2" y="52" type="curve"/>
      <point x="-2" y="0" type="line"/>
      <point x="416" y="0" type="line"/>
      <point x="416" y="71" type="line"/>
      <point x="191" y="71" type="line" smooth="yes"/>
      <point x="172" y="71"/>
      <point x="146" y="68"/>
      <point x="123" y="62" type="curve"/>
      <point x="187" y="107"/>
      <point x="224" y="169"/>
      <point x="237" y="238" type="curve"/>
      <point x="393" y="238" type="line"/>
      <point x="393" y="286" type="line"/>
      <point x="248" y="286" type="line"/>
      <point x="255" y="327"/>
      <point x="272" y="490"/>
      <point x="376" y="496" type="curve"/>
      <point x="410" y="416" type="line"/>
      <point x="460" y="423"/>
      <point x="489" y="443"/>
    </contour>
  </outline>
</glyph>
<glyph name="currency" format="2">
  <advance width="393"/>
  <unicode hex="00A4"/>
  <outline>
    <contour>
      <point x="214" y="353" type="curve" smooth="yes"/>
      <point x="260" y="351"/>
      <point x="286" y="307"/>
      <point x="281" y="264" type="curve" smooth="yes"/>
      <point x="274" y="217"/>
      <point x="236" y="176"/>
      <point x="189" y="176" type="curve" smooth="yes"/>
      <point x="142" y="176"/>
      <point x="116" y="221"/>
      <point x="121" y="264" type="curve" smooth="yes"/>
      <point x="127" y="311"/>
      <point x="166" y="353"/>
    </contour>
    <contour>
      <point x="76" y="263" type="curve"/>
      <point x="67" y="192"/>
      <point x="108" y="125"/>
      <point x="182" y="125" type="curve" smooth="yes"/>
      <point x="257" y="125"/>
      <point x="316" y="192"/>
      <point x="326" y="263" type="curve" smooth="yes"/>
      <point x="335" y="332"/>
      <point x="293" y="403"/>
      <point x="221" y="403" type="curve" smooth="yes"/>
      <point x="156" y="403"/>
      <point x="86" y="344"/>
    </contour>
    <contour>
      <point x="126" y="207" type="line"/>
      <point x="110" y="206" type="line"/>
      <point x="29" y="128" type="line"/>
      <point x="32" y="117"/>
      <point x="36" y="105"/>
      <point x="39" y="95" type="curve"/>
      <point x="55" y="94" type="line"/>
      <point x="136" y="172" type="line"/>
    </contour>
    <contour>
      <point x="157" y="342" type="line"/>
      <point x="159" y="360" type="line"/>
      <point x="102" y="434" type="line"/>
      <point x="91" y="429"/>
      <point x="78" y="424"/>
      <point x="69" y="419" type="curve"/>
      <point x="65" y="402" type="line"/>
      <point x="123" y="325" type="line"/>
    </contour>
    <contour>
      <point x="334" y="108" type="line"/>
      <point x="336" y="126" type="line"/>
      <point x="277" y="203" type="line"/>
      <point x="267" y="198"/>
      <point x="255" y="192"/>
      <point x="246" y="186" type="curve"/>
      <point x="242" y="169" type="line"/>
      <point x="299" y="94" type="line"/>
    </contour>
    <contour>
      <point x="361" y="433" type="line"/>
      <point x="345" y="433" type="line"/>
      <point x="264" y="355" type="line"/>
      <point x="267" y="344"/>
      <point x="271" y="332"/>
      <point x="275" y="322" type="curve"/>
      <point x="290" y="321" type="line"/>
      <point x="371" y="399" type="line"/>
    </contour>
  </outline>
</glyph>
<glyph name="yen" format="2">
  <advance width="478"/>
  <unicode hex="00A5"/>
  <outline>
    <contour>
      <point x="555" y="496" type="line"/>
      <point x="555" y="536" type="line"/>
      <point x="351" y="536" type="line"/>
      <point x="351" y="496" type="line"/>
      <point x="392" y="493" type="line" smooth="yes"/>
      <point x="403" y="492"/>
      <point x="404" y="485"/>
      <point x="400" y="481" type="curve"/>
      <point x="269" y="307" type="line"/>
      <point x="214" y="480" type="line"/>
      <point x="210" y="491"/>
      <point x="218" y="492"/>
      <point x="227" y="493" type="curve"/>
      <point x="227" y="493"/>
      <point x="248" y="495"/>
      <point x="272" y="496" type="curve"/>
      <point x="272" y="536" type="line"/>
      <point x="44" y="536" type="line"/>
      <point x="44" y="496" type="line"/>
      <point x="96" y="487" type="line"/>
      <point x="144" y="342" type="line"/>
      <point x="44" y="342" type="line"/>
      <point x="44" y="298" type="line"/>
      <point x="158" y="298" type="line"/>
      <point x="181" y="228" type="line"/>
      <point x="22" y="228" type="line"/>
      <point x="22" y="184" type="line"/>
      <point x="178" y="184" type="line"/>
      <point x="152" y="56" type="line" smooth="yes"/>
      <point x="150" y="46"/>
      <point x="143" y="44"/>
      <point x="132" y="44" type="curve"/>
      <point x="132" y="44"/>
      <point x="108" y="42"/>
      <point x="87" y="39" type="curve"/>
      <point x="87" y="0" type="line"/>
      <point x="328" y="0" type="line"/>
      <point x="328" y="39" type="line"/>
      <point x="306" y="42"/>
      <point x="283" y="44"/>
      <point x="283" y="44" type="curve"/>
      <point x="271" y="44"/>
      <point x="266" y="46"/>
      <point x="267" y="55" type="curve" smooth="yes"/>
      <point x="294" y="184" type="line"/>
      <point x="451" y="184" type="line"/>
      <point x="451" y="228" type="line"/>
      <point x="305" y="228" type="line"/>
      <point x="360" y="298" type="line"/>
      <point x="473" y="298" type="line"/>
      <point x="473" y="342" type="line"/>
      <point x="394" y="342" type="line"/>
      <point x="507" y="487" type="line"/>
    </contour>
  </outline>
</glyph>
<glyph name="brokenbar" format="2">
  <advance width="230"/>
  <unicode hex="00A6"/>
  <outline>
    <contour>
      <point x="213" y="691" type="line"/>
      <point x="197" y="702" type="line"/>
      <point x="180" y="698"/>
      <point x="158" y="689"/>
      <point x="141" y="679" type="curve"/>
      <point x="89" y="315" type="line"/>
      <point x="105" y="303" type="line"/>
      <point x="120" y="307"/>
      <point x="151" y="318"/>
      <point x="163" y="328" type="curve"/>
    </contour>
    <contour>
      <point x="145" y="199" type="line"/>
      <point x="128" y="212" type="line"/>
      <point x="111" y="206"/>
      <point x="88" y="197"/>
      <point x="73" y="187" type="curve"/>
      <point x="22" y="-170" type="line"/>
      <point x="37" y="-183" type="line"/>
      <point x="50" y="-179"/>
      <point x="83" y="-166"/>
      <point x="93" y="-159" type="curve"/>
    </contour>
  </outline>
</glyph>
<glyph name="section" format="2">
  <advance width="396"/>
  <unicode hex="00A7"/>
  <outline>
    <contour>
      <point x="160" y="-13" type="curve" smooth="yes"/>
      <point x="201" y="-13"/>
      <point x="311" y="-4"/>
      <point x="328" y="119" type="curve"/>
      <point x="337" y="185"/>
      <point x="283" y="215"/>
      <point x="240" y="241" type="curve"/>
      <point x="172" y="287"/>
      <point x="141" y="310"/>
      <point x="148" y="362" type="curve" smooth="yes"/>
      <point x="152" y="391"/>
      <point x="182" y="432"/>
      <point x="211" y="426" type="curve"/>
      <point x="205" y="433"/>
      <point x="207" y="461"/>
      <point x="202" y="468" type="curve"/>
      <point x="151" y="468"/>
      <point x="81" y="407"/>
      <point x="72" y="341" type="curve" smooth="yes"/>
      <point x="61" y="263"/>
      <point x="108" y="220"/>
      <point x="160" y="186" type="curve" smooth="yes"/>
      <point x="204" y="157"/>
      <point x="255" y="135"/>
      <point x="249" y="88" type="curve" smooth="yes"/>
      <point x="244" y="51"/>
      <point x="221" y="36"/>
      <point x="183" y="36" type="curve" smooth="yes"/>
      <point x="134" y="36"/>
      <point x="100" y="79"/>
      <point x="100" y="137" type="curve"/>
      <point x="73" y="141" type="line"/>
      <point x="59" y="104"/>
      <point x="47" y="24"/>
      <point x="54" y="21" type="curve"/>
      <point x="86" y="0"/>
      <point x="129" y="-13"/>
    </contour>
    <contour>
      <point x="270" y="154" type="curve"/>
      <point x="308" y="162"/>
      <point x="365" y="213"/>
      <point x="376" y="292" type="curve"/>
      <point x="387" y="378"/>
      <point x="336" y="414"/>
      <point x="283" y="450" type="curve" smooth="yes"/>
      <point x="229" y="485"/>
      <point x="195" y="505"/>
      <point x="201" y="544" type="curve" smooth="yes"/>
      <point x="205" y="572"/>
      <point x="226" y="588"/>
      <point x="259" y="588" type="curve" smooth="yes"/>
      <point x="290" y="588"/>
      <point x="313" y="562"/>
      <point x="323" y="514" type="curve"/>
      <point x="346" y="511" type="line"/>
      <point x="359" y="526"/>
      <point x="386" y="590"/>
      <point x="380" y="596" type="curve" smooth="yes"/>
      <point x="359" y="617"/>
      <point x="312" y="632"/>
      <point x="271" y="632" type="curve" smooth="yes"/>
      <point x="203" y="632"/>
      <point x="132" y="593"/>
      <point x="122" y="520" type="curve" smooth="yes"/>
      <point x="114" y="463"/>
      <point x="159" y="423"/>
      <point x="203" y="395" type="curve" smooth="yes"/>
      <point x="275" y="348"/>
      <point x="306" y="321"/>
      <point x="298" y="263" type="curve"/>
      <point x="293" y="228"/>
      <point x="263" y="196"/>
      <point x="230" y="195" type="curve"/>
      <point x="237" y="187"/>
      <point x="261" y="162"/>
    </contour>
  </outline>
</glyph>
<glyph name="dieresis" format="2">
  <advance width="457"/>
  <unicode hex="00A8"/>
  <outline>
    <contour>
      <point x="412" y="558" type="curve" smooth="yes"/>
      <point x="412" y="583"/>
      <point x="397" y="607"/>
      <point x="366" y="607" type="curve" smooth="yes"/>
      <point x="319" y="607"/>
      <point x="292" y="556"/>
      <point x="292" y="521" type="curve" smooth="yes"/>
      <point x="292" y="497"/>
      <point x="305" y="472"/>
      <point x="337" y="472" type="curve" smooth="yes"/>
      <point x="384" y="472"/>
      <point x="412" y="522"/>
    </contour>
    <contour>
      <point x="239" y="558" type="curve" smooth="yes"/>
      <point x="239" y="583"/>
      <point x="225" y="607"/>
      <point x="194" y="607" type="curve" smooth="yes"/>
      <point x="147" y="607"/>
      <point x="119" y="556"/>
      <point x="119" y="521" type="curve" smooth="yes"/>
      <point x="119" y="497"/>
      <point x="133" y="472"/>
      <point x="164" y="472" type="curve" smooth="yes"/>
      <point x="211" y="472"/>
      <point x="239" y="522"/>
    </contour>
  </outline>
</glyph>
<glyph name="copyright" format="2">
  <advance width="669"/>
  <unicode hex="00A9"/>
  <outline>
    <contour>
      <point x="660" y="280" type="curve" smooth="yes"/>
      <point x="660" y="451"/>
      <point x="519" y="591"/>
      <point x="351" y="591" type="curve" smooth="yes"/>
      <point x="180" y="591"/>
      <point x="40" y="451"/>
      <point x="40" y="280" type="curve" smooth="yes"/>
      <point x="40" y="107"/>
      <point x="180" y="-31"/>
      <point x="349" y="-31" type="curve" smooth="yes"/>
      <point x="521" y="-31"/>
      <point x="660" y="107"/>
    </contour>
    <contour>
      <point x="621" y="280" type="curve" smooth="yes"/>
      <point x="621" y="130"/>
      <point x="500" y="6"/>
      <point x="350" y="6" type="curve" smooth="yes"/>
      <point x="200" y="6"/>
      <point x="79" y="129"/>
      <point x="79" y="278" type="curve" smooth="yes"/>
      <point x="79" y="432"/>
      <point x="202" y="553"/>
      <point x="351" y="553" type="curve" smooth="yes"/>
      <point x="500" y="553"/>
      <point x="621" y="431"/>
    </contour>
    <contour>
      <point x="486" y="111" type="curve"/>
      <point x="486" y="211" type="line"/>
      <point x="441" y="211" type="line"/>
      <point x="430" y="142" type="line"/>
      <point x="421" y="137"/>
      <point x="403" y="131"/>
      <point x="382" y="131" type="curve" smooth="yes"/>
      <point x="310" y="131"/>
      <point x="267" y="194"/>
      <point x="267" y="278" type="curve" smooth="yes"/>
      <point x="267" y="348"/>
      <point x="300" y="428"/>
      <point x="384" y="428" type="curve" smooth="yes"/>
      <point x="407" y="428"/>
      <point x="423" y="419"/>
      <point x="430" y="413" type="curve"/>
      <point x="441" y="349" type="line"/>
      <point x="486" y="349" type="line"/>
      <point x="486" y="446" type="line"/>
      <point x="468" y="455"/>
      <point x="426" y="467"/>
      <point x="373" y="467" type="curve" smooth="yes"/>
      <point x="250" y="467"/>
      <point x="176" y="383"/>
      <point x="176" y="280" type="curve" smooth="yes"/>
      <point x="176" y="160"/>
      <point x="256" y="91"/>
      <point x="370" y="91" type="curve" smooth="yes"/>
      <point x="420" y="91"/>
      <point x="466" y="102"/>
    </contour>
  </outline>
</glyph>
<glyph name="ordfeminine" format="2">
  <advance width="275"/>
  <unicode hex="00AA"/>
  <outline>
    <contour>
      <point x="273" y="355" type="curve"/>
      <point x="265" y="372" type="line"/>
      <point x="253" y="367"/>
      <point x="249" y="366"/>
      <point x="243" y="366" type="curve" smooth="yes"/>
      <point x="235" y="366"/>
      <point x="232" y="381"/>
      <point x="232" y="396" type="curve" smooth="yes"/>
      <point x="232" y="410"/>
      <point x="235" y="457"/>
      <point x="245" y="502" type="curve" smooth="yes"/>
      <point x="250" y="522"/>
      <point x="256" y="526"/>
      <point x="267" y="534" type="curve"/>
      <point x="257" y="552" type="line"/>
      <point x="235" y="542"/>
      <point x="188" y="521"/>
      <point x="185" y="506" type="curve"/>
      <point x="181" y="487"/>
      <point x="166" y="393"/>
      <point x="166" y="375" type="curve" smooth="yes"/>
      <point x="166" y="338"/>
      <point x="191" y="322"/>
      <point x="203" y="322" type="curve" smooth="yes"/>
      <point x="216" y="322"/>
      <point x="246" y="337"/>
    </contour>
    <contour>
      <point x="250" y="521" type="curve"/>
      <point x="240" y="522"/>
      <point x="211" y="552"/>
      <point x="185" y="552" type="curve" smooth="yes"/>
      <point x="152" y="552"/>
      <point x="132" y="541"/>
      <point x="115" y="529" type="curve" smooth="yes"/>
      <point x="70" y="499"/>
      <point x="39" y="453"/>
      <point x="39" y="402" type="curve" smooth="yes"/>
      <point x="39" y="344"/>
      <point x="76" y="322"/>
      <point x="105" y="322" type="curve" smooth="yes"/>
      <point x="124" y="322"/>
      <point x="143" y="335"/>
      <point x="167" y="366" type="curve"/>
      <point x="174" y="421" type="line"/>
      <point x="145" y="382"/>
      <point x="133" y="370"/>
      <point x="121" y="370" type="curve" smooth="yes"/>
      <point x="111" y="370"/>
      <point x="103" y="388"/>
      <point x="103" y="420" type="curve" smooth="yes"/>
      <point x="103" y="457"/>
      <point x="117" y="518"/>
      <point x="160" y="518" type="curve" smooth="yes"/>
      <point x="187" y="518"/>
      <point x="219" y="470"/>
      <point x="228" y="470" type="curve" smooth="yes"/>
      <point x="235" y="470"/>
      <point x="237" y="511"/>
    </contour>
    <contour>
      <point x="267" y="283" type="curve"/>
      <point x="254" y="298" type="line"/>
      <point x="31" y="298" type="line"/>
      <point x="28" y="289"/>
      <point x="20" y="279"/>
      <point x="17" y="270" type="curve"/>
      <point x="29" y="257" type="line"/>
      <point x="253" y="257" type="line"/>
      <point x="255" y="265"/>
      <point x="264" y="274"/>
    </contour>
  </outline>
</glyph>
<glyph name="guillemetleft" format="2">
  <advance width="330"/>
  <unicode hex="00AB"/>
  <outline>
    <contour>
      <point x="98" y="0" type="line"/>
      <point x="151" y="0" type="line"/>
      <point x="99" y="192" type="line"/>
      <point x="230" y="385" type="line"/>
      <point x="176" y="385" type="line"/>
      <point x="22" y="212" type="line"/>
      <point x="14" y="172" type="line"/>
    </contour>
    <contour>
      <point x="234" y="0" type="line"/>
      <point x="288" y="0" type="line"/>
      <point x="235" y="192" type="line"/>
      <point x="366" y="385" type="line"/>
      <point x="312" y="385" type="line"/>
      <point x="158" y="212" type="line"/>
      <point x="150" y="172" type="line"/>
    </contour>
  </outline>
</glyph>
<glyph name="guillemotleft" format="2">
  <advance width="413"/>
  <unicode hex="00AB"/>
  <outline>
    <contour>
      <point x="310" y="0" type="line"/>
      <point x="333" y="18" type="line"/>
      <point x="275" y="201" type="line"/>
      <point x="291" y="231"/>
      <point x="366" y="352"/>
      <point x="383" y="382" type="curve"/>
      <point x="364" y="400" type="line"/>
      <point x="186" y="217" type="line"/>
      <point x="184" y="211"/>
      <point x="181" y="190"/>
      <point x="181" y="185" type="curve"/>
    </contour>
    <contour>
      <point x="152" y="0" type="line"/>
      <point x="176" y="18" type="line"/>
      <point x="117" y="201" type="line"/>
      <point x="133" y="231"/>
      <point x="208" y="352"/>
      <point x="225" y="382" type="curve"/>
      <point x="206" y="400" type="line"/>
      <point x="28" y="217" type="line"/>
      <point x="27" y="211"/>
      <point x="24" y="190"/>
      <point x="23" y="185" type="curve"/>
    </contour>
  </outline>
</glyph>
<glyph name="logicalnot" format="2">
  <advance width="425"/>
  <unicode hex="00AC"/>
  <outline>
    <contour>
      <point x="383" y="266" type="line"/>
      <point x="370" y="280" type="line"/>
      <point x="370" y="280"/>
      <point x="355" y="280"/>
      <point x="43" y="280" type="curve"/>
      <point x="37" y="268"/>
      <point x="20" y="240"/>
      <point x="16" y="228" type="curve"/>
      <point x="28" y="213" type="line"/>
      <point x="316" y="213" type="line"/>
      <point x="298" y="86" type="line"/>
      <point x="310" y="71" type="line"/>
      <point x="324" y="76"/>
      <point x="349" y="93"/>
      <point x="360" y="102" type="curve"/>
    </contour>
  </outline>
</glyph>
<glyph name="registered" format="2">
  <advance width="309"/>
  <unicode hex="00AE"/>
  <outline>
    <contour>
      <point x="328" y="476" type="curve"/>
      <point x="341" y="564"/>
      <point x="293" y="632"/>
      <point x="214" y="632" type="curve" smooth="yes"/>
      <point x="134" y="632"/>
      <point x="68" y="563"/>
      <point x="56" y="476" type="curve" smooth="yes"/>
      <point x="44" y="388"/>
      <point x="90" y="319"/>
      <point x="171" y="319" type="curve" smooth="yes"/>
      <point x="251" y="319"/>
      <point x="317" y="388"/>
    </contour>
    <contour>
      <point x="300" y="476" type="curve"/>
      <point x="290" y="406"/>
      <point x="243" y="348"/>
      <point x="176" y="348" type="curve" smooth="yes"/>
      <point x="109" y="348"/>
      <point x="75" y="406"/>
      <point x="85" y="476" type="curve" smooth="yes"/>
      <point x="94" y="545"/>
      <point x="141" y="604"/>
      <point x="208" y="604" type="curve" smooth="yes"/>
      <point x="275" y="604"/>
      <point x="309" y="545"/>
    </contour>
    <contour>
      <point x="255" y="521" type="curve"/>
      <point x="259" y="544"/>
      <point x="242" y="568"/>
      <point x="198" y="568" type="curve" smooth="yes"/>
      <point x="176" y="568"/>
      <point x="157" y="564"/>
      <point x="141" y="560" type="curve"/>
      <point x="141" y="545" type="line"/>
      <point x="157" y="548"/>
      <point x="177" y="550"/>
      <point x="191" y="550" type="curve" smooth="yes"/>
      <point x="219" y="550"/>
      <point x="228" y="534"/>
      <point x="225" y="517" type="curve" smooth="yes"/>
      <point x="222" y="494"/>
      <point x="208" y="487"/>
      <point x="184" y="487" type="curve" smooth="yes"/>
      <point x="179" y="487"/>
      <point x="176" y="488"/>
      <point x="170" y="489" type="curve"/>
      <point x="169" y="471" type="line"/>
      <point x="174" y="469"/>
      <point x="179" y="469"/>
      <point x="183" y="469" type="curve" smooth="yes"/>
      <point x="219" y="469"/>
      <point x="251" y="486"/>
    </contour>
    <contour>
      <point x="263" y="402" type="line"/>
      <point x="261" y="410" type="line"/>
      <point x="250" y="405"/>
      <point x="245" y="406"/>
      <point x="242" y="412" type="curve" smooth="yes"/>
      <point x="203" y="482" type="line"/>
      <point x="183" y="474" type="line"/>
      <point x="215" y="393" type="line" smooth="yes"/>
      <point x="217" y="390"/>
      <point x="221" y="386"/>
      <point x="226" y="386" type="curve" smooth="yes"/>
      <point x="232" y="386"/>
      <point x="252" y="395"/>
      <point x="261" y="401" type="curve"/>
    </contour>
    <contour>
      <point x="179" y="388" type="line"/>
      <point x="180" y="398" type="line"/>
      <point x="168" y="401"/>
      <point x="164" y="404"/>
      <point x="165" y="407" type="curve" smooth="yes"/>
      <point x="185" y="558" type="line"/>
      <point x="158" y="558" type="line"/>
      <point x="137" y="407" type="line" smooth="yes"/>
      <point x="137" y="404"/>
      <point x="131" y="401"/>
      <point x="120" y="398" type="curve"/>
      <point x="119" y="388" type="line"/>
    </contour>
  </outline>
</glyph>
<glyph name="degree" format="2">
  <advance width="255"/>
  <unicode hex="00B0"/>
  <outline>
    <contour>
      <point x="216" y="487" type="curve" smooth="yes"/>
      <point x="216" y="536"/>
      <point x="176" y="576"/>
      <point x="128" y="576" type="curve" smooth="yes"/>
      <point x="79" y="576"/>
      <point x="39" y="536"/>
      <point x="39" y="487" type="curve" smooth="yes"/>
      <point x="39" y="439"/>
      <point x="79" y="400"/>
      <point x="128" y="400" type="curve" smooth="yes"/>
      <point x="176" y="400"/>
      <point x="216" y="439"/>
    </contour>
    <contour>
      <point x="183" y="487" type="curve" smooth="yes"/>
      <point x="183" y="456"/>
      <point x="159" y="432"/>
      <point x="128" y="432" type="curve" smooth="yes"/>
      <point x="96" y="432"/>
      <point x="71" y="456"/>
      <point x="71" y="487" type="curve" smooth="yes"/>
      <point x="71" y="519"/>
      <point x="96" y="544"/>
      <point x="128" y="544" type="curve" smooth="yes"/>
      <point x="159" y="544"/>
      <point x="183" y="519"/>
    </contour>
  </outline>
</glyph>
<glyph name="twosuperior" format="2">
  <advance width="311"/>
  <unicode hex="00B2"/>
  <anchor x="233" y="644" name="U"/>
  <outline>
    <contour>
      <point x="348" y="563" type="curve" smooth="yes"/>
      <point x="348" y="612"/>
      <point x="307" y="635"/>
      <point x="240" y="635" type="curve" smooth="yes"/>
      <point x="158" y="635"/>
      <point x="101" y="607"/>
      <point x="101" y="563" type="curve" smooth="yes"/>
      <point x="101" y="547"/>
      <point x="117" y="533"/>
      <point x="140" y="533" type="curve" smooth="yes"/>
      <point x="164" y="533"/>
      <point x="169" y="542"/>
      <point x="176" y="546" type="curve"/>
      <point x="187" y="596" type="line"/>
      <point x="193" y="599"/>
      <point x="209" y="604"/>
      <point x="223" y="604" type="curve" smooth="yes"/>
      <point x="239" y="604"/>
      <point x="266" y="595"/>
      <point x="266" y="557" type="curve" smooth="yes"/>
      <point x="266" y="488"/>
      <point x="195" y="437"/>
      <point x="44" y="339" type="curve"/>
      <point x="36" y="306" type="line"/>
      <point x="307" y="306" type="line"/>
      <point x="324" y="390" type="line"/>
      <point x="284" y="390" type="line"/>
      <point x="267" y="350" type="line"/>
      <point x="134" y="350" type="line"/>
      <point x="200" y="392"/>
      <point x="348" y="473"/>
    </contour>
  </outline>
</glyph>
<glyph name="threesuperior" format="2">
  <advance width="311"/>
  <unicode hex="00B3"/>
  <anchor x="235" y="644" name="U"/>
  <outline>
    <contour>
      <point x="346" y="566" type="curve" smooth="yes"/>
      <point x="346" y="608"/>
      <point x="314" y="635"/>
      <point x="241" y="635" type="curve" smooth="yes"/>
      <point x="167" y="635"/>
      <point x="106" y="608"/>
      <point x="106" y="571" type="curve" smooth="yes"/>
      <point x="106" y="554"/>
      <point x="126" y="539"/>
      <point x="141" y="539" type="curve" smooth="yes"/>
      <point x="153" y="539"/>
      <point x="171" y="546"/>
      <point x="178" y="549" type="curve"/>
      <point x="186" y="594" type="line"/>
      <point x="192" y="598"/>
      <point x="205" y="606"/>
      <point x="223" y="606" type="curve" smooth="yes"/>
      <point x="231" y="606"/>
      <point x="265" y="598"/>
      <point x="265" y="560" type="curve" smooth="yes"/>
      <point x="265" y="514"/>
      <point x="219" y="487"/>
      <point x="155" y="490" type="curve"/>
      <point x="150" y="452" type="line"/>
      <point x="180" y="456"/>
      <point x="188" y="458"/>
      <point x="198" y="458" type="curve" smooth="yes"/>
      <point x="203" y="458"/>
      <point x="245" y="455"/>
      <point x="245" y="409" type="curve" smooth="yes"/>
      <point x="245" y="360"/>
      <point x="200" y="328"/>
      <point x="163" y="328" type="curve" smooth="yes"/>
      <point x="152" y="328"/>
      <point x="136" y="334"/>
      <point x="132" y="335" type="curve"/>
      <point x="124" y="376" type="line"/>
      <point x="117" y="380"/>
      <point x="109" y="387"/>
      <point x="93" y="387" type="curve" smooth="yes"/>
      <point x="66" y="387"/>
      <point x="52" y="362"/>
      <point x="52" y="352" type="curve" smooth="yes"/>
      <point x="52" y="331"/>
      <point x="82" y="298"/>
      <point x="157" y="298" type="curve" smooth="yes"/>
      <point x="260" y="298"/>
      <point x="324" y="358"/>
      <point x="324" y="416" type="curve" smooth="yes"/>
      <point x="324" y="451"/>
      <point x="300" y="470"/>
      <point x="255" y="478" type="curve"/>
      <point x="319" y="498"/>
      <point x="346" y="534"/>
    </contour>
  </outline>
</glyph>
<glyph name="acute" format="2">
  <advance width="266"/>
  <unicode hex="00B4"/>
  <anchor x="134" y="602" name="U"/>
  <outline>
    <contour>
      <point x="252" y="625" type="line"/>
      <point x="242" y="630"/>
      <point x="193" y="641"/>
      <point x="181" y="643" type="curve"/>
      <point x="72" y="468" type="line"/>
      <point x="80" y="458"/>
      <point x="89" y="450"/>
      <point x="98" y="448" type="curve"/>
      <point x="261" y="601" type="line"/>
    </contour>
  </outline>
</glyph>
<glyph name="mu" format="2">
  <advance width="466"/>
  <unicode hex="00B5"/>
  <outline>
    <contour>
      <point x="446" y="94" type="curve"/>
      <point x="419" y="94" type="line"/>
      <point x="412" y="76"/>
      <point x="400" y="44"/>
      <point x="376" y="44" type="curve" smooth="yes"/>
      <point x="362" y="44"/>
      <point x="366" y="76"/>
      <point x="367" y="86" type="curve" smooth="yes"/>
      <point x="428" y="390" type="line"/>
      <point x="326" y="390" type="line"/>
      <point x="268" y="100" type="line"/>
      <point x="245" y="79"/>
      <point x="217" y="48"/>
      <point x="183" y="48" type="curve" smooth="yes"/>
      <point x="162" y="48"/>
      <point x="151" y="77"/>
      <point x="151" y="95" type="curve" smooth="yes"/>
      <point x="151" y="107"/>
      <point x="153" y="119"/>
      <point x="155" y="130" type="curve" smooth="yes"/>
      <point x="207" y="390" type="line"/>
      <point x="107" y="390" type="line"/>
      <point x="39" y="52" type="line" smooth="yes"/>
      <point x="32" y="14"/>
      <point x="23" y="-24"/>
      <point x="8" y="-60" type="curve" smooth="yes"/>
      <point x="-3" y="-92"/>
      <point x="-22" y="-99"/>
      <point x="-22" y="-136" type="curve" smooth="yes"/>
      <point x="-22" y="-158"/>
      <point x="0" y="-177"/>
      <point x="20" y="-177" type="curve" smooth="yes"/>
      <point x="51" y="-177"/>
      <point x="86" y="-148"/>
      <point x="86" y="-116" type="curve" smooth="yes"/>
      <point x="86" y="-62"/>
      <point x="76" y="-35"/>
      <point x="88" y="21" type="curve"/>
      <point x="99" y="10"/>
      <point x="128" y="-9"/>
      <point x="144" y="-9" type="curve" smooth="yes"/>
      <point x="199" y="-9"/>
      <point x="232" y="14"/>
      <point x="266" y="54" type="curve"/>
      <point x="271" y="23"/>
      <point x="292" y="-9"/>
      <point x="328" y="-9" type="curve" smooth="yes"/>
      <point x="396" y="-9"/>
      <point x="429" y="32"/>
    </contour>
  </outline>
</glyph>
<glyph name="paragraph" format="2">
  <advance width="428"/>
  <unicode hex="00B6"/>
  <outline>
    <contour>
      <point x="425" y="491" type="line"/>
      <point x="425" y="536" type="line"/>
      <point x="238" y="536" type="line" smooth="yes"/>
      <point x="116" y="536"/>
      <point x="40" y="496"/>
      <point x="40" y="375" type="curve" smooth="yes"/>
      <point x="40" y="246"/>
      <point x="130" y="216"/>
      <point x="256" y="216" type="curve"/>
      <point x="256" y="485" type="line"/>
      <point x="317" y="485" type="line"/>
      <point x="317" y="-63" type="line"/>
      <point x="376" y="-63" type="line"/>
      <point x="376" y="483" type="line"/>
    </contour>
  </outline>
</glyph>
<glyph name="cedilla" format="2">
  <advance width="142"/>
  <unicode hex="00B8"/>
  <outline>
    <contour>
      <point x="100" y="-97" type="curve"/>
      <point x="100" y="-68"/>
      <point x="81" y="-46"/>
      <point x="47" y="-45" type="curve"/>
      <point x="50" y="-34"/>
      <point x="58" y="3"/>
      <point x="61" y="21" type="curve"/>
      <point x="23" y="22" type="line"/>
      <point x="17" y="-9"/>
      <point x="4" y="-54"/>
      <point x="-13" y="-94" type="curve"/>
      <point x="7" y="-93"/>
      <point x="20" y="-102"/>
      <point x="20" y="-115" type="curve" smooth="yes"/>
      <point x="20" y="-140"/>
      <point x="-13" y="-161"/>
      <point x="-66" y="-138" type="curve"/>
      <point x="-65" y="-164" type="line"/>
      <point x="16" y="-206"/>
      <point x="100" y="-159"/>
    </contour>
  </outline>
</glyph>
<glyph name="onesuperior" format="2">
  <advance width="311"/>
  <unicode hex="00B9"/>
  <anchor x="239" y="644" name="U"/>
  <outline>
    <contour>
      <point x="296" y="635" type="line"/>
      <point x="261" y="635" type="line"/>
      <point x="132" y="602" type="line"/>
      <point x="132" y="576" type="line"/>
      <point x="212" y="585" type="line"/>
      <point x="160" y="343" type="line" smooth="yes"/>
      <point x="160" y="339"/>
      <point x="155" y="335"/>
      <point x="151" y="335" type="curve" smooth="yes"/>
      <point x="98" y="332" type="line"/>
      <point x="98" y="306" type="line"/>
      <point x="283" y="306" type="line"/>
      <point x="283" y="332" type="line"/>
      <point x="244" y="335" type="line" smooth="yes"/>
      <point x="238" y="336"/>
      <point x="232" y="339"/>
      <point x="233" y="342" type="curve" smooth="yes"/>
    </contour>
  </outline>
</glyph>
<glyph name="ordmasculine" format="2">
  <advance width="287"/>
  <unicode hex="00BA"/>
  <outline>
    <contour>
      <point x="312" y="451" type="curve" smooth="yes"/>
      <point x="312" y="514"/>
      <point x="271" y="546"/>
      <point x="207" y="546" type="curve" smooth="yes"/>
      <point x="111" y="546"/>
      <point x="57" y="467"/>
      <point x="57" y="392" type="curve" smooth="yes"/>
      <point x="57" y="339"/>
      <point x="89" y="300"/>
      <point x="161" y="300" type="curve" smooth="yes"/>
      <point x="255" y="300"/>
      <point x="312" y="376"/>
    </contour>
    <contour>
      <point x="267" y="277" type="line"/>
      <point x="32" y="277" type="line"/>
      <point x="24" y="238" type="line"/>
      <point x="260" y="238" type="line"/>
    </contour>
    <contour>
      <point x="237" y="453" type="curve" smooth="yes"/>
      <point x="237" y="394"/>
      <point x="203" y="327"/>
      <point x="167" y="327" type="curve" smooth="yes"/>
      <point x="155" y="327"/>
      <point x="132" y="345"/>
      <point x="132" y="395" type="curve" smooth="yes"/>
      <point x="132" y="460"/>
      <point x="169" y="520"/>
      <point x="200" y="520" type="curve" smooth="yes"/>
      <point x="214" y="520"/>
      <point x="237" y="500"/>
    </contour>
  </outline>
</glyph>
<glyph name="guillemetright" format="2">
  <advance width="330"/>
  <unicode hex="00BB"/>
  <outline>
    <contour>
      <point x="232" y="385" type="line"/>
      <point x="178" y="385" type="line"/>
      <point x="231" y="192" type="line"/>
      <point x="100" y="0" type="line"/>
      <point x="154" y="0" type="line"/>
      <point x="308" y="173" type="line"/>
      <point x="316" y="213" type="line"/>
    </contour>
    <contour>
      <point x="96" y="385" type="line"/>
      <point x="42" y="385" type="line"/>
      <point x="94" y="192" type="line"/>
      <point x="-35" y="0" type="line"/>
      <point x="17" y="0" type="line"/>
      <point x="171" y="173" type="line"/>
      <point x="180" y="213" type="line"/>
    </contour>
  </outline>
</glyph>
<glyph name="guillemotright" format="2">
  <advance width="413"/>
  <unicode hex="00BB"/>
  <outline>
    <contour>
      <point x="224" y="216" type="curve"/>
      <point x="95" y="400" type="line"/>
      <point x="71" y="382" type="line"/>
      <point x="80" y="352"/>
      <point x="122" y="230"/>
      <point x="130" y="200" type="curve"/>
      <point x="22" y="18" type="line"/>
      <point x="40" y="0" type="line"/>
      <point x="219" y="184" type="line"/>
      <point x="220" y="190"/>
      <point x="223" y="210"/>
    </contour>
    <contour>
      <point x="382" y="216" type="curve"/>
      <point x="253" y="400" type="line"/>
      <point x="229" y="382" type="line"/>
      <point x="237" y="352"/>
      <point x="280" y="230"/>
      <point x="288" y="200" type="curve"/>
      <point x="179" y="18" type="line"/>
      <point x="198" y="0" type="line"/>
      <point x="377" y="184" type="line"/>
      <point x="378" y="190"/>
      <point x="381" y="210"/>
    </contour>
  </outline>
</glyph>
<glyph name="onequarter" format="2">
  <advance width="725"/>
  <unicode hex="00BC"/>
  <outline>
    <contour>
      <point x="673" y="124" type="line"/>
      <point x="616" y="124" type="line"/>
      <point x="655" y="324" type="line"/>
      <point x="599" y="324" type="line"/>
      <point x="388" y="126" type="line"/>
      <point x="380" y="85" type="line"/>
      <point x="541" y="85" type="line"/>
      <point x="521" y="-14" type="line"/>
      <point x="587" y="-14" type="line"/>
      <point x="607" y="85" type="line"/>
      <point x="666" y="85" type="line"/>
    </contour>
    <contour>
      <point x="644" y="555" type="line"/>
      <point x="584" y="555" type="line"/>
      <point x="121" y="0" type="line"/>
      <point x="180" y="0" type="line"/>
    </contour>
    <contour>
      <point x="261" y="566" type="line"/>
      <point x="226" y="566" type="line"/>
      <point x="96" y="533" type="line"/>
      <point x="96" y="506" type="line"/>
      <point x="176" y="516" type="line"/>
      <point x="125" y="273" type="line" smooth="yes"/>
      <point x="124" y="270"/>
      <point x="120" y="266"/>
      <point x="116" y="266" type="curve" smooth="yes"/>
      <point x="63" y="263" type="line"/>
      <point x="63" y="236" type="line"/>
      <point x="248" y="236" type="line"/>
      <point x="248" y="263" type="line"/>
      <point x="208" y="266" type="line" smooth="yes"/>
      <point x="203" y="267"/>
      <point x="198" y="269"/>
      <point x="199" y="272" type="curve" smooth="yes"/>
    </contour>
    <contour>
      <point x="575" y="255" type="line"/>
      <point x="549" y="124" type="line"/>
      <point x="438" y="124" type="line"/>
    </contour>
  </outline>
</glyph>
<glyph name="onehalf" format="2">
  <advance width="725"/>
  <unicode hex="00BD"/>
  <outline>
    <contour>
      <point x="685" y="252" type="curve" smooth="yes"/>
      <point x="685" y="307"/>
      <point x="633" y="328"/>
      <point x="586" y="328" type="curve" smooth="yes"/>
      <point x="537" y="328"/>
      <point x="445" y="307"/>
      <point x="445" y="244" type="curve" smooth="yes"/>
      <point x="445" y="224"/>
      <point x="461" y="217"/>
      <point x="479" y="217" type="curve" smooth="yes"/>
      <point x="491" y="217"/>
      <point x="504" y="221"/>
      <point x="516" y="226" type="curve"/>
      <point x="528" y="291" type="line"/>
      <point x="538" y="293"/>
      <point x="546" y="296"/>
      <point x="556" y="296" type="curve" smooth="yes"/>
      <point x="587" y="296"/>
      <point x="607" y="277"/>
      <point x="607" y="247" type="curve" smooth="yes"/>
      <point x="607" y="157"/>
      <point x="466" y="83"/>
      <point x="400" y="39" type="curve"/>
      <point x="393" y="0" type="line"/>
      <point x="648" y="0" type="line"/>
      <point x="666" y="94" type="line"/>
      <point x="632" y="94" type="line"/>
      <point x="615" y="51" type="line"/>
      <point x="471" y="51" type="line"/>
      <point x="539" y="87"/>
      <point x="685" y="161"/>
    </contour>
    <contour>
      <point x="625" y="555" type="line"/>
      <point x="567" y="555" type="line"/>
      <point x="103" y="0" type="line"/>
      <point x="162" y="0" type="line"/>
    </contour>
    <contour>
      <point x="261" y="566" type="line"/>
      <point x="226" y="566" type="line"/>
      <point x="96" y="533" type="line"/>
      <point x="96" y="506" type="line"/>
      <point x="176" y="516" type="line"/>
      <point x="125" y="273" type="line" smooth="yes"/>
      <point x="124" y="270"/>
      <point x="120" y="266"/>
      <point x="116" y="266" type="curve" smooth="yes"/>
      <point x="63" y="263" type="line"/>
      <point x="63" y="236" type="line"/>
      <point x="248" y="236" type="line"/>
      <point x="248" y="263" type="line"/>
      <point x="208" y="266" type="line" smooth="yes"/>
      <point x="203" y="267"/>
      <point x="198" y="269"/>
      <point x="199" y="272" type="curve" smooth="yes"/>
    </contour>
  </outline>
</glyph>
<glyph name="threequarters" format="2">
  <advance width="531"/>
  <unicode hex="00BE"/>
  <outline>
    <contour>
      <point x="541" y="530" type="line"/>
      <point x="533" y="542" type="line"/>
      <point x="520" y="540"/>
      <point x="485" y="533"/>
      <point x="474" y="528" type="curve"/>
      <point x="21" y="0" type="line"/>
      <point x="29" y="-13" type="line"/>
      <point x="44" y="-9"/>
      <point x="76" y="-5"/>
      <point x="90" y="1" type="curve"/>
    </contour>
    <contour>
      <point x="255" y="370" type="curve" smooth="yes"/>
      <point x="255" y="398"/>
      <point x="239" y="423"/>
      <point x="203" y="427" type="curve"/>
      <point x="236" y="438"/>
      <point x="261" y="460"/>
      <point x="261" y="490" type="curve" smooth="yes"/>
      <point x="261" y="516"/>
      <point x="244" y="540"/>
      <point x="186" y="540" type="curve" smooth="yes"/>
      <point x="129" y="540"/>
      <point x="83" y="502"/>
      <point x="79" y="479" type="curve"/>
      <point x="85" y="464" type="line"/>
      <point x="101" y="464"/>
      <point x="131" y="474"/>
      <point x="145" y="480" type="curve"/>
      <point x="144" y="501"/>
      <point x="156" y="514"/>
      <point x="172" y="514" type="curve" smooth="yes"/>
      <point x="187" y="514"/>
      <point x="194" y="506"/>
      <point x="194" y="488" type="curve" smooth="yes"/>
      <point x="194" y="455"/>
      <point x="170" y="434"/>
      <point x="124" y="424" type="curve"/>
      <point x="126" y="403" type="line"/>
      <point x="135" y="405"/>
      <point x="137" y="405"/>
      <point x="145" y="405" type="curve" smooth="yes"/>
      <point x="170" y="405"/>
      <point x="186" y="392"/>
      <point x="186" y="364" type="curve" smooth="yes"/>
      <point x="186" y="328"/>
      <point x="161" y="305"/>
      <point x="131" y="305" type="curve" smooth="yes"/>
      <point x="108" y="305"/>
      <point x="83" y="312"/>
      <point x="59" y="331" type="curve"/>
      <point x="44" y="309" type="line"/>
      <point x="67" y="286"/>
      <point x="106" y="273"/>
      <point x="130" y="273" type="curve" smooth="yes"/>
      <point x="197" y="273"/>
      <point x="255" y="317"/>
    </contour>
    <contour>
      <point x="488" y="94" type="curve"/>
      <point x="483" y="101" type="line"/>
      <point x="449" y="101" type="line"/>
      <point x="474" y="253" type="line"/>
      <point x="465" y="262" type="line"/>
      <point x="449" y="257"/>
      <point x="420" y="250"/>
      <point x="404" y="245" type="curve"/>
      <point x="266" y="78" type="line"/>
      <point x="275" y="69" type="line"/>
      <point x="384" y="69" type="line"/>
      <point x="378" y="32" type="line" smooth="yes"/>
      <point x="377" y="27"/>
      <point x="368" y="23"/>
      <point x="326" y="17" type="curve"/>
      <point x="323" y="0" type="line"/>
      <point x="466" y="0" type="line"/>
      <point x="468" y="17" type="line"/>
      <point x="443" y="22"/>
      <point x="437" y="26"/>
      <point x="438" y="30" type="curve" smooth="yes"/>
      <point x="444" y="69" type="line"/>
      <point x="459" y="69" type="line"/>
      <point x="466" y="74"/>
      <point x="480" y="85"/>
    </contour>
    <contour>
      <point x="389" y="101" type="line"/>
      <point x="323" y="101" type="line"/>
      <point x="406" y="202" type="line"/>
    </contour>
  </outline>
</glyph>
<glyph name="questiondown" format="2">
  <advance width="376"/>
  <unicode hex="00BF"/>
  <outline>
    <contour>
      <point x="301" y="-77" type="curve"/>
      <point x="290" y="-61" type="line"/>
      <point x="264" y="-64"/>
      <point x="227" y="-73"/>
      <point x="202" y="-85" type="curve"/>
      <point x="212" y="-140"/>
      <point x="190" y="-186"/>
      <point x="148" y="-186" type="curve" smooth="yes"/>
      <point x="106" y="-186"/>
      <point x="85" y="-151"/>
      <point x="85" y="-100" type="curve" smooth="yes"/>
      <point x="85" y="4"/>
      <point x="217" y="61"/>
      <point x="221" y="175" type="curve"/>
      <point x="223" y="228" type="line"/>
      <point x="214" y="238" type="line"/>
      <point x="199" y="233"/>
      <point x="183" y="225"/>
      <point x="172" y="217" type="curve"/>
      <point x="166" y="177" type="line" smooth="yes"/>
      <point x="150" y="58"/>
      <point x="-11" y="24"/>
      <point x="-11" y="-125" type="curve" smooth="yes"/>
      <point x="-11" y="-185"/>
      <point x="29" y="-233"/>
      <point x="108" y="-233" type="curve" smooth="yes"/>
      <point x="224" y="-233"/>
      <point x="301" y="-151"/>
    </contour>
    <contour>
      <point x="152" y="324" type="curve"/>
      <point x="152" y="297"/>
      <point x="168" y="278"/>
      <point x="199" y="278" type="curve" smooth="yes"/>
      <point x="244" y="278"/>
      <point x="275" y="325"/>
      <point x="275" y="360" type="curve" smooth="yes"/>
      <point x="275" y="389"/>
      <point x="260" y="408"/>
      <point x="228" y="408" type="curve" smooth="yes"/>
      <point x="179" y="408"/>
      <point x="152" y="362"/>
    </contour>
  </outline>
</glyph>
<glyph name="AE" format="2">
  <advance width="684"/>
  <unicode hex="00C6"/>
  <outline>
    <contour>
      <point x="669" y="142" type="curve"/>
      <point x="637" y="154" type="line"/>
      <point x="604" y="86"/>
      <point x="581" y="57"/>
      <point x="531" y="57" type="curve" smooth="yes"/>
      <point x="497" y="57" type="line" smooth="yes"/>
      <point x="424" y="57"/>
      <point x="414" y="68"/>
      <point x="416" y="85" type="curve" smooth="yes"/>
      <point x="442" y="270" type="line"/>
      <point x="518" y="270" type="line" smooth="yes"/>
      <point x="540" y="270"/>
      <point x="564" y="263"/>
      <point x="577" y="246" type="curve"/>
      <point x="588" y="256"/>
      <point x="611" y="290"/>
      <point x="623" y="306" type="curve"/>
      <point x="610" y="322" type="line"/>
      <point x="449" y="322" type="line"/>
      <point x="472" y="496" type="line"/>
      <point x="606" y="496" type="line" smooth="yes"/>
      <point x="627" y="496"/>
      <point x="632" y="462"/>
      <point x="627" y="408" type="curve"/>
      <point x="662" y="408" type="line"/>
      <point x="673" y="431"/>
      <point x="691" y="508"/>
      <point x="696" y="538" type="curve"/>
      <point x="682" y="553" type="line"/>
      <point x="213" y="553" type="line"/>
      <point x="208" y="517" type="line"/>
      <point x="260" y="506"/>
      <point x="271" y="500"/>
      <point x="261" y="480" type="curve" smooth="yes"/>
      <point x="48" y="66" type="line"/>
      <point x="39" y="49"/>
      <point x="19" y="41"/>
      <point x="-12" y="36" type="curve"/>
      <point x="-17" y="0" type="line"/>
      <point x="152" y="0" type="line"/>
      <point x="157" y="36" type="line"/>
      <point x="119" y="41"/>
      <point x="110" y="49"/>
      <point x="119" y="66" type="curve"/>
      <point x="225" y="270" type="line"/>
      <point x="327" y="270" type="line"/>
      <point x="298" y="63" type="line" smooth="yes"/>
      <point x="297" y="55"/>
      <point x="278" y="44"/>
      <point x="241" y="36" type="curve"/>
      <point x="236" y="0" type="line"/>
      <point x="633" y="0" type="line"/>
      <point x="639" y="17"/>
      <point x="657" y="91"/>
    </contour>
    <contour>
      <point x="334" y="322" type="line"/>
      <point x="250" y="322" type="line"/>
      <point x="332" y="479" type="line" smooth="yes"/>
      <point x="342" y="499"/>
      <point x="358" y="499"/>
      <point x="356" y="486" type="curve" smooth="yes"/>
    </contour>
  </outline>
</glyph>
<glyph name="Eth" format="2">
  <advance width="570"/>
  <unicode hex="00D0"/>
  <anchor x="333" y="585" name="U"/>
  <outline>
    <component base="D"/>
    <contour>
      <point x="16" y="256" type="line"/>
      <point x="312" y="256" type="line"/>
      <point x="312" y="307" type="line"/>
      <point x="16" y="307" type="line"/>
    </contour>
  </outline>
</glyph>
<glyph name="multiply" format="2">
  <advance width="338"/>
  <unicode hex="00D7"/>
  <outline>
    <contour>
      <point x="292" y="116" type="curve"/>
      <point x="295" y="139" type="line"/>
      <point x="101" y="395" type="line"/>
      <point x="89" y="392"/>
      <point x="59" y="381"/>
      <point x="48" y="376" type="curve"/>
      <point x="47" y="356" type="line"/>
      <point x="243" y="98" type="line"/>
      <point x="253" y="101"/>
      <point x="281" y="112"/>
    </contour>
    <contour>
      <point x="11" y="117" type="line"/>
      <point x="23" y="110"/>
      <point x="56" y="99"/>
      <point x="65" y="96" type="curve"/>
      <point x="330" y="353" type="line"/>
      <point x="332" y="375" type="line"/>
      <point x="319" y="381"/>
      <point x="288" y="392"/>
      <point x="277" y="395" type="curve"/>
      <point x="14" y="140" type="line"/>
    </contour>
  </outline>
</glyph>
<glyph name="Oslash" format="2">
  <advance width="601"/>
  <unicode hex="00D8"/>
  <anchor x="365" y="585" name="U"/>
  <outline>
    <contour>
      <point x="586" y="333" type="curve" smooth="yes"/>
      <point x="586" y="401"/>
      <point x="558" y="466"/>
      <point x="501" y="506" type="curve"/>
      <point x="544" y="570" type="line"/>
      <point x="480" y="610" type="line"/>
      <point x="432" y="539" type="line"/>
      <point x="408" y="545"/>
      <point x="382" y="549"/>
      <point x="352" y="549" type="curve" smooth="yes"/>
      <point x="155" y="549"/>
      <point x="38" y="376"/>
      <point x="38" y="210" type="curve" smooth="yes"/>
      <point x="38" y="141"/>
      <point x="62" y="83"/>
      <point x="107" y="43" type="curve"/>
      <point x="55" y="-35" type="line"/>
      <point x="113" y="-76" type="line"/>
      <point x="167" y="5" type="line"/>
      <point x="198" y="-6"/>
      <point x="233" y="-12"/>
      <point x="272" y="-12" type="curve" smooth="yes"/>
      <point x="482" y="-12"/>
      <point x="586" y="169"/>
    </contour>
    <contour>
      <point x="396" y="483" type="curve"/>
      <point x="170" y="139" type="line"/>
      <point x="165" y="158"/>
      <point x="162" y="180"/>
      <point x="162" y="203" type="curve" smooth="yes"/>
      <point x="162" y="348"/>
      <point x="250" y="501"/>
      <point x="345" y="501" type="curve" smooth="yes"/>
      <point x="363" y="501"/>
      <point x="380" y="496"/>
    </contour>
    <contour>
      <point x="461" y="333" type="curve" smooth="yes"/>
      <point x="461" y="194"/>
      <point x="372" y="36"/>
      <point x="278" y="36" type="curve" smooth="yes"/>
      <point x="255" y="36"/>
      <point x="231" y="47"/>
      <point x="210" y="67" type="curve"/>
      <point x="445" y="421" type="line"/>
      <point x="455" y="397"/>
      <point x="461" y="367"/>
    </contour>
  </outline>
</glyph>
<glyph name="Thorn" format="2">
  <advance width="486"/>
  <unicode hex="00DE"/>
  <anchor x="298" y="585" name="U"/>
  <outline>
    <contour>
      <point x="469" y="307" type="curve" smooth="yes"/>
      <point x="469" y="379"/>
      <point x="422" y="437"/>
      <point x="271" y="437" type="curve" smooth="yes"/>
      <point x="241" y="437" type="line"/>
      <point x="249" y="480" type="line" smooth="yes"/>
      <point x="251" y="489"/>
      <point x="256" y="492"/>
      <point x="265" y="492" type="curve"/>
      <point x="265" y="492"/>
      <point x="289" y="494"/>
      <point x="315" y="496" type="curve"/>
      <point x="315" y="536" type="line"/>
      <point x="75" y="536" type="line"/>
      <point x="75" y="496" type="line"/>
      <point x="96" y="494"/>
      <point x="119" y="492"/>
      <point x="119" y="492" type="curve"/>
      <point x="133" y="492"/>
      <point x="137" y="490"/>
      <point x="135" y="480" type="curve" smooth="yes"/>
      <point x="51" y="56" type="line" smooth="yes"/>
      <point x="50" y="47"/>
      <point x="46" y="44"/>
      <point x="35" y="44" type="curve"/>
      <point x="35" y="44"/>
      <point x="11" y="42"/>
      <point x="-13" y="39" type="curve"/>
      <point x="-13" y="0" type="line"/>
      <point x="228" y="0" type="line"/>
      <point x="228" y="39" type="line"/>
      <point x="205" y="42"/>
      <point x="181" y="44"/>
      <point x="181" y="44" type="curve"/>
      <point x="171" y="44"/>
      <point x="164" y="46"/>
      <point x="166" y="55" type="curve" smooth="yes"/>
      <point x="174" y="99" type="line"/>
      <point x="186" y="99"/>
      <point x="200" y="98"/>
      <point x="209" y="98" type="curve" smooth="yes"/>
      <point x="369" y="98"/>
      <point x="469" y="183"/>
    </contour>
    <contour>
      <point x="352" y="294" type="curve" smooth="yes"/>
      <point x="352" y="233"/>
      <point x="322" y="194"/>
      <point x="283" y="171" type="curve" smooth="yes"/>
      <point x="251" y="151"/>
      <point x="215" y="146"/>
      <point x="183" y="148" type="curve"/>
      <point x="232" y="392" type="line"/>
      <point x="236" y="392"/>
      <point x="253" y="392"/>
      <point x="257" y="392" type="curve" smooth="yes"/>
      <point x="311" y="392"/>
      <point x="352" y="357"/>
    </contour>
  </outline>
</glyph>
